<?xml version="1.0" encoding="iso-8859-1"?>
<!-- Generator: Adobe Illustrator 19.0.0, SVG Export Plug-In . SVG Version: 6.00 Build 0)  -->
<svg xmlns="http://www.w3.org/2000/svg" xmlns:xlink="http://www.w3.org/1999/xlink" version="1.1" id="Layer_1" x="0px" y="0px" viewBox="0 0 512 512" style="enable-background:new 0 0 512 512;" xml:space="preserve">
<ellipse style="fill:#785550;" cx="92.33" cy="29.377" rx="33.574" ry="29.377"/>
<path style="fill:#694B4B;" d="M83.934,29.377c0-12.322,8.69-22.837,20.984-27.199C101.025,0.797,96.787,0,92.328,0  C73.785,0,58.754,13.153,58.754,29.377s15.031,29.377,33.574,29.377c4.46,0,8.697-0.797,12.59-2.178  C92.624,52.214,83.934,41.699,83.934,29.377z"/>
<path style="fill:#E6AF78;" d="M153.949,196.466l-27.162-13.58c-5.688-2.844-9.28-8.657-9.28-15.016l0.002-25.181H67.148v25.182  c0,6.358-3.592,12.171-9.28,15.014l-27.162,13.581c-8.531,4.265-13.919,12.984-13.919,22.522v32.816  c0,4.635,3.758,8.393,8.393,8.393h134.295c4.636,0,8.393-3.758,8.393-8.393v-32.815C167.869,209.451,162.48,200.732,153.949,196.466  z"/>
<path style="fill:#D29B6E;" d="M92.328,176.262c9.038,0,17.694-1.863,25.63-5.18c-0.209-1.058-0.451-2.11-0.451-3.213l0.002-25.181  H67.148v25.182c0,1.109-0.243,2.165-0.453,3.228C74.635,174.398,83.287,176.262,92.328,176.262z"/>
<path style="fill:#D5DCED;" d="M153.949,196.466l-19.35-9.675c-8.972,13.856-24.535,23.045-42.27,23.045  c-17.736,0-33.299-9.19-42.272-23.046l-19.35,9.676c-8.531,4.266-13.919,12.984-13.919,22.522v32.815  c0,4.636,3.758,8.393,8.393,8.393h134.295c4.636,0,8.393-3.758,8.393-8.393v-32.814C167.869,209.451,162.48,200.732,153.949,196.466  z"/>
<circle style="fill:#5A4146;" cx="92.33" cy="83.934" r="58.754"/>
<path style="fill:#694B4B;" d="M150.531,75.79c-3.229-23.943-21.573-43.961-45.165-49.169c-4.304-0.95-8.54-1.413-12.673-1.439  C64.544,25.006,55.145,63.873,80.45,76.203c1.361,0.663,2.223,0.96,2.223,0.96l29.238,52.935c0,0,7.791,0.532,15.649,0.774  C143.805,118.659,153.565,98.288,150.531,75.79z"/>
<path style="fill:#F0C087;" d="M92.328,159.475L92.328,159.475c-25.605,0-46.746-19.108-49.943-43.842  c-0.463-3.583,1.259-7.098,4.485-8.725c3.864-1.95,9.48-5.236,14.856-10.034c5.987-5.343,9.5-10.976,11.484-15.112  c1.709-3.562,5.636-5.576,9.463-4.599c29.553,7.538,49.673,22.913,56.972,29.19c1.96,1.686,3.089,4.171,2.887,6.748  C140.501,139.051,118.8,159.475,92.328,159.475z"/>
<path style="fill:#E6AF78;" d="M139.646,106.353c-7.299-6.277-27.419-21.652-56.972-29.19c-3.828-0.976-7.755,1.038-9.464,4.599  c-1.503,3.132-3.985,7.123-7.67,11.196c-0.001,0.01-0.004,0.018-0.005,0.028c-1.143,1.296-2.361,2.595-3.809,3.887  c-5.377,4.798-10.992,8.084-14.857,10.034c-3.226,1.628-4.948,5.142-4.485,8.725c2.871,22.214,20.254,39.762,42.307,43.134  c-10.049-6.837-17.545-16.105-17.545-32.865v-11.969c1.907-1.407,3.826-2.811,5.756-4.533c4.665-4.163,8.738-8.978,12.004-14.162  c22.608,7.055,37.935,18.805,43.746,23.802c1.59,1.395,5.538,5.033,10.157,9.366c1.987-4.782,3.301-9.913,3.723-15.305  C142.735,110.524,141.606,108.038,139.646,106.353z"/>
<g>
	<path style="fill:#C7CFE2;" d="M21.904,203.858c-3.234,4.29-5.117,9.555-5.117,15.131v32.815c0,4.636,3.758,8.393,8.393,8.393   h25.18v-25.506c0-5.1-2.318-9.923-6.3-13.108L21.904,203.858z"/>
	<path style="fill:#C7CFE2;" d="M162.752,203.858c3.234,4.29,5.117,9.555,5.117,15.131v32.815c0,4.636-3.758,8.393-8.393,8.393   h-25.18v-25.506c0-5.1,2.318-9.923,6.3-13.108L162.752,203.858z"/>
</g>
<g>
	<path style="fill:#D5DCED;" d="M424.877,193.795c-4.443-1.32-9.123,1.176-10.459,5.611l-4.213,13.945   c-22.954-66.675-85.435-112.629-158.402-112.629c-32.246,0-63.566,9.168-90.574,26.512c-3.902,2.504-5.033,7.697-2.533,11.598   c2.508,3.893,7.689,5.025,11.598,2.525c24.295-15.602,52.484-23.848,81.508-23.848c65.645,0,121.962,41.28,142.651,101.243   l-11.422-11.579c-3.254-3.299-8.582-3.336-11.869-0.082c-3.303,3.254-3.336,8.57-0.082,11.869l32.156,32.598   c1.598,1.619,3.754,2.5,5.975,2.5c0.672,0,1.352-0.082,2.016-0.246c2.877-0.713,5.164-2.885,6.016-5.721l13.238-43.832   C431.828,199.82,429.311,195.135,424.877,193.795z"/>
	<path style="fill:#D5DCED;" d="M333.311,395.824c-24.295,15.602-52.484,23.848-81.508,23.848   c-65.607,0-121.737-41.311-142.441-101.223l12.687,11.686c3.418,3.143,8.713,2.93,11.861-0.488   c3.139-3.41,2.926-8.717-0.484-11.857l-33.68-31.021c-2.189-2.016-5.279-2.721-8.09-1.869c-2.844,0.848-5.025,3.127-5.738,6.004   l-11.123,44.418c-1.131,4.496,1.607,9.053,6.098,10.18c0.689,0.168,1.369,0.25,2.049,0.25c3.754,0,7.18-2.541,8.131-6.357   l3.289-13.122c23.632,65.33,85.384,110.184,157.44,110.184c32.246,0,63.566-9.168,90.574-26.512   c3.902-2.504,5.033-7.697,2.533-11.598C342.402,394.451,337.213,393.307,333.311,395.824z"/>
</g>
<path style="fill:#E6AF78;" d="M476.95,434.816l-34.403-9.829c-3.603-1.029-6.088-4.323-6.088-8.071v-14.031h-50.361v14.03  c0,3.747-2.484,7.041-6.088,8.07l-34.404,9.83c-10.81,3.089-18.263,12.969-18.263,24.212v44.579c0,4.636,3.758,8.393,8.393,8.393  H486.82c4.636,0,8.393-3.758,8.393-8.393v-44.579C495.213,447.785,487.76,437.905,476.95,434.816z"/>
<path style="fill:#D5DCED;" d="M476.95,434.816l-31.463-8.989c-4.721,15.054-18.615,26.05-35.227,26.05  c-16.415,0-30.179-10.737-35.061-25.516l-29.593,8.455c-10.81,3.089-18.262,12.969-18.262,24.212v44.579  c0,4.635,3.758,8.393,8.393,8.393H486.82c4.635,0,8.393-3.758,8.393-8.393v-44.579C495.213,447.785,487.76,437.905,476.95,434.816z"/>
<path style="fill:#5A4146;" d="M352.524,310.557v5.89c0,7.217,1.164,14.387,3.446,21.234l13.341,40.023h25.18v-92.328h-16.787  C363.798,285.377,352.524,296.651,352.524,310.557z"/>
<path style="fill:#694B4B;" d="M467.449,327.993l-14.203,49.712l-67.148-58.754c-9.271,0-16.787-7.516-16.787-16.787l0,0  c0-13.907,11.274-25.18,25.18-25.18h58.754c9.271,0,16.787,7.516,16.787,16.787v15.776  C470.033,315.786,469.163,321.994,467.449,327.993z"/>
<path style="fill:#D29B6E;" d="M386.098,418.303c7.785,3.163,16.274,4.944,25.18,4.944s17.396-1.781,25.18-4.944v-15.418h-50.361  v15.418H386.098z"/>
<path style="fill:#F0C087;" d="M411.279,411.279L411.279,411.279c-27.814,0-50.361-22.547-50.361-50.361v-9.834  c0-4.452,1.769-8.722,4.917-11.87l15.22-15.22c3.223-3.223,7.63-5.076,12.186-4.933c26.831,0.846,50.58,6.594,63.562,19.274  c3.178,3.104,4.837,7.446,4.837,11.888v10.695C461.639,388.731,439.092,411.279,411.279,411.279z"/>
<path style="fill:#E6AF78;" d="M386.098,353.167c0-9.682,8.131-17.379,17.794-16.762c16.945,1.081,42.088,3.913,57.514,11.333  c-0.504-3.541-2.025-6.884-4.603-9.403c-12.982-12.679-36.731-18.427-63.562-19.274l-0.001,0.001v-0.001  c-4.555-0.143-8.962,1.711-12.184,4.933l-15.22,15.22c-3.149,3.148-4.917,7.418-4.917,11.87v9.833  c0,22.967,15.389,42.304,36.407,48.359c-6.996-8.632-11.226-19.588-11.226-31.572v-24.537H386.098z"/>
<g>
	<path style="fill:#C7CFE2;" d="M360.918,484.038c0-6.678-2.653-13.083-7.375-17.805l-21.606-21.606   c-2.888,4.128-4.593,9.097-4.593,14.401v44.579c0,4.636,3.758,8.393,8.393,8.393h25.18L360.918,484.038L360.918,484.038z"/>
	<path style="fill:#C7CFE2;" d="M461.639,484.038c0-6.678,2.653-13.083,7.375-17.805l21.606-21.606   c2.888,4.128,4.593,9.097,4.593,14.401v44.579c0,4.636-3.758,8.393-8.393,8.393h-25.18L461.639,484.038L461.639,484.038z"/>
</g>
<g>
</g>
<g>
</g>
<g>
</g>
<g>
</g>
<g>
</g>
<g>
</g>
<g>
</g>
<g>
</g>
<g>
</g>
<g>
</g>
<g>
</g>
<g>
</g>
<g>
</g>
<g>
</g>
<g>
</g>
</svg>
