<?xml version="1.0" encoding="iso-8859-1"?>
<!-- Generator: Adobe Illustrator 19.0.0, SVG Export Plug-In . SVG Version: 6.00 Build 0)  -->
<svg xmlns="http://www.w3.org/2000/svg" xmlns:xlink="http://www.w3.org/1999/xlink" version="1.1" id="Layer_1" x="0px" y="0px" viewBox="0 0 512 512" style="enable-background:new 0 0 512 512;" xml:space="preserve">
<circle style="fill:#ECF0FA;" cx="256" cy="371.611" r="41.29"/>
<circle style="fill:#D5DCED;" cx="256" cy="371.611" r="24.774"/>
<path style="fill:#5A4146;" d="M510.994,252.343c-8.625-22.853-15.466-62.139-16.943-82.592  c-2.811-38.923-32.144-70.652-71.794-70.652s-68.983,31.73-71.794,70.652c-1.477,20.453-8.318,59.739-16.943,82.592  c-1.901,5.038,0.294,10.593,5.254,12.842c9.243,4.189,28.948,12.394,52.714,15.591h61.538c23.655-3.204,43.498-11.414,52.714-15.591  C510.7,262.936,512.895,257.38,510.994,252.343z"/>
<path style="fill:#694B4B;" d="M505.74,265.185c4.96-2.249,7.155-7.804,5.254-12.842c-8.625-22.853-15.466-62.139-16.943-82.592  c-2.81-38.923-32.144-70.652-71.794-70.652c-0.1,0-0.2,0-0.299,0.001c-30.425,0.123-41.176,41.616-14.986,57.099  c1.573,0.93,2.581,1.377,2.581,1.377l22.94,123.201h20.533C476.681,277.572,496.524,269.361,505.74,265.185z"/>
<path style="fill:#E6AF78;" d="M495.261,301.038l-32.663-16.331c-6.839-3.42-11.16-10.41-11.159-18.057l0.002-30.28h-60.559v30.281  c0,7.646-4.32,14.635-11.159,18.055l-32.662,16.332c-10.258,5.129-16.738,15.614-16.738,27.082v41.658  c0,5.574,4.519,10.093,10.093,10.093h161.491c5.575,0,10.093-4.519,10.093-10.093v-41.657  C512,316.652,505.52,306.167,495.261,301.038z"/>
<path style="fill:#D29B6E;" d="M421.161,276.743c10.868,0,21.277-2.24,30.82-6.229c-0.251-1.272-0.543-2.537-0.543-3.864  l0.002-30.28h-60.559v30.281c0,1.333-0.292,2.604-0.545,3.882C399.886,274.501,410.29,276.743,421.161,276.743z"/>
<path style="fill:#FFF082;" d="M495.261,301.038l-23.269-11.634c-10.789,16.661-29.503,27.711-50.831,27.711  s-40.043-11.051-50.832-27.713l-23.269,11.635c-10.258,5.129-16.738,15.614-16.738,27.083v41.658  c0,5.574,4.519,10.093,10.093,10.093h161.491c5.574,0,10.093-4.519,10.093-10.093v-41.657  C512,316.652,505.52,306.167,495.261,301.038z"/>
<path style="fill:#F0C087;" d="M421.161,256.556L421.161,256.556c-30.79,0-56.213-22.978-60.057-52.721  c-0.557-4.309,1.514-8.535,5.393-10.492c4.647-2.345,11.399-6.296,17.865-12.066c7.2-6.424,11.424-13.199,13.809-18.172  c2.055-4.283,6.777-6.705,11.38-5.531c35.538,9.064,59.732,27.553,68.509,35.101c2.357,2.027,3.715,5.015,3.472,8.114  C479.09,231.996,452.994,256.556,421.161,256.556z"/>
<path style="fill:#E6AF78;" d="M478.062,192.676c-8.777-7.548-32.972-26.037-68.509-35.101c-4.603-1.174-9.326,1.248-11.38,5.531  c-1.807,3.766-4.792,8.565-9.223,13.464c-0.001,0.012-0.004,0.022-0.006,0.034c-1.375,1.559-2.839,3.12-4.58,4.674  c-6.466,5.77-13.218,9.721-17.865,12.066c-3.879,1.957-5.95,6.183-5.393,10.492c3.452,26.712,24.356,47.814,50.875,51.869  c-12.084-8.221-21.098-19.366-21.098-39.521v-14.393c2.293-1.692,4.601-3.381,6.922-5.451c5.61-5.006,10.507-10.796,14.434-17.03  c27.186,8.483,45.617,22.614,52.605,28.622c1.912,1.677,6.659,6.053,12.214,11.263c2.39-5.75,3.97-11.92,4.477-18.405  C481.776,197.691,480.419,194.703,478.062,192.676z"/>
<g>
	<path style="fill:#FFDC64;" d="M336.476,309.926c-3.888,5.159-6.153,11.49-6.153,18.195v41.658c0,5.574,4.519,10.093,10.093,10.093   h30.28v-32.868c0-6.132-2.788-11.932-7.576-15.763L336.476,309.926z"/>
	<path style="fill:#FFDC64;" d="M505.847,309.926c3.888,5.159,6.153,11.49,6.153,18.195v41.658c0,5.574-4.519,10.093-10.093,10.093   h-30.28v-32.868c0-6.132,2.788-11.932,7.576-15.763L505.847,309.926z"/>
</g>
<path style="fill:#5A4146;" d="M29.729,146.995v6.954c0,8.521,1.374,16.986,4.068,25.07l15.751,47.253h29.729V117.266H59.458  C43.039,117.266,29.729,130.576,29.729,146.995z"/>
<path style="fill:#694B4B;" d="M165.414,167.58l-16.769,58.692l-79.277-69.368c-10.946,0-19.819-8.873-19.819-19.819l0,0  c0-16.419,13.31-29.729,29.729-29.729h69.368c10.946,0,19.819,8.873,19.819,19.819v18.626  C168.465,153.167,167.438,160.497,165.414,167.58z"/>
<rect x="69.37" y="256.001" style="fill:#E6AF78;" width="59.46" height="43.859"/>
<path style="fill:#D29B6E;" d="M69.368,274.204c9.191,3.734,19.213,5.837,29.729,5.837s20.538-2.102,29.729-5.837v-18.203H69.368  V274.204z"/>
<path style="fill:#B4E66E;" d="M176.631,293.701l-47.808-13.658L99.097,299.77l-29.729-19.728l-47.806,13.659  C8.799,297.348,0,309.012,0,322.285v47.677c0,5.473,4.437,9.91,9.91,9.91h178.374c5.473,0,9.91-4.437,9.91-9.91v-47.677  C198.194,309.012,189.394,297.346,176.631,293.701z"/>
<polygon style="fill:#707487;" points="109.006,379.872 89.187,379.872 94.142,299.861 104.052,299.861 "/>
<path style="fill:#F0C087;" d="M99.097,265.911L99.097,265.911c-32.838,0-59.458-26.62-59.458-59.458v-11.61  c0-5.256,2.088-10.298,5.805-14.014l17.97-17.97c3.805-3.805,9.009-5.993,14.387-5.824c31.677,0.999,59.717,7.786,75.044,22.755  c3.752,3.664,5.71,8.791,5.71,14.035v12.627C158.555,239.29,131.935,265.911,99.097,265.911z"/>
<path style="fill:#E6AF78;" d="M69.368,197.301c0-11.431,9.6-20.518,21.008-19.79c20.006,1.276,49.691,4.62,67.903,13.38  c-0.595-4.181-2.391-8.127-5.435-11.101c-15.327-14.97-43.366-21.756-75.044-22.755l-0.001,0.001l-0.001-0.001  c-5.378-0.169-10.581,2.02-14.385,5.824l-17.969,17.969c-3.717,3.717-5.805,8.758-5.805,14.015v11.61  c0,27.116,18.169,49.946,42.983,57.095c-8.26-10.191-13.254-23.126-13.254-37.276V197.301z"/>
<g>
	<path style="fill:#A0D755;" d="M39.639,351.814c0-7.885-3.132-15.446-8.707-21.022l-25.51-25.508   C2.013,310.156,0,316.023,0,322.285v47.677c0,5.473,4.437,9.91,9.91,9.91h29.729V351.814z"/>
	<path style="fill:#A0D755;" d="M158.555,351.814c0-7.885,3.132-15.446,8.707-21.022l25.509-25.509   c3.409,4.873,5.422,10.74,5.422,17.003v47.677c0,5.473-4.437,9.91-9.91,9.91h-29.729v-28.059H158.555z"/>
</g>
<path style="fill:#5B5D6E;" d="M104.877,319.68H93.316c-2.28,0-4.129-1.849-4.129-4.129v-15.69h19.819v15.69  C109.006,317.831,107.158,319.68,104.877,319.68z"/>
<g>
	<path style="fill:#A0D755;" d="M99.097,299.77L82.3,312.599c-2.893,2.21-7.076,1.324-8.825-1.869l-15.067-27.516l6.065-9.251   c1.345-2.052,4.212-2.401,6.011-0.733L99.097,299.77z"/>
	<path style="fill:#A0D755;" d="M99.097,299.77l16.796,12.831c2.893,2.21,7.076,1.324,8.825-1.869l15.067-27.516l-6.065-9.251   c-1.345-2.052-4.212-2.401-6.011-0.733L99.097,299.77z"/>
</g>
<g>
	<path style="fill:#5B5D6E;" d="M222.968,363.357h-66.066l13.211-9.911c3.653-2.734,4.395-7.911,1.653-11.56   c-2.734-3.645-7.919-4.395-11.556-1.649l-33.032,24.774c-2.081,1.556-3.306,4.004-3.306,6.605s1.226,5.048,3.306,6.605   l33.032,24.774c1.484,1.117,3.218,1.653,4.944,1.653c2.516,0,4.992-1.141,6.613-3.302c2.742-3.649,2-8.827-1.653-11.56   l-13.211-9.911h66.066c4.565,0,8.258-3.698,8.258-8.258S227.532,363.357,222.968,363.357z"/>
	<path style="fill:#5B5D6E;" d="M384.823,365.009l-33.032-24.774c-3.645-2.738-8.815-1.988-11.556,1.649   c-2.742,3.649-2,8.827,1.653,11.56l13.211,9.911h-66.066c-4.565,0-8.258,3.698-8.258,8.258s3.694,8.258,8.258,8.258h66.066   l-13.211,9.911c-3.653,2.734-4.395,7.911-1.653,11.56c1.621,2.161,4.097,3.302,6.613,3.302c1.726,0,3.46-0.536,4.944-1.653   l33.032-24.774c2.081-1.556,3.306-4.004,3.306-6.605C388.129,369.013,386.903,366.566,384.823,365.009z"/>
	<circle style="fill:#5B5D6E;" cx="256" cy="371.611" r="8.258"/>
</g>
<g>
</g>
<g>
</g>
<g>
</g>
<g>
</g>
<g>
</g>
<g>
</g>
<g>
</g>
<g>
</g>
<g>
</g>
<g>
</g>
<g>
</g>
<g>
</g>
<g>
</g>
<g>
</g>
<g>
</g>
</svg>
