<?xml version="1.0" encoding="iso-8859-1"?>
<!-- Generator: Adobe Illustrator 19.0.0, SVG Export Plug-In . SVG Version: 6.00 Build 0)  -->
<svg xmlns="http://www.w3.org/2000/svg" xmlns:xlink="http://www.w3.org/1999/xlink" version="1.1" id="Layer_1" x="0px" y="0px" viewBox="0 0 512 512" style="enable-background:new 0 0 512 512;" xml:space="preserve">
<path style="fill:#5B5D6E;" d="M316.952,512H121.905c-13.465,0-24.381-10.916-24.381-24.381V97.524  c0-13.465,10.916-24.381,24.381-24.381h195.048c13.465,0,24.381,10.916,24.381,24.381v390.095  C341.333,501.084,330.418,512,316.952,512z"/>
<path style="fill:#464655;" d="M130.032,487.619V97.524c0-13.465,10.916-24.381,24.381-24.381h-32.508  c-13.465,0-24.381,10.916-24.381,24.381v390.095c0,13.465,10.916,24.381,24.381,24.381h32.508  C140.947,512,130.032,501.084,130.032,487.619z"/>
<path style="fill:#00AAF0;" d="M316.952,446.984H121.905c-4.488,0-8.127-3.639-8.127-8.127V113.778c0-4.488,3.639-8.127,8.127-8.127  h195.048c4.488,0,8.127,3.639,8.127,8.127v325.079C325.079,443.346,321.441,446.984,316.952,446.984z"/>
<path style="fill:#00C3FF;" d="M325.079,201.746c-16.737-41.994-57.687-71.714-105.651-71.714s-88.914,29.72-105.651,71.714v84.127  c16.737,41.994,57.687,71.714,105.651,71.714s88.914-29.72,105.651-71.714V201.746z"/>
<circle style="fill:#B4E66E;" cx="276.32" cy="398.22" r="24.381"/>
<circle style="fill:#FF507D;" cx="162.54" cy="398.22" r="24.381"/>
<circle style="fill:#FFFFFF;" cx="219.43" cy="243.81" r="81.27"/>
<g>
	<path style="fill:#464655;" d="M170.667,489.651h-8.127c-5.611,0-10.159-4.548-10.159-10.159s4.548-10.159,10.159-10.159h8.127   c5.611,0,10.159,4.548,10.159,10.159S176.278,489.651,170.667,489.651z"/>
	<path style="fill:#464655;" d="M276.317,489.651h-8.127c-5.611,0-10.159-4.548-10.159-10.159s4.548-10.159,10.159-10.159h8.127   c5.611,0,10.159,4.548,10.159,10.159S281.929,489.651,276.317,489.651z"/>
	<path style="fill:#464655;" d="M235.683,489.651h-32.508c-5.611,0-10.159-4.548-10.159-10.159s4.548-10.159,10.159-10.159h32.508   c5.611,0,10.159,4.548,10.159,10.159S241.294,489.651,235.683,489.651z"/>
</g>
<path style="fill:#D5DCED;" d="M373.841,97.524c-4.492,0-8.127-3.635-8.127-8.127c0-22.405-18.23-40.635-40.635-40.635  c-4.492,0-8.127-3.635-8.127-8.127s3.635-8.127,8.127-8.127c31.365,0,56.889,25.524,56.889,56.889  C381.968,93.889,378.333,97.524,373.841,97.524z"/>
<path style="fill:#E4EAF8;" d="M406.349,97.524c-4.492,0-8.127-3.635-8.127-8.127c0-40.333-32.81-73.143-73.143-73.143  c-4.492,0-8.127-3.635-8.127-8.127S320.587,0,325.079,0c49.294,0,89.397,40.103,89.397,89.397  C414.476,93.889,410.841,97.524,406.349,97.524z"/>
<path style="fill:#E6AF78;" d="M259.206,284.975l-19.031-9.516c-2.753-1.376-4.492-4.19-4.492-7.269v-16.254h-32.508v16.254  c0,3.078-1.739,5.893-4.493,7.269l-19.031,9.516c-5.506,2.753-8.985,8.381-8.985,14.537v9.202  c13.593,10.229,30.44,16.365,48.762,16.365s35.169-6.136,48.762-16.365v-9.202C268.19,293.356,264.712,287.728,259.206,284.975z"/>
<path style="fill:#5B5D6E;" d="M259.206,284.974l-14.824-7.412c-5.963,7.211-14.865,11.905-24.953,11.905  c-10.088,0-18.991-4.693-24.953-11.905l-14.824,7.412c-5.506,2.754-8.985,8.382-8.985,14.538v9.202  c13.593,10.229,30.44,16.365,48.762,16.365c18.322,0,35.169-6.136,48.762-16.365v-9.201  C268.19,293.356,264.712,287.728,259.206,284.974z"/>
<path style="fill:#D29B6E;" d="M203.175,251.937v16.254c0,1.734-0.598,3.349-1.572,4.706c5.529,2.182,11.531,3.421,17.826,3.421  c6.295,0,12.297-1.239,17.826-3.421c-0.974-1.357-1.572-2.972-1.572-4.706v-16.254L203.175,251.937L203.175,251.937z"/>
<path style="fill:#F0C087;" d="M219.429,260.064L219.429,260.064c-17.954,0-32.508-14.554-32.508-32.508v-16.254  c0-13.465,10.916-24.381,24.381-24.381h16.254c13.465,0,24.381,10.916,24.381,24.381v16.254  C251.936,245.509,237.382,260.064,219.429,260.064z"/>
<path style="fill:#E6AF78;" d="M211.302,227.556v-16.254c0-12.073,8.797-22.028,20.317-23.971c-1.328-0.224-2.672-0.41-4.063-0.41  h-16.254c-13.465,0-24.381,10.916-24.381,24.381v16.254c0,17.953,14.554,32.508,32.508,32.508c4.318,0,8.421-0.882,12.19-2.411  C219.715,252.825,211.302,241.191,211.302,227.556z"/>
<path style="fill:#694B4B;" d="M186.921,211.302c0,0,24.381,8.127,65.016,8.127v-8.127c0-13.465-10.916-24.381-24.381-24.381  h-16.254C197.836,186.921,186.921,197.836,186.921,211.302L186.921,211.302z"/>
<path style="fill:#5A4146;" d="M211.302,211.302c0-12.073,8.797-22.028,20.317-23.971c-1.328-0.224-2.672-0.41-4.063-0.41h-16.254  c-13.465,0-24.381,10.916-24.381,24.381c0,0,8.741,2.89,24.381,5.224V211.302z"/>
<g>
	<path style="fill:#464655;" d="M250.312,303.948c-4.093,3.069-6.502,7.887-6.502,13.004v4.395   c8.903-2.798,17.091-7.147,24.381-12.633v-9.202c0-2.682-0.764-5.211-1.965-7.498L250.312,303.948z"/>
	<path style="fill:#464655;" d="M188.546,303.948l-15.914-11.935c-1.2,2.287-1.965,4.816-1.965,7.498v9.202   c7.29,5.486,15.478,9.835,24.381,12.633v-4.395C195.048,311.835,192.639,307.018,188.546,303.948z"/>
</g>
<g>
</g>
<g>
</g>
<g>
</g>
<g>
</g>
<g>
</g>
<g>
</g>
<g>
</g>
<g>
</g>
<g>
</g>
<g>
</g>
<g>
</g>
<g>
</g>
<g>
</g>
<g>
</g>
<g>
</g>
</svg>
