<?xml version="1.0" encoding="iso-8859-1"?>
<!-- Generator: Adobe Illustrator 19.0.0, SVG Export Plug-In . SVG Version: 6.00 Build 0)  -->
<svg xmlns="http://www.w3.org/2000/svg" xmlns:xlink="http://www.w3.org/1999/xlink" version="1.1" id="Layer_1" x="0px" y="0px" viewBox="0 0 512 512" style="enable-background:new 0 0 512 512;" xml:space="preserve">
<circle style="fill:#FFF082;" cx="256" cy="260" r="160"/>
<circle style="fill:#FFFFFF;" cx="256" cy="308" r="96"/>
<g>
	<path style="fill:#FFF082;" d="M64,268H8c-4.422,0-8-3.578-8-8s3.578-8,8-8h56c4.422,0,8,3.578,8,8S68.422,268,64,268z"/>
	<path style="fill:#FFF082;" d="M504,268h-56c-4.422,0-8-3.578-8-8s3.578-8,8-8h56c4.422,0,8,3.578,8,8S508.422,268,504,268z"/>
	<path style="fill:#FFF082;" d="M256,76c-4.422,0-8-3.578-8-8V12c0-4.422,3.578-8,8-8s8,3.578,8,8v56C264,72.422,260.422,76,256,76z   "/>
</g>
<g>
	<path style="fill:#FFF6B4;" d="M143.992,461.992c-1.359,0-2.734-0.344-3.992-1.07c-3.828-2.211-5.141-7.102-2.93-10.93l16-27.719   c2.211-3.828,7.109-5.141,10.93-2.93c3.828,2.211,5.141,7.102,2.93,10.93l-16,27.719   C149.445,460.555,146.758,461.992,143.992,461.992z"/>
	<path style="fill:#FFF6B4;" d="M351.992,101.727c-1.359,0-2.734-0.344-3.992-1.07c-3.828-2.211-5.141-7.102-2.93-10.93l16-27.719   c2.211-3.82,7.109-5.141,10.93-2.93c3.828,2.211,5.141,7.102,2.93,10.93l-16,27.719   C357.445,100.289,354.758,101.727,351.992,101.727z"/>
	<path style="fill:#FFF6B4;" d="M89.719,172c-1.359,0-2.734-0.344-3.992-1.07l-27.719-16c-3.828-2.211-5.141-7.102-2.93-10.93   s7.102-5.141,10.93-2.93l27.719,16c3.828,2.211,5.141,7.102,2.93,10.93C95.172,170.563,92.484,172,89.719,172z"/>
	<path style="fill:#FFF6B4;" d="M449.984,380c-1.359,0-2.734-0.344-3.992-1.07l-27.719-16c-3.828-2.211-5.141-7.102-2.93-10.93   s7.102-5.133,10.93-2.93l27.719,16c3.828,2.211,5.141,7.102,2.93,10.93C455.438,378.563,452.75,380,449.984,380z"/>
	<path style="fill:#FFF6B4;" d="M368.008,461.992c-2.766,0-5.453-1.438-6.938-4l-16-27.719c-2.211-3.828-0.898-8.719,2.93-10.93   c3.813-2.211,8.711-0.898,10.93,2.93l16,27.719c2.211,3.828,0.898,8.719-2.93,10.93   C370.742,461.648,369.367,461.992,368.008,461.992z"/>
	<path style="fill:#FFF6B4;" d="M160.008,101.727c-2.766,0-5.453-1.438-6.938-4l-16-27.719c-2.211-3.828-0.898-8.719,2.93-10.93   c3.805-2.211,8.711-0.891,10.93,2.93l16,27.719c2.211,3.828,0.898,8.719-2.93,10.93   C162.742,101.383,161.367,101.727,160.008,101.727z"/>
	<path style="fill:#FFF6B4;" d="M422.281,172c-2.766,0-5.453-1.438-6.938-4c-2.211-3.828-0.898-8.719,2.93-10.93l27.719-16   c3.813-2.211,8.719-0.898,10.93,2.93s0.898,8.719-2.93,10.93l-27.719,16C425.016,171.656,423.641,172,422.281,172z"/>
	<path style="fill:#FFF6B4;" d="M62.016,380c-2.766,0-5.453-1.438-6.938-4c-2.211-3.828-0.898-8.719,2.93-10.93l27.719-16   c3.813-2.203,8.711-0.898,10.93,2.93c2.211,3.828,0.898,8.719-2.93,10.93l-27.719,16C64.75,379.656,63.375,380,62.016,380z"/>
</g>
<path style="fill:#FFFFFF;" d="M374.703,222.008c-3.953,0-7.695-2.359-9.273-6.25c-13.984-34.57-43.859-60.75-79.898-70.031  c-5.352-1.383-8.57-6.836-7.195-12.18c1.383-5.352,6.852-8.531,12.18-7.195c42.164,10.867,77.102,41.484,93.461,81.906  c2.07,5.117-0.406,10.945-5.523,13.023C377.227,221.773,375.953,222.008,374.703,222.008z"/>
<path style="fill:#E6AF78;" d="M295.421,356.452l-19.132-10.018c-2.637-1.381-4.289-4.111-4.289-7.087V324h-32v15.347  c0,2.976-1.652,5.707-4.289,7.087l-19.132,10.018c-5.274,2.761-8.579,8.222-8.579,14.175v46.714  c0,17.378,5.143,34.368,14.781,48.828L224,468h64l1.22-1.83c9.637-14.461,14.78-31.45,14.78-48.828v-46.714  C304,364.675,300.695,359.214,295.421,356.452z"/>
<path style="fill:#FFF082;" d="M295.421,356.452l-10.179-5.33C277.938,358.996,267.587,364,256,364s-21.938-5.004-29.243-12.877  l-10.179,5.33c-5.274,2.762-8.579,8.222-8.579,14.175v46.714c0,17.378,5.143,34.368,14.781,48.829L224,468h64l1.22-1.83  c9.637-14.461,14.78-31.45,14.78-48.829v-46.714C304,364.674,300.695,359.214,295.421,356.452z"/>
<path style="fill:#D29B6E;" d="M256,348c6.357,0,12.411-1.264,17.964-3.509c-1.211-1.423-1.964-3.21-1.964-5.144V324h-32v15.347  c0,1.934-0.752,3.721-1.964,5.144C243.589,346.736,249.643,348,256,348z"/>
<path style="fill:#F0C087;" d="M256,332L256,332c-17.673,0-32-14.327-32-32v-16c0-13.255,10.745-24,24-24h16  c13.255,0,24,10.745,24,24v16C288,317.673,273.673,332,256,332z"/>
<path style="fill:#E6AF78;" d="M248,300v-16c0-11.885,8.659-21.684,20-23.597c-1.308-0.221-2.63-0.403-4-0.403h-16  c-13.255,0-24,10.745-24,24v16c0,17.673,14.327,32,32,32c4.25,0,8.289-0.868,12-2.373C256.282,324.875,248,313.422,248,300z"/>
<path style="fill:#7F8499;" d="M288,468h-64v32c0,4.418,3.582,8,8,8h48c4.418,0,8-3.582,8-8V468z"/>
<g>
	<path style="fill:#FFDC64;" d="M224,468v-87.451c0-5.036-2.371-9.778-6.4-12.8l-7.17-5.377c-1.555,2.493-2.43,5.409-2.43,8.461   v46.523c0,17.374,5.143,34.359,14.78,48.814L224,468z"/>
	<path style="fill:#FFDC64;" d="M288,468v-87.451c0-5.036,2.371-9.778,6.4-12.8l7.17-5.377c1.555,2.493,2.43,5.409,2.43,8.461   v46.523c0,17.374-5.143,34.359-14.78,48.814L288,468z"/>
</g>
<path style="fill:#707487;" d="M256,484c-2.209,0-4,1.791-4,4v20h8v-20C260,485.791,258.209,484,256,484z"/>
<path style="fill:#694B4B;" d="M224,284c0,0,24,8,64,8v-8c0-13.255-10.745-24-24-24h-16C234.745,260,224,270.745,224,284L224,284z"/>
<path style="fill:#5A4146;" d="M248,284c0-11.885,8.659-21.684,20-23.597c-1.308-0.221-2.63-0.403-4-0.403h-16  c-13.255,0-24,10.745-24,24c0,0,8.604,2.845,24,5.143V284z"/>
<g>
</g>
<g>
</g>
<g>
</g>
<g>
</g>
<g>
</g>
<g>
</g>
<g>
</g>
<g>
</g>
<g>
</g>
<g>
</g>
<g>
</g>
<g>
</g>
<g>
</g>
<g>
</g>
<g>
</g>
</svg>
