<?xml version="1.0" encoding="iso-8859-1"?>
<!-- Generator: Adobe Illustrator 19.0.0, SVG Export Plug-In . SVG Version: 6.00 Build 0)  -->
<svg xmlns="http://www.w3.org/2000/svg" xmlns:xlink="http://www.w3.org/1999/xlink" version="1.1" id="Layer_1" x="0px" y="0px" viewBox="0 0 512 512" style="enable-background:new 0 0 512 512;" xml:space="preserve">
<path style="fill:#5A4146;" d="M391.176,66.93c7.668-10.872,4.345-25.981-7.176-32.633s-26.267-1.975-31.849,10.101l-27.874,60.309  l28.607,16.516L391.176,66.93z"/>
<path style="fill:#785550;" d="M394.426,59.771c-0.817-0.635-1.597-1.304-2.521-1.838c-11.521-6.652-26.267-1.975-31.849,10.101  l-20.916,45.255l13.743,7.935l38.292-54.294C392.755,64.692,393.755,62.256,394.426,59.771z"/>
<path style="fill:#5A4146;" d="M159.849,467.601c-5.581,12.076-20.327,16.753-31.849,10.101  c-11.521-6.652-14.844-21.761-7.176-32.633l38.292-54.294l28.607,16.516L159.849,467.601z"/>
<path style="fill:#785550;" d="M155.274,473.995c-0.959-0.39-1.928-0.731-2.852-1.264c-11.521-6.652-14.844-21.761-7.176-32.633  l28.734-40.742l13.743,7.935L159.849,467.6C158.7,470.087,157.09,472.171,155.274,473.995z"/>
<path style="fill:#5A4146;" d="M159.849,44.399C154.268,32.323,139.522,27.646,128,34.298c-11.521,6.652-14.844,21.761-7.176,32.633  l38.292,54.294l28.607-16.516L159.849,44.399z"/>
<path style="fill:#785550;" d="M155.274,38.005c-0.959,0.39-1.928,0.731-2.852,1.264c-11.521,6.652-14.844,21.761-7.176,32.633  l28.734,40.742l13.743-7.935L159.849,44.4C158.7,41.913,157.091,39.829,155.274,38.005z"/>
<path style="fill:#5A4146;" d="M391.176,445.07c7.668,10.872,4.345,25.981-7.176,32.633s-26.267,1.975-31.849-10.101l-27.874-60.309  l28.607-16.516L391.176,445.07z"/>
<path style="fill:#785550;" d="M394.426,452.229c-0.817,0.635-1.597,1.304-2.521,1.838c-11.521,6.652-26.267,1.975-31.849-10.101  l-20.916-45.255l13.743-7.935l38.292,54.294C392.755,447.308,393.755,449.744,394.426,452.229z"/>
<path style="fill:#5A4146;" d="M24.672,233.469C11.423,232.264,0,242.696,0,256c0,13.303,11.423,23.735,24.672,22.531l66.166-6.015  v-33.032L24.672,233.469z"/>
<path style="fill:#785550;" d="M16.847,234.234c-0.142,1.025-0.331,2.035-0.331,3.102c0,13.303,11.423,23.735,24.672,22.531  l49.65-4.514v-15.869l-66.166-6.015C21.946,233.221,19.336,233.573,16.847,234.234z"/>
<path style="fill:#5A4146;" d="M487.328,233.469C500.577,232.264,512,242.696,512,256c0,13.303-11.423,23.735-24.672,22.531  l-66.166-6.015v-33.032L487.328,233.469z"/>
<path style="fill:#785550;" d="M495.153,234.234c0.142,1.025,0.331,2.035,0.331,3.102c0,13.303-11.423,23.735-24.672,22.531  l-49.65-4.514v-15.869l66.166-6.015C490.054,233.221,492.664,233.573,495.153,234.234z"/>
<path style="fill:#8C5F5F;" d="M256,82.581c-95.777,0-173.419,77.642-173.419,173.419S160.224,429.419,256,429.419  S429.419,351.777,429.419,256S351.777,82.581,256,82.581z M256,388.129c-72.973,0-132.129-59.156-132.129-132.129  S183.027,123.871,256,123.871S388.129,183.027,388.129,256S328.973,388.129,256,388.129z"/>
<path style="fill:#785550;" d="M256,107.355c-82.094,0-148.645,66.551-148.645,148.645S173.906,404.645,256,404.645  S404.645,338.094,404.645,256S338.094,107.355,256,107.355z M327.72,355.448l-45.755-79.25  c-5.164,6.627-12.737,11.179-21.459,12.381l45.771,79.278c2.579,4.467,0.469,10.143-4.363,11.948  c-14.302,5.342-29.747,8.325-45.914,8.325s-31.612-2.982-45.914-8.325c-4.832-1.805-6.943-7.481-4.363-11.948l45.771-79.278  c-8.722-1.202-16.295-5.754-21.459-12.381l-45.755,79.25c-2.585,4.477-8.576,5.474-12.554,2.173  c-23.793-19.74-40.555-47.625-45.943-79.418c-0.866-5.107,2.969-9.816,8.149-9.816h91.485c-1.553-3.831-2.45-7.999-2.45-12.387  s0.896-8.556,2.45-12.387h-91.485c-5.18,0-9.015-4.709-8.149-9.816c5.388-31.793,22.151-59.678,45.944-79.418  c3.979-3.301,9.969-2.304,12.554,2.173l45.755,79.25c5.164-6.626,12.737-11.178,21.459-12.38l-45.771-79.278  c-2.579-4.467-0.468-10.143,4.364-11.948c14.302-5.342,29.746-8.325,45.913-8.325s31.611,2.983,45.913,8.325  c4.832,1.805,6.943,7.481,4.364,11.948l-45.771,79.278c8.722,1.202,16.294,5.754,21.459,12.38l45.755-79.25  c2.585-4.477,8.576-5.474,12.554-2.173c23.793,19.74,40.556,47.625,45.944,79.418c0.866,5.107-2.969,9.816-8.149,9.816h-91.485  c1.553,3.831,2.45,7.999,2.45,12.387s-0.896,8.556-2.45,12.387h91.485c5.18,0,9.015,4.709,8.149,9.816  c-5.388,31.793-22.15,59.678-45.943,79.418C336.295,360.922,330.305,359.925,327.72,355.448z"/>
<g>
	<path style="fill:#5A4146;" d="M281.964,235.802l17.182-29.76c-6.242-5.396-13.5-9.618-21.455-12.387l-17.186,29.767   C269.227,224.623,276.8,229.176,281.964,235.802z"/>
	<path style="fill:#5A4146;" d="M260.506,288.578l17.186,29.767c7.956-2.769,15.213-6.992,21.455-12.388l-17.182-29.76   C276.801,282.824,269.228,287.376,260.506,288.578z"/>
	<path style="fill:#5A4146;" d="M289.032,256c0,4.388-0.896,8.556-2.45,12.387h34.281c0.763-4.017,1.201-8.149,1.201-12.387   s-0.438-8.37-1.201-12.387h-34.281C288.136,247.444,289.032,251.612,289.032,256z"/>
	<path style="fill:#5A4146;" d="M222.968,256c0-4.388,0.896-8.556,2.45-12.387h-34.281c-0.763,4.017-1.201,8.149-1.201,12.387   c0,4.238,0.438,8.37,1.201,12.387h34.281C223.864,264.556,222.968,260.388,222.968,256z"/>
	<path style="fill:#5A4146;" d="M251.494,223.422l-17.186-29.767c-7.955,2.769-15.213,6.991-21.455,12.387l17.182,29.76   C235.2,229.176,242.773,224.623,251.494,223.422z"/>
	<path style="fill:#5A4146;" d="M251.494,288.578c-8.722-1.202-16.295-5.754-21.459-12.381l-17.182,29.76   c6.242,5.396,13.499,9.619,21.455,12.388L251.494,288.578z"/>
</g>
<path style="fill:#FFC850;" d="M256,206.452c-27.365,0-49.548,22.183-49.548,49.548s22.183,49.548,49.548,49.548  s49.548-22.183,49.548-49.548S283.365,206.452,256,206.452z M256,272.516c-9.121,0-16.516-7.395-16.516-16.516  c0-9.122,7.395-16.516,16.516-16.516s16.516,7.394,16.516,16.516C272.516,265.121,265.121,272.516,256,272.516z"/>
<path style="fill:#E1A546;" d="M256,222.968c-18.243,0-33.032,14.788-33.032,33.032c0,18.243,14.789,33.032,33.032,33.032  s33.032-14.789,33.032-33.032C289.032,237.756,274.243,222.968,256,222.968z M256,272.516c-9.121,0-16.516-7.395-16.516-16.516  c0-9.122,7.395-16.516,16.516-16.516s16.516,7.394,16.516,16.516C272.516,265.121,265.121,272.516,256,272.516z"/>
<g>
</g>
<g>
</g>
<g>
</g>
<g>
</g>
<g>
</g>
<g>
</g>
<g>
</g>
<g>
</g>
<g>
</g>
<g>
</g>
<g>
</g>
<g>
</g>
<g>
</g>
<g>
</g>
<g>
</g>
</svg>
