<?xml version="1.0" encoding="iso-8859-1"?>
<!-- Generator: Adobe Illustrator 19.0.0, SVG Export Plug-In . SVG Version: 6.00 Build 0)  -->
<svg xmlns="http://www.w3.org/2000/svg" xmlns:xlink="http://www.w3.org/1999/xlink" version="1.1" id="Layer_1" x="0px" y="0px" viewBox="0 0 512 512" style="enable-background:new 0 0 512 512;" xml:space="preserve">
<path style="fill:#7F8499;" d="M256,406.349c-4.492,0-8.127-3.635-8.127-8.127V8.127C247.873,3.635,251.508,0,256,0  s8.127,3.635,8.127,8.127v390.095C264.127,402.714,260.492,406.349,256,406.349z"/>
<path style="fill:#707487;" d="M247.873,138.159v32.508c0,4.488,3.638,8.127,8.127,8.127c4.489,0,8.127-3.639,8.127-8.127v-32.508  H247.873z"/>
<path style="fill:#D5DCED;" d="M205.809,347.87l-39.208-11.201l-24.379,16.178l-24.381-16.179L78.635,347.87  c-10.467,2.991-17.683,12.557-17.683,23.443v108.18C60.952,497.446,75.507,512,93.46,512h89.397c4.488,0,8.127-3.639,8.127-8.127  v-40.635l32.508,0.001v-91.926C223.492,360.427,216.276,350.86,205.809,347.87z"/>
<path style="fill:#00C3FF;" d="M142.222,479.492L142.222,479.492c-4.446,0-8.009-3.68-7.866-8.123l3.803-118.448h8.127  l3.803,118.448C150.231,475.813,146.668,479.492,142.222,479.492z"/>
<path style="fill:#C7CFE2;" d="M93.46,395.529c0-6.466-2.569-12.668-7.141-17.24l-20.92-20.92  c-2.796,3.997-4.447,8.808-4.447,13.944v108.18C60.952,497.446,75.507,512,93.46,512l0,0V395.529z"/>
<path style="fill:#0096DC;" d="M146.286,369.176h-8.127c-2.244,0-4.064-1.819-4.064-4.064v-12.264h16.254v12.264  C150.349,367.356,148.53,369.176,146.286,369.176z"/>
<path style="fill:#C7CFE2;" d="M223.492,414.476v-43.164c0-5.136-1.651-9.947-4.447-13.944l-20.92,20.92  c-4.572,4.572-7.141,10.773-7.141,17.24v67.71c0,17.954,14.554,32.508,32.508,32.508l0,0c17.954,0,32.508-14.554,32.508-32.508  v-48.762H223.492z"/>
<path style="fill:#AFB9D2;" d="M231.619,471.365L231.619,471.365c-4.488,0-8.127-3.639-8.127-8.127v-48.762h16.254v48.762  C239.746,467.727,236.107,471.365,231.619,471.365z"/>
<path style="fill:#F0C087;" d="M239.746,381.968H256c4.488,0,8.127,3.639,8.127,8.127v16.254c0,4.488-3.639,8.127-8.127,8.127  h-32.508v-16.254C223.492,389.245,230.769,381.968,239.746,381.968z"/>
<path style="fill:#E6AF78;" d="M223.492,398.222v16.254h16.254v-32.508C230.769,381.968,223.492,389.245,223.492,398.222z"/>
<path style="fill:#5A4146;" d="M433.983,318.439c-6.945-18.401-12.453-50.034-13.643-66.503  c-2.263-31.34-25.882-56.889-57.808-56.889s-55.545,25.549-57.808,56.889c-1.19,16.469-6.698,48.102-13.643,66.503  c-1.531,4.057,0.236,8.53,4.23,10.34c7.442,3.373,23.309,9.98,42.445,12.554h49.55c19.047-2.58,35.025-9.19,42.445-12.554  C433.747,326.969,435.514,322.496,433.983,318.439z"/>
<path style="fill:#694B4B;" d="M429.753,328.78c3.994-1.811,5.761-6.284,4.23-10.34c-6.944-18.401-12.453-50.034-13.642-66.503  c-2.263-31.34-25.882-56.889-57.808-56.889c-0.08,0-0.161,0-0.241,0c-24.498,0.099-33.155,33.509-12.066,45.976  c1.267,0.749,2.078,1.109,2.078,1.109l18.471,99.2h16.533C406.355,338.753,422.332,332.143,429.753,328.78z"/>
<path style="fill:#E6AF78;" d="M421.315,357.649L395.016,344.5c-5.507-2.754-8.986-8.383-8.986-14.54l0.001-24.381H337.27v24.382  c0,6.156-3.478,11.784-8.984,14.537l-26.301,13.151c-8.26,4.13-13.477,12.572-13.477,21.806v100.037  c0,17.954,14.554,32.508,32.508,32.508h81.27c17.954,0,32.508-14.554,32.508-32.508V379.457  C434.794,370.221,429.576,361.779,421.315,357.649z"/>
<path style="fill:#D29B6E;" d="M361.651,338.087c8.751,0,17.132-1.804,24.816-5.015c-0.202-1.024-0.437-2.043-0.437-3.111  l0.001-24.381H337.27v24.382c0,1.073-0.235,2.097-0.439,3.126C344.52,336.281,352.897,338.087,361.651,338.087z"/>
<path style="fill:#00C3FF;" d="M421.315,357.649l-18.736-9.368c-8.688,13.416-23.756,22.313-40.929,22.313  c-17.173,0-32.242-8.898-40.93-22.314l-18.736,9.369c-8.26,4.13-13.477,12.572-13.477,21.807v100.036  c0,17.954,14.554,32.508,32.508,32.508h81.27c17.954,0,32.508-14.554,32.508-32.508V379.457  C434.794,370.221,429.576,361.779,421.315,357.649z"/>
<path style="fill:#F0C087;" d="M361.651,321.833L361.651,321.833c-24.792,0-45.262-18.501-48.357-42.45  c-0.448-3.47,1.219-6.872,4.343-8.448c3.742-1.888,9.179-5.07,14.385-9.715c5.797-5.173,9.198-10.628,11.119-14.632  c1.654-3.449,5.457-5.399,9.163-4.453c28.615,7.298,48.096,22.186,55.163,28.263c1.898,1.632,2.991,4.038,2.796,6.534  C408.295,302.056,387.282,321.833,361.651,321.833z"/>
<path style="fill:#E6AF78;" d="M407.467,270.397c-7.067-6.078-26.549-20.965-55.163-28.263c-3.706-0.945-7.509,1.005-9.163,4.453  c-1.455,3.033-3.859,6.897-7.427,10.841c-0.001,0.009-0.003,0.018-0.004,0.027c-1.107,1.255-2.286,2.512-3.688,3.764  c-5.206,4.646-10.643,7.827-14.385,9.715c-3.124,1.576-4.791,4.979-4.343,8.448c2.78,21.508,19.611,38.5,40.964,41.764  c-9.73-6.62-16.988-15.593-16.988-31.822v-11.589c1.846-1.363,3.705-2.722,5.573-4.389c4.517-4.031,8.46-8.693,11.622-13.712  c21.89,6.831,36.731,18.208,42.357,23.046c1.54,1.351,5.362,4.874,9.834,9.069c1.924-4.63,3.196-9.598,3.605-14.819  C410.458,274.435,409.365,272.028,407.467,270.397z"/>
<g>
	<path style="fill:#00AAF0;" d="M293.462,364.806c-3.131,4.154-4.954,9.252-4.954,14.65v100.036   c0,17.954,14.554,32.508,32.508,32.508l0,0V394.661c0-4.938-2.245-9.608-6.1-12.692L293.462,364.806z"/>
	<path style="fill:#00AAF0;" d="M429.839,364.806c3.131,4.154,4.954,9.252,4.954,14.65v100.036   c0,17.954-14.554,32.508-32.508,32.508l0,0V394.661c0-4.938,2.245-9.608,6.1-12.692L429.839,364.806z"/>
</g>
<path style="fill:#5A4146;" d="M85.333,227.556v5.703c0,6.988,1.127,13.93,3.336,20.56l12.918,38.753h24.381v-89.397h-16.254  C96.249,203.175,85.333,214.09,85.333,227.556z"/>
<path style="fill:#694B4B;" d="M196.61,244.438l-13.752,48.133l-65.016-56.889c-8.977,0-16.254-7.277-16.254-16.254l0,0  c0-13.465,10.916-24.381,24.381-24.381h56.889c8.977,0,16.254,7.277,16.254,16.254v15.275  C199.111,232.618,198.269,238.629,196.61,244.438z"/>
<rect x="117.84" y="316.95" style="fill:#E6AF78;" width="48.762" height="35.89"/>
<path style="fill:#D29B6E;" d="M117.841,331.881c7.538,3.063,15.757,4.787,24.381,4.787s16.843-1.724,24.381-4.787v-14.929h-48.762  C117.841,316.952,117.841,331.881,117.841,331.881z"/>
<path style="fill:#F0C087;" d="M142.222,325.079L142.222,325.079c-26.931,0-48.762-21.831-48.762-48.762v-9.521  c0-4.311,1.712-8.445,4.761-11.493l14.737-14.737c3.121-3.121,7.388-4.915,11.799-4.776c25.979,0.819,48.974,6.385,61.544,18.662  c3.077,3.005,4.683,7.209,4.683,11.51v10.355C190.984,303.248,169.153,325.079,142.222,325.079z"/>
<path style="fill:#E6AF78;" d="M117.841,268.813c0-9.375,7.873-16.827,17.229-16.23c16.407,1.047,40.751,3.789,55.688,10.973  c-0.488-3.429-1.961-6.665-4.457-9.104c-12.57-12.277-35.565-17.842-61.544-18.662h-0.001l0,0c-4.41-0.139-8.678,1.656-11.798,4.776  l-14.737,14.737c-3.049,3.048-4.761,7.183-4.761,11.494v9.521c0,22.238,14.9,40.961,35.251,46.824  c-6.774-8.358-10.87-18.966-10.87-30.57C117.841,292.572,117.841,268.813,117.841,268.813z"/>
<path style="fill:#00C3FF;" d="M391.105,158.321c-2.612,2.033-6.043,2.163-8.817,0.359c-11.315-7.358-34.297-12.394-60.82-12.394  s-49.505,5.037-60.82,12.394c-2.874,1.869-6.421,1.869-9.295,0c-11.315-7.358-34.297-12.394-60.82-12.394  s-49.505,5.037-60.82,12.394c-2.774,1.804-6.206,1.673-8.817-0.359c-9.202-7.162-27.333-12.035-48.204-12.035  c-11.709,0-22.554,1.534-31.446,4.145c-6.992,2.053-12.563-5.695-8.716-11.884C71.426,75.965,156.839,32.508,256,32.508  s184.574,43.457,223.471,106.039c3.847,6.189-1.725,13.937-8.716,11.884c-8.891-2.611-19.737-4.145-31.446-4.145  C418.437,146.286,400.307,151.159,391.105,158.321z"/>
<g>
	<path style="fill:#00AAF0;" d="M32.529,138.546c-3.846,6.189,1.725,13.937,8.717,11.884c8.891-2.611,19.737-4.144,31.445-4.144   c20.871,0,39.001,4.873,48.204,12.035c2.612,2.033,6.043,2.164,8.817,0.36c11.315-7.358,34.297-12.394,60.82-12.394   s49.505,5.037,60.82,12.394c1.437,0.935,3.042,1.402,4.647,1.402V32.508C156.838,32.508,71.426,75.965,32.529,138.546z"/>
	<path style="fill:#00AAF0;" d="M125.749,159.879c1.364-0.04,2.73-0.397,3.964-1.199c11.315-7.358,34.297-12.394,60.82-12.394   s49.505,5.037,60.82,12.394c2.874,1.869,6.421,1.869,9.295,0c11.315-7.358,34.297-12.394,60.82-12.394s49.505,5.037,60.82,12.394   c1.234,0.803,2.6,1.16,3.964,1.199C368.816,86.08,317.144,32.508,256,32.508S143.184,86.08,125.749,159.879z"/>
</g>
<path style="fill:#0096DC;" d="M256,32.508c-61.144,0-112.816,53.572-130.251,127.372c1.364-0.04,2.73-0.397,3.964-1.199  c11.315-7.358,34.297-12.394,60.82-12.394s49.505,5.037,60.82,12.394c1.437,0.935,3.042,1.402,4.647,1.402V32.508z"/>
<g>
	<path style="fill:#C7CFE2;" d="M142.222,352.847l-13.775,10.522c-2.373,1.813-5.803,1.086-7.237-1.533l-12.357-22.566l4.974-7.587   c1.103-1.683,3.454-1.969,4.929-0.601L142.222,352.847z"/>
	<path style="fill:#C7CFE2;" d="M142.222,352.847l13.775,10.522c2.373,1.813,5.803,1.086,7.237-1.533l12.357-22.566l-4.974-7.587   c-1.103-1.683-3.454-1.969-4.929-0.601L142.222,352.847z"/>
</g>
<g>
</g>
<g>
</g>
<g>
</g>
<g>
</g>
<g>
</g>
<g>
</g>
<g>
</g>
<g>
</g>
<g>
</g>
<g>
</g>
<g>
</g>
<g>
</g>
<g>
</g>
<g>
</g>
<g>
</g>
</svg>
