<?xml version="1.0" encoding="iso-8859-1"?>
<!-- Generator: Adobe Illustrator 19.0.0, SVG Export Plug-In . SVG Version: 6.00 Build 0)  -->
<svg xmlns="http://www.w3.org/2000/svg" xmlns:xlink="http://www.w3.org/1999/xlink" version="1.1" id="Layer_1" x="0px" y="0px" viewBox="0 0 512 512" style="enable-background:new 0 0 512 512;" xml:space="preserve">
<path style="fill:#5A4146;" d="M186.632,130.477v6.954c0,8.521,1.374,16.986,4.068,25.07l15.751,47.253h29.729V100.748h-19.819  C199.942,100.748,186.632,114.059,186.632,130.477z"/>
<path style="fill:#694B4B;" d="M322.317,151.063l-16.769,58.692l-79.277-69.368c-10.946,0-19.819-8.873-19.819-19.819l0,0  c0-16.419,13.31-29.729,29.729-29.729h69.368c10.946,0,19.819,8.873,19.819,19.819v18.626  C325.368,136.65,324.341,143.98,322.317,151.063z"/>
<rect x="226.27" y="239.48" style="fill:#E6AF78;" width="59.46" height="43.859"/>
<path style="fill:#D29B6E;" d="M226.271,257.687c9.191,3.734,19.213,5.837,29.729,5.837c10.516,0,20.538-2.102,29.729-5.837v-18.203  h-59.458V257.687z"/>
<path style="fill:#D5DCED;" d="M333.534,277.183l-47.808-13.659L256,283.252l-29.729-19.728l-47.806,13.659  c-12.763,3.647-21.562,15.312-21.562,28.585v41.07h198.194v-41.07C355.097,292.495,346.297,280.829,333.534,277.183z"/>
<polygon style="fill:#5B5D6E;" points="265.91,363.355 246.09,363.355 251.045,283.343 260.955,283.343 "/>
<path style="fill:#F0C087;" d="M256,249.394L256,249.394c-32.838,0-59.458-26.62-59.458-59.458v-11.61  c0-5.256,2.088-10.298,5.805-14.014l17.97-17.97c3.805-3.805,9.009-5.993,14.387-5.824c31.677,0.999,59.717,7.786,75.044,22.755  c3.752,3.664,5.71,8.791,5.71,14.035v12.627C315.458,222.773,288.838,249.394,256,249.394z"/>
<path style="fill:#E6AF78;" d="M226.271,180.784c0-11.431,9.6-20.518,21.008-19.79c20.006,1.276,49.691,4.62,67.903,13.38  c-0.595-4.181-2.391-8.127-5.435-11.101c-15.327-14.97-43.366-21.756-75.044-22.755l-0.001,0.001l-0.001-0.001  c-5.378-0.169-10.581,2.02-14.385,5.824l-17.969,17.969c-3.717,3.717-5.805,8.758-5.805,14.015v11.61  c0,27.116,18.169,49.946,42.983,57.095c-8.26-10.191-13.254-23.126-13.254-37.276L226.271,180.784L226.271,180.784z"/>
<path style="fill:#464655;" d="M261.781,303.163H250.22c-2.28,0-4.129-1.849-4.129-4.129V283.25h19.819v15.784  C265.91,301.314,264.061,303.163,261.781,303.163z"/>
<g>
	<path style="fill:#C7CFE2;" d="M256,283.252l-16.796,12.831c-2.893,2.21-7.076,1.324-8.825-1.869l-15.067-27.516l6.065-9.251   c1.345-2.052,4.212-2.401,6.011-0.733L256,283.252z"/>
	<path style="fill:#C7CFE2;" d="M256,283.252l16.796,12.831c2.893,2.21,7.076,1.324,8.825-1.869l15.067-27.516l-6.065-9.251   c-1.345-2.052-4.212-2.401-6.011-0.733L256,283.252z"/>
</g>
<path style="fill:#FF507D;" d="M256,0C151.101,0,66.065,85.037,66.065,189.935C66.065,388.129,256,512,256,512  s189.935-123.871,189.935-322.065C445.935,85.037,360.899,0,256,0z M256,322.065c-72.973,0-132.129-59.156-132.129-132.129  S183.027,57.806,256,57.806s132.129,59.156,132.129,132.129S328.973,322.065,256,322.065z"/>
<path style="fill:#D23C69;" d="M281.406,35.091c-21.275-3.445-41.822-2.44-61.023,2.078c-7.904,1.86-13.581-7.332-8.278-13.481  C225.112,8.605,240.07,0,256,0C151.101,0,66.065,85.037,66.065,189.935C66.065,388.129,256,512,256,512  s-45.21-61.695-71.836-167.638c-1.69-6.724,5.014-12.313,11.409-9.635c18.598,7.788,39.001,12.111,60.427,12.111  c91.728,0,165.071-78.713,156.17-172.278C405.495,104.389,350.988,46.358,281.406,35.091z M256,322.065  c-72.973,0-132.129-59.156-132.129-132.129S183.027,57.806,256,57.806s132.129,59.156,132.129,132.129S328.973,322.065,256,322.065z  "/>
<g>
</g>
<g>
</g>
<g>
</g>
<g>
</g>
<g>
</g>
<g>
</g>
<g>
</g>
<g>
</g>
<g>
</g>
<g>
</g>
<g>
</g>
<g>
</g>
<g>
</g>
<g>
</g>
<g>
</g>
</svg>
