<?xml version="1.0" encoding="iso-8859-1"?>
<!-- Generator: Adobe Illustrator 19.0.0, SVG Export Plug-In . SVG Version: 6.00 Build 0)  -->
<svg xmlns="http://www.w3.org/2000/svg" xmlns:xlink="http://www.w3.org/1999/xlink" version="1.1" id="Layer_1" x="0px" y="0px" viewBox="0 0 512 512" style="enable-background:new 0 0 512 512;" xml:space="preserve">
<path style="fill:#E6AF78;" d="M456,287.052v-28.219c0-6.06-3.424-11.6-8.844-14.31l-18.734-9.367C425.712,233.8,424,231.03,424,228  v-16h-32v16c0,3.03-1.712,5.8-4.422,7.155l-18.733,9.367c-5.42,2.71-8.844,8.25-8.844,14.31v28.219"/>
<path style="fill:#FFF082;" d="M447.156,244.522l-14.592-7.296c-5.87,7.099-14.632,11.719-24.563,11.719s-18.694-4.62-24.563-11.719  l-14.592,7.296c-5.42,2.71-8.844,8.25-8.844,14.31V300h96v-41.168C456,252.772,452.576,247.232,447.156,244.522z"/>
<path style="fill:#D29B6E;" d="M392,212v16c0,1.707-0.588,3.297-1.547,4.632C395.896,234.78,401.803,236,408,236  s12.104-1.22,17.547-3.368C424.589,231.297,424,229.707,424,228v-16H392z"/>
<path style="fill:#F0C087;" d="M408,220L408,220c-17.673,0-32-14.327-32-32v-16c0-13.255,10.745-24,24-24h16  c13.255,0,24,10.745,24,24v16C440,205.673,425.673,220,408,220z"/>
<path style="fill:#E6AF78;" d="M400,188v-16c0-11.885,8.659-21.684,20-23.597c-1.308-0.221-2.63-0.403-4-0.403h-16  c-13.255,0-24,10.745-24,24v16c0,17.673,14.327,32,32,32c4.25,0,8.289-0.868,12-2.373C408.282,212.875,400,201.422,400,188z"/>
<path style="fill:#694B4B;" d="M376,172c0,0,24,8,64,8v-8c0-13.255-10.745-24-24-24h-16C386.745,148,376,158.745,376,172L376,172z"/>
<path style="fill:#5A4146;" d="M400,172c0-11.885,8.659-21.684,20-23.597c-1.308-0.221-2.63-0.403-4-0.403h-16  c-13.255,0-24,10.745-24,24c0,0,8.604,2.845,24,5.143V172z"/>
<g>
	<path style="fill:#FFDC64;" d="M377.599,263.199l-15.665-11.748c-1.182,2.251-1.934,4.742-1.934,7.382V300h24v-24   C384,270.963,381.629,266.221,377.599,263.199z"/>
	<path style="fill:#FFDC64;" d="M438.401,263.199C434.371,266.221,432,270.963,432,276v24h24v-41.167c0-2.64-0.752-5.13-1.934-7.382   L438.401,263.199z"/>
</g>
<path style="fill:#C7CFE2;" d="M464,356H352v-64c0-4.418,3.582-8,8-8h96c4.418,0,8,3.582,8,8V356z"/>
<path style="fill:#FFFFFF;" d="M416,332h-16c-4.422,0-8-3.578-8-8s3.578-8,8-8h16c4.422,0,8,3.578,8,8S420.422,332,416,332z"/>
<rect x="352" y="332" style="fill:#AFB9D2;" width="112" height="24"/>
<path style="fill:#E6AF78;" d="M304,287.052v-28.219c0-6.06-3.424-11.6-8.844-14.31l-18.734-9.367C273.712,233.8,272,231.03,272,228  v-16h-32v16c0,3.03-1.712,5.8-4.422,7.155l-18.733,9.367c-5.42,2.71-8.844,8.25-8.844,14.31v28.219"/>
<path style="fill:#00C3FF;" d="M295.156,244.522l-14.592-7.296c-5.87,7.099-14.632,11.719-24.563,11.719s-18.694-4.62-24.563-11.719  l-14.592,7.296c-5.42,2.71-8.844,8.25-8.844,14.31V300h96v-41.168C304,252.772,300.576,247.232,295.156,244.522z"/>
<path style="fill:#D29B6E;" d="M240,212v16c0,1.707-0.588,3.297-1.547,4.632C243.896,234.78,249.803,236,256,236  c6.197,0,12.104-1.22,17.547-3.368C272.589,231.297,272,229.707,272,228v-16H240z"/>
<path style="fill:#F0C087;" d="M256,220L256,220c-17.673,0-32-14.327-32-32v-16c0-13.255,10.745-24,24-24h16  c13.255,0,24,10.745,24,24v16C288,205.673,273.673,220,256,220z"/>
<path style="fill:#E6AF78;" d="M248,188v-16c0-11.885,8.659-21.684,20-23.597c-1.308-0.221-2.63-0.403-4-0.403h-16  c-13.255,0-24,10.745-24,24v16c0,17.673,14.327,32,32,32c4.25,0,8.289-0.868,12-2.373C256.282,212.875,248,201.422,248,188z"/>
<path style="fill:#694B4B;" d="M224,172c0,0,24,8,64,8v-8c0-13.255-10.745-24-24-24h-16C234.745,148,224,158.745,224,172L224,172z"/>
<path style="fill:#5A4146;" d="M248,172c0-11.885,8.659-21.684,20-23.597c-1.308-0.221-2.63-0.403-4-0.403h-16  c-13.255,0-24,10.745-24,24c0,0,8.604,2.845,24,5.143V172z"/>
<g>
	<path style="fill:#00AAF0;" d="M225.599,263.199l-15.665-11.748c-1.182,2.251-1.934,4.742-1.934,7.382V300h24v-24   C232,270.963,229.629,266.221,225.599,263.199z"/>
	<path style="fill:#00AAF0;" d="M286.401,263.199C282.371,266.221,280,270.963,280,276v24h24v-41.167c0-2.64-0.752-5.13-1.934-7.382   L286.401,263.199z"/>
</g>
<path style="fill:#C7CFE2;" d="M312,356H200v-64c0-4.418,3.582-8,8-8h96c4.418,0,8,3.582,8,8V356z"/>
<path style="fill:#FFFFFF;" d="M264,332h-16c-4.422,0-8-3.578-8-8s3.578-8,8-8h16c4.422,0,8,3.578,8,8S268.422,332,264,332z"/>
<rect x="200" y="332" style="fill:#AFB9D2;" width="112" height="24"/>
<path style="fill:#E6AF78;" d="M152,287.052v-28.219c0-6.06-3.424-11.6-8.844-14.31l-18.734-9.367C121.712,233.8,120,231.03,120,228  v-16H88v16c0,3.03-1.712,5.8-4.422,7.155l-18.733,9.367c-5.42,2.71-8.844,8.25-8.844,14.31v28.219"/>
<path style="fill:#B4E66E;" d="M143.156,244.522l-14.592-7.296c-5.87,7.099-14.632,11.719-24.563,11.719s-18.694-4.62-24.563-11.719  l-14.592,7.296c-5.42,2.71-8.844,8.25-8.844,14.31V300h96v-41.168C152,252.772,148.576,247.232,143.156,244.522z"/>
<path style="fill:#D29B6E;" d="M88,212v16c0,1.707-0.588,3.297-1.547,4.632C91.896,234.78,97.803,236,104,236  s12.104-1.22,17.547-3.368C120.589,231.297,120,229.707,120,228v-16H88z"/>
<path style="fill:#F0C087;" d="M104,220L104,220c-17.673,0-32-14.327-32-32v-16c0-13.255,10.745-24,24-24h16  c13.255,0,24,10.745,24,24v16C136,205.673,121.673,220,104,220z"/>
<path style="fill:#E6AF78;" d="M96,188v-16c0-11.885,8.659-21.684,20-23.597c-1.308-0.221-2.63-0.403-4-0.403H96  c-13.255,0-24,10.745-24,24v16c0,17.673,14.327,32,32,32c4.25,0,8.289-0.868,12-2.373C104.282,212.875,96,201.422,96,188z"/>
<path style="fill:#694B4B;" d="M72,172c0,0,24,8,64,8v-8c0-13.255-10.745-24-24-24H96C82.745,148,72,158.745,72,172L72,172z"/>
<path style="fill:#5A4146;" d="M96,172c0-11.885,8.659-21.684,20-23.597c-1.308-0.221-2.63-0.403-4-0.403H96  c-13.255,0-24,10.745-24,24c0,0,8.604,2.845,24,5.143V172z"/>
<g>
	<path style="fill:#A0D755;" d="M73.599,263.199l-15.665-11.748c-1.182,2.251-1.934,4.742-1.934,7.382V300h24v-24   C80,270.963,77.629,266.221,73.599,263.199z"/>
	<path style="fill:#A0D755;" d="M134.401,263.199C130.371,266.221,128,270.963,128,276v24h24v-41.167c0-2.64-0.752-5.13-1.934-7.382   L134.401,263.199z"/>
</g>
<path style="fill:#C7CFE2;" d="M160,356H48v-64c0-4.418,3.582-8,8-8h96c4.418,0,8,3.582,8,8V356z"/>
<path style="fill:#FFFFFF;" d="M112,332H96c-4.422,0-8-3.578-8-8s3.578-8,8-8h16c4.422,0,8,3.578,8,8S116.422,332,112,332z"/>
<rect x="48" y="332" style="fill:#AFB9D2;" width="112" height="24"/>
<path style="fill:#E6AF78;" d="M504,364H8c-4.422,0-8-3.578-8-8s3.578-8,8-8h496c4.422,0,8,3.578,8,8S508.422,364,504,364z"/>
<g>
</g>
<g>
</g>
<g>
</g>
<g>
</g>
<g>
</g>
<g>
</g>
<g>
</g>
<g>
</g>
<g>
</g>
<g>
</g>
<g>
</g>
<g>
</g>
<g>
</g>
<g>
</g>
<g>
</g>
</svg>
