<?xml version="1.0" encoding="iso-8859-1"?>
<!-- Generator: Adobe Illustrator 19.0.0, SVG Export Plug-In . SVG Version: 6.00 Build 0)  -->
<svg xmlns="http://www.w3.org/2000/svg" xmlns:xlink="http://www.w3.org/1999/xlink" version="1.1" id="Layer_1" x="0px" y="0px" viewBox="0 0 512 512" style="enable-background:new 0 0 512 512;" xml:space="preserve">
<path style="fill:#959CB5;" d="M338.581,123.872h-16.516V79.751c0-6.621-2.581-12.847-7.258-17.524l-23.355-23.355l11.677-11.677  l23.355,23.355c7.798,7.798,12.097,18.169,12.097,29.202V123.872z"/>
<path style="fill:#F0C087;" d="M367.673,107.356H144.327c-4.744,0-8.27,3.891-8.266,8.258c0.001,1.011,0.003,13.926,0.003,16.517  h239.873c0-2.591,0.002-15.506,0.003-16.517C375.943,111.246,372.417,107.356,367.673,107.356z"/>
<path style="fill:#D29B6E;" d="M367.673,123.872H144.327c-5.842,0-9.837,5.901-7.667,11.325l26.425,66.065  c1.254,3.135,4.291,5.191,7.668,5.191h170.495c3.377,0,6.414-2.056,7.668-5.191l26.425-66.065  C377.511,129.773,373.516,123.872,367.673,123.872z"/>
<path style="fill:#E6AF78;" d="M313.806,487.227H198.194V181.678c0-4.561,3.697-8.258,8.258-8.258h99.097  c4.561,0,8.258,3.697,8.258,8.258v305.549H313.806z"/>
<path style="fill:#5B5D6E;" d="M280.774,39.874l-11.679-11.679c-6.45-6.45-6.45-16.907,0-23.357l0,0c6.45-6.45,16.907-6.45,23.357,0  l11.679,11.679c6.45,6.45,6.45,16.907,0,23.357l0,0C297.682,46.324,287.224,46.324,280.774,39.874z"/>
<path style="fill:#FFDC64;" d="M272.516,239.484h-33.032c-4.561,0-8.258-3.697-8.258-8.258v-16.516c0-4.561,3.697-8.258,8.258-8.258  h33.032c4.561,0,8.258,3.697,8.258,8.258v16.516C280.774,235.788,277.077,239.484,272.516,239.484z"/>
<path style="fill:#F0C087;" d="M346.839,512H165.161c-4.561,0-8.258-3.697-8.258-8.258v-16.516c0-4.561,3.697-8.258,8.258-8.258  h181.677c4.561,0,8.258,3.697,8.258,8.258v16.516C355.097,508.303,351.4,512,346.839,512z"/>
<g>
</g>
<g>
</g>
<g>
</g>
<g>
</g>
<g>
</g>
<g>
</g>
<g>
</g>
<g>
</g>
<g>
</g>
<g>
</g>
<g>
</g>
<g>
</g>
<g>
</g>
<g>
</g>
<g>
</g>
</svg>
