<?xml version="1.0" encoding="iso-8859-1"?>
<!-- Generator: Adobe Illustrator 19.0.0, SVG Export Plug-In . SVG Version: 6.00 Build 0)  -->
<svg xmlns="http://www.w3.org/2000/svg" xmlns:xlink="http://www.w3.org/1999/xlink" version="1.1" id="Layer_1" x="0px" y="0px" viewBox="0 0 512 512" style="enable-background:new 0 0 512 512;" xml:space="preserve">
<path style="fill:#5A4146;" d="M210.581,338.581c57.806,0,131.485-33.203,140.43-38.896c3.256-2.072,4.89-5.748,4.243-9.507  c-2.886-16.774-11.161-66.189-18.373-163.878C331.115,48.185,280.335,0,210.581,0S90.049,48.185,84.281,126.3  c-7.212,97.689-15.486,147.103-18.373,163.878c-0.647,3.759,0.987,7.435,4.243,9.507  C79.097,305.377,152.775,338.581,210.581,338.581z"/>
<path style="fill:#694B4B;" d="M355.254,290.177c-2.886-16.774-11.161-66.189-18.372-163.878C331.114,48.184,280.335,0,210.581,0  c-0.161,0-0.321,0-0.482,0.001c-43.838,0.146-69.154,51.903-42.222,86.493c6.877,8.833,13.421,13.933,13.421,13.933  s16.776,126.686,31.89,238.065c57.396-0.956,129.01-33.199,137.822-38.807C354.267,297.613,355.901,293.936,355.254,290.177z"/>
<path style="fill:#E6AF78;" d="M375.743,445.935v-41.651c0-19.821-11.812-37.734-30.03-45.542L275.145,328.5  c-9.109-3.904-15.015-12.861-15.015-22.771v-41.47h-99.097v41.47c0,9.91-5.906,18.867-15.015,22.771l-70.567,30.243  c-18.218,7.808-30.03,25.721-30.03,45.542v41.651c0,4.561,3.697,8.258,8.258,8.258h313.806  C372.046,454.194,375.743,450.496,375.743,445.935z"/>
<path style="fill:#E4EAF8;" d="M345.713,358.742l-62.798-26.913c-11.88,28.223-39.789,48.042-72.333,48.042  s-60.453-19.819-72.333-48.042l-62.798,26.913c-18.218,7.808-30.03,25.722-30.03,45.542v41.651c0,4.56,3.697,8.258,8.258,8.258  h313.806c4.56,0,8.258-3.698,8.258-8.258v-41.651C375.743,384.464,363.93,366.55,345.713,358.742z"/>
<path style="fill:#D5DCED;" d="M345.712,358.742l-41.267-17.686l0,0l-21.531-9.227c-11.88,28.223-39.789,48.042-72.333,48.042  s-60.453-19.819-72.333-48.042l-22.783,9.764c15.669,37.052,52.356,63.052,95.116,63.052c19.781,0,38.237-5.593,53.929-15.254  c3.703-2.28,8.356,1.194,7.262,5.403c-2.188,8.426-3.385,17.247-3.385,26.367c0,11.533,1.866,22.619,5.232,33.032h93.864  c4.561,0,8.258-3.697,8.258-8.258v-41.651C375.743,384.464,363.931,366.55,345.712,358.742z"/>
<circle style="fill:#B4E66E;" cx="375.741" cy="421.16" r="90.84"/>
<path style="fill:#A0D755;" d="M421.162,487.543c-50.169,0-90.839-40.67-90.839-90.839c0-25.213,10.278-48.022,26.865-64.48  c-41.269,8.566-72.285,45.127-72.285,88.936c0,50.169,40.67,90.839,90.839,90.839c24.956,0,47.555-10.069,63.974-26.359  C433.726,486.884,427.521,487.543,421.162,487.543z"/>
<path style="fill:#FFFFFF;" d="M367.485,464.516c-2.645,0-5.282-1.008-7.298-3.024l-33.032-33.032  c-4.032-4.032-4.032-10.565,0-14.597s10.565-4.032,14.597,0l25.734,25.734l50.508-50.508c4.032-4.032,10.565-4.032,14.597,0  s4.032,10.565,0,14.597l-57.806,57.806C372.767,463.508,370.13,464.516,367.485,464.516z"/>
<path style="fill:#D5DCED;" d="M59.837,369.514c-9.007,9.106-14.417,21.468-14.417,34.771v41.651c0,4.561,3.697,8.258,8.258,8.258  h57.806v-19.35c0-8.761-3.48-17.163-9.675-23.357L59.837,369.514z"/>
<path style="fill:#D29B6E;" d="M161.033,286.015c15.034,7.154,31.79,11.275,49.548,11.275s34.514-4.121,49.548-11.275v-21.757  h-99.097v21.757H161.033z"/>
<path style="fill:#F0C087;" d="M299.411,144.813c-31.576-30.1-92.355-41.003-118.111-44.386c-6.862-0.901-13.452,2.634-16.674,8.759  c-13.453,25.57-35.399,43.527-46.403,51.439c-4.268,3.069-6.738,8.053-6.738,13.31v4.456c0,54.563,42.687,101.368,97.241,102.366  c55.579,1.017,100.953-43.733,100.953-99.08v-12.841C309.679,159.762,305.979,151.074,299.411,144.813z"/>
<path style="fill:#E6AF78;" d="M169.29,206.452v-59.876c0-8.878,7.007-16.247,15.881-16.506  c26.416-0.771,71.665,2.091,120.738,23.712c-1.678-3.287-3.775-6.371-6.499-8.969c-31.576-30.101-92.354-41.003-118.111-44.386  c-4.426-0.581-8.639,0.833-12.008,3.449c-1.853,1.439-3.523,3.137-4.666,5.31c-13.415,25.499-35.276,43.426-46.31,51.372  c-4.313,3.106-6.83,8.062-6.83,13.377v4.456c0,52.454,39.485,97.614,91.003,101.924C182.161,262.167,169.29,235.844,169.29,206.452z  "/>
<g>
</g>
<g>
</g>
<g>
</g>
<g>
</g>
<g>
</g>
<g>
</g>
<g>
</g>
<g>
</g>
<g>
</g>
<g>
</g>
<g>
</g>
<g>
</g>
<g>
</g>
<g>
</g>
<g>
</g>
</svg>
