<?xml version="1.0" encoding="iso-8859-1"?>
<!-- Generator: Adobe Illustrator 19.0.0, SVG Export Plug-In . SVG Version: 6.00 Build 0)  -->
<svg xmlns="http://www.w3.org/2000/svg" xmlns:xlink="http://www.w3.org/1999/xlink" version="1.1" id="Layer_1" x="0px" y="0px" viewBox="0 0 512.002 512.002" style="enable-background:new 0 0 512.002 512.002;" xml:space="preserve">
<path style="fill:#E4EAF8;" d="M433.549,181.679c-2.863,0-5.684,0.174-8.468,0.473c-12.084-38.559-48.085-66.538-90.629-66.538  c-10.499,0-20.569,1.771-30.01,4.917c-20.429-32.667-56.62-54.466-97.99-54.466c-52.378,0-96.562,34.854-110.771,82.616  c-0.24-0.002-0.472-0.036-0.713-0.036c-52.448,0.002-94.967,42.52-94.967,94.97c0,52.449,42.519,94.968,94.968,94.968H433.55  c43.328,0,78.452-35.124,78.452-78.452S476.877,181.679,433.549,181.679z"/>
<path style="fill:#D5DCED;" d="M437.433,297.292h-65.82c-4.561,0-8.258-3.697-8.258-8.258v-26.191c0-8.76-3.48-17.162-9.675-23.357  l-48.132-48.132c-6.195-6.195-14.597-9.675-23.358-9.675H173.42c-13.682,0-24.774,11.092-24.774,24.774v76.719  c0,5.711-5.703,9.808-11.06,7.826c-35.421-13.106-61.769-45.678-63.199-85.153c-0.768-21.176,5.421-40.859,16.432-56.988  c-51.567,2.234-92.503,45.465-90.766,97.978c1.71,51.69,46.218,91.748,97.936,91.748h335.559c2.129,0,4.239-0.085,6.326-0.251  C465.664,336.272,463.304,297.292,437.433,297.292z"/>
<path style="fill:#B4E66E;" d="M338.582,445.937H173.42c-4.561,0-8.258-3.697-8.258-8.258V206.454c0-4.561,3.697-8.258,8.258-8.258  h108.772c4.38,0,8.581,1.74,11.679,4.837l48.132,48.132c3.097,3.097,4.837,7.298,4.837,11.679V437.68  C346.84,442.24,343.142,445.937,338.582,445.937z"/>
<g>
	<path style="fill:#FFFFFF;" d="M297.098,340.389l-33.032-41.29c-3.919-4.887-12.21-4.887-16.129,0l-33.032,41.29   c-3.556,4.452-2.839,10.952,1.613,14.516c4.46,3.548,10.952,2.831,14.516-1.613l14.645-18.311v61.408   c0,5.702,4.621,10.323,10.323,10.323c5.702,0,10.323-4.621,10.323-10.323v-61.408l14.645,18.311c2.04,2.548,5.04,3.871,8.073,3.871   c2.258,0,4.54-0.742,6.444-2.258C299.936,351.341,300.654,344.841,297.098,340.389z"/>
	<path style="fill:#FFFFFF;" d="M272.541,142.462c-3.137,0-6.234-1.419-8.266-4.121c-10.661-14.21-26.065-23.968-43.355-27.476   c-5.589-1.129-9.202-6.581-8.065-12.161c1.129-5.589,6.589-9.258,12.161-8.065c22.258,4.508,42.065,17.048,55.774,35.298   c3.419,4.565,2.5,11.032-2.056,14.46C276.872,141.792,274.695,142.462,272.541,142.462z"/>
	<path style="fill:#FFFFFF;" d="M389.251,192.002c-3.702,0-7.282-2-9.137-5.5c-6.089-11.532-16.202-20.266-28.46-24.597   c-5.379-1.895-8.194-7.798-6.298-13.169c1.903-5.379,7.79-8.21,13.169-6.298c17.169,6.065,31.323,18.29,39.847,34.419   c2.661,5.04,0.734,11.29-4.306,13.952C392.525,191.615,390.88,192.002,389.251,192.002z"/>
</g>
<path style="fill:#A0D755;" d="M289.033,199.73c-2.134-0.974-4.451-1.535-6.841-1.535h-9.675v57.807  c0,9.105,7.411,16.516,16.516,16.516h57.806v-9.675c0-2.391-0.56-4.708-1.535-6.841h-56.272V199.73H289.033z"/>
<g>
</g>
<g>
</g>
<g>
</g>
<g>
</g>
<g>
</g>
<g>
</g>
<g>
</g>
<g>
</g>
<g>
</g>
<g>
</g>
<g>
</g>
<g>
</g>
<g>
</g>
<g>
</g>
<g>
</g>
</svg>
