<?xml version="1.0" encoding="iso-8859-1"?>
<!-- Generator: Adobe Illustrator 19.0.0, SVG Export Plug-In . SVG Version: 6.00 Build 0)  -->
<svg xmlns="http://www.w3.org/2000/svg" xmlns:xlink="http://www.w3.org/1999/xlink" version="1.1" id="Layer_1" x="0px" y="0px" viewBox="0 0 512.002 512.002" style="enable-background:new 0 0 512.002 512.002;" xml:space="preserve">
<path style="fill:#E6AF78;" d="M109.5,474.41v-28.71c0-6.165-3.483-11.801-8.998-14.559l-19.059-9.53  c-2.757-1.379-4.499-4.197-4.499-7.28v-16.278H44.388v16.278c0,3.083-1.742,5.901-4.499,7.28l-19.059,9.53  c-5.515,2.758-8.998,8.393-8.998,14.559v28.709"/>
<path style="fill:#FFF082;" d="M100.502,431.141l-14.846-7.423c-5.972,7.222-14.887,11.922-24.99,11.922s-19.019-4.7-24.99-11.922  l-14.846,7.423c-5.515,2.757-8.998,8.394-8.998,14.559v58.161c0,4.495,3.644,8.139,8.139,8.139h81.39  c4.495,0,8.139-3.644,8.139-8.139v-58.161C109.5,439.535,106.016,433.899,100.502,431.141z"/>
<path style="fill:#D29B6E;" d="M44.388,398.054v16.278c0,1.736-0.599,3.354-1.574,4.713c5.537,2.185,11.548,3.426,17.852,3.426  s12.315-1.241,17.852-3.426c-0.975-1.359-1.574-2.977-1.574-4.713v-16.278L44.388,398.054L44.388,398.054z"/>
<path style="fill:#F0C087;" d="M60.666,406.193L60.666,406.193c-17.98,0-32.556-14.576-32.556-32.556V357.36  c0-13.485,10.932-24.417,24.417-24.417h16.278c13.485,0,24.417,10.932,24.417,24.417v16.278  C93.222,391.618,78.646,406.193,60.666,406.193z"/>
<path style="fill:#E6AF78;" d="M52.527,373.638V357.36c0-12.091,8.81-22.06,20.347-24.007c-1.33-0.225-2.676-0.41-4.069-0.41H52.527  c-13.485,0-24.417,10.932-24.417,24.417v16.278c0,17.98,14.576,32.556,32.556,32.556c4.324,0,8.433-0.883,12.208-2.414  C60.953,398.945,52.527,387.293,52.527,373.638z"/>
<path style="fill:#694B4B;" d="M28.11,357.36c0,0,24.417,8.139,65.112,8.139v-8.139c0-13.485-10.932-24.417-24.417-24.417H52.527  C39.042,332.943,28.11,343.874,28.11,357.36L28.11,357.36z"/>
<path style="fill:#5A4146;" d="M52.527,357.36c0-12.091,8.81-22.06,20.347-24.007c-1.33-0.225-2.676-0.41-4.069-0.41H52.527  c-13.485,0-24.417,10.932-24.417,24.417c0,0,8.754,2.895,24.417,5.232V357.36z"/>
<g>
	<path style="fill:#FFDC64;" d="M29.737,450.143L13.8,438.19c-1.202,2.291-1.968,4.824-1.968,7.51v58.161   c0,4.495,3.644,8.139,8.139,8.139h16.278v-48.834C36.249,458.042,33.836,453.217,29.737,450.143z"/>
	<path style="fill:#FFDC64;" d="M91.595,450.143c-4.099,3.074-6.512,7.899-6.512,13.023V512h16.278c4.495,0,8.139-3.644,8.139-8.139   v-58.161c0-2.686-0.766-5.219-1.968-7.51L91.595,450.143z"/>
</g>
<path style="fill:#E6AF78;" d="M239.723,474.41v-28.71c0-6.165-3.483-11.801-8.998-14.559l-19.059-9.53  c-2.757-1.379-4.499-4.197-4.499-7.28v-16.278h-32.556v16.278c0,3.083-1.742,5.901-4.499,7.28l-19.059,9.53  c-5.515,2.758-8.998,8.393-8.998,14.559v28.709"/>
<path style="fill:#FF507D;" d="M230.725,431.141l-14.846-7.423c-5.972,7.222-14.887,11.922-24.99,11.922s-19.019-4.7-24.99-11.922  l-14.846,7.423c-5.515,2.757-8.998,8.394-8.998,14.559v58.161c0,4.495,3.644,8.139,8.139,8.139h81.39  c4.495,0,8.139-3.644,8.139-8.139v-58.161C239.723,439.535,236.24,433.899,230.725,431.141z"/>
<path style="fill:#D29B6E;" d="M174.611,398.054v16.278c0,1.736-0.599,3.354-1.574,4.713c5.537,2.185,11.548,3.426,17.852,3.426  s12.315-1.241,17.852-3.426c-0.975-1.359-1.574-2.977-1.574-4.713v-16.278L174.611,398.054L174.611,398.054z"/>
<path style="fill:#F0C087;" d="M190.889,406.193L190.889,406.193c-17.98,0-32.556-14.576-32.556-32.556V357.36  c0-13.485,10.932-24.417,24.417-24.417h16.278c13.485,0,24.417,10.932,24.417,24.417v16.278  C223.445,391.618,208.869,406.193,190.889,406.193z"/>
<path style="fill:#E6AF78;" d="M182.75,373.638V357.36c0-12.091,8.81-22.06,20.347-24.007c-1.33-0.225-2.676-0.41-4.069-0.41H182.75  c-13.485,0-24.417,10.932-24.417,24.417v16.278c0,17.98,14.576,32.556,32.556,32.556c4.324,0,8.433-0.883,12.208-2.414  C191.176,398.945,182.75,387.293,182.75,373.638z"/>
<path style="fill:#694B4B;" d="M158.333,357.36c0,0,24.417,8.139,65.112,8.139v-8.139c0-13.485-10.932-24.417-24.417-24.417H182.75  C169.265,332.943,158.333,343.874,158.333,357.36L158.333,357.36z"/>
<path style="fill:#5A4146;" d="M182.75,357.36c0-12.091,8.81-22.06,20.347-24.007c-1.33-0.225-2.676-0.41-4.069-0.41H182.75  c-13.485,0-24.417,10.932-24.417,24.417c0,0,8.754,2.895,24.417,5.232V357.36z"/>
<g>
	<path style="fill:#D23C69;" d="M159.96,450.143l-15.937-11.952c-1.202,2.291-1.968,4.824-1.968,7.51v58.161   c0,4.495,3.644,8.139,8.139,8.139h16.278v-48.834C166.472,458.042,164.06,453.217,159.96,450.143z"/>
	<path style="fill:#D23C69;" d="M221.818,450.143c-4.099,3.074-6.512,7.899-6.512,13.023V512h16.278   c4.495,0,8.139-3.644,8.139-8.139v-58.161c0-2.686-0.766-5.219-1.968-7.51L221.818,450.143z"/>
</g>
<path style="fill:#E6AF78;" d="M369.947,474.41v-28.71c0-6.165-3.483-11.801-8.998-14.559l-19.059-9.53  c-2.757-1.379-4.499-4.197-4.499-7.28v-16.278h-32.556v16.278c0,3.083-1.742,5.901-4.499,7.28l-19.059,9.53  c-5.515,2.758-8.998,8.393-8.998,14.559v28.709"/>
<path style="fill:#B4E66E;" d="M360.949,431.141l-14.846-7.423c-5.972,7.222-14.887,11.922-24.99,11.922s-19.019-4.7-24.99-11.922  l-14.846,7.423c-5.514,2.757-8.998,8.394-8.998,14.559v58.161c0,4.495,3.644,8.139,8.139,8.139h81.39  c4.495,0,8.139-3.644,8.139-8.139v-58.161C369.947,439.535,366.463,433.899,360.949,431.141z"/>
<path style="fill:#D29B6E;" d="M304.835,398.054v16.278c0,1.736-0.599,3.354-1.574,4.713c5.537,2.185,11.548,3.426,17.852,3.426  s12.315-1.241,17.852-3.426c-0.975-1.359-1.574-2.977-1.574-4.713v-16.278L304.835,398.054L304.835,398.054z"/>
<path style="fill:#F0C087;" d="M321.113,406.193L321.113,406.193c-17.98,0-32.556-14.576-32.556-32.556V357.36  c0-13.485,10.932-24.417,24.417-24.417h16.278c13.485,0,24.417,10.932,24.417,24.417v16.278  C353.669,391.618,339.093,406.193,321.113,406.193z"/>
<path style="fill:#E6AF78;" d="M312.974,373.638V357.36c0-12.091,8.81-22.06,20.347-24.007c-1.33-0.225-2.676-0.41-4.069-0.41  h-16.278c-13.485,0-24.417,10.932-24.417,24.417v16.278c0,17.98,14.576,32.556,32.556,32.556c4.324,0,8.433-0.883,12.208-2.414  C321.4,398.945,312.974,387.293,312.974,373.638z"/>
<path style="fill:#694B4B;" d="M288.557,357.36c0,0,24.417,8.139,65.112,8.139v-8.139c0-13.485-10.932-24.417-24.417-24.417h-16.278  C299.489,332.943,288.557,343.874,288.557,357.36L288.557,357.36z"/>
<path style="fill:#5A4146;" d="M312.974,357.36c0-12.091,8.81-22.06,20.347-24.007c-1.33-0.225-2.676-0.41-4.069-0.41h-16.278  c-13.485,0-24.417,10.932-24.417,24.417c0,0,8.754,2.895,24.417,5.232L312.974,357.36L312.974,357.36z"/>
<g>
	<path style="fill:#A0D755;" d="M290.184,450.143l-15.937-11.952c-1.202,2.291-1.968,4.824-1.968,7.51v58.161   c0,4.495,3.644,8.139,8.139,8.139h16.278v-48.834C296.696,458.042,294.283,453.217,290.184,450.143z"/>
	<path style="fill:#A0D755;" d="M352.042,450.143c-4.099,3.074-6.512,7.899-6.512,13.023V512h16.278   c4.495,0,8.139-3.644,8.139-8.139v-58.161c0-2.686-0.766-5.219-1.968-7.51L352.042,450.143z"/>
</g>
<path style="fill:#E6AF78;" d="M500.17,474.41v-28.71c0-6.165-3.483-11.801-8.998-14.559l-19.059-9.53  c-2.757-1.379-4.499-4.197-4.499-7.28v-16.278h-32.556v16.278c0,3.083-1.742,5.901-4.499,7.28l-19.059,9.53  c-5.515,2.758-8.998,8.393-8.998,14.559v28.709"/>
<path style="fill:#00C3FF;" d="M491.172,431.141l-14.846-7.423c-5.972,7.222-14.887,11.922-24.99,11.922s-19.019-4.7-24.99-11.922  l-14.846,7.423c-5.514,2.757-8.998,8.394-8.998,14.559v58.161c0,4.495,3.644,8.139,8.139,8.139h81.39  c4.495,0,8.139-3.644,8.139-8.139v-58.161C500.17,439.535,496.687,433.899,491.172,431.141z"/>
<path style="fill:#D29B6E;" d="M435.058,398.054v16.278c0,1.736-0.599,3.354-1.574,4.713c5.537,2.185,11.548,3.426,17.852,3.426  s12.315-1.241,17.852-3.426c-0.975-1.359-1.574-2.977-1.574-4.713v-16.278L435.058,398.054L435.058,398.054z"/>
<path style="fill:#F0C087;" d="M451.336,406.193L451.336,406.193c-17.98,0-32.556-14.576-32.556-32.556V357.36  c0-13.485,10.932-24.417,24.417-24.417h16.278c13.485,0,24.417,10.932,24.417,24.417v16.278  C483.892,391.618,469.316,406.193,451.336,406.193z"/>
<path style="fill:#E6AF78;" d="M443.197,373.638V357.36c0-12.091,8.81-22.06,20.347-24.007c-1.33-0.225-2.676-0.41-4.069-0.41  h-16.278c-13.485,0-24.417,10.932-24.417,24.417v16.278c0,17.98,14.576,32.556,32.556,32.556c4.324,0,8.433-0.883,12.208-2.414  C451.623,398.945,443.197,387.293,443.197,373.638z"/>
<path style="fill:#694B4B;" d="M418.78,357.36c0,0,24.417,8.139,65.112,8.139v-8.139c0-13.485-10.932-24.417-24.417-24.417h-16.278  C429.712,332.943,418.78,343.874,418.78,357.36L418.78,357.36z"/>
<path style="fill:#5A4146;" d="M443.197,357.36c0-12.091,8.81-22.06,20.347-24.007c-1.33-0.225-2.676-0.41-4.069-0.41h-16.278  c-13.485,0-24.417,10.932-24.417,24.417c0,0,8.754,2.895,24.417,5.232L443.197,357.36L443.197,357.36z"/>
<g>
	<path style="fill:#00AAF0;" d="M420.407,450.143l-15.937-11.952c-1.202,2.291-1.968,4.824-1.968,7.51v58.161   c0,4.495,3.644,8.139,8.139,8.139h16.278v-48.834C426.919,458.042,424.507,453.217,420.407,450.143z"/>
	<path style="fill:#00AAF0;" d="M482.265,450.143c-4.099,3.074-6.512,7.899-6.512,13.023V512h16.278   c4.495,0,8.139-3.644,8.139-8.139v-58.161c0-2.686-0.766-5.219-1.968-7.51L482.265,450.143z"/>
</g>
<path style="fill:#D5DCED;" d="M426.919,186.441H264.14V40.925l9.371,18.742c1.351,2.71,4.077,4.276,6.915,4.276  c1.16,0,2.337-0.262,3.442-0.819c3.815-1.908,5.365-6.549,3.457-10.357L262.908,3.934c-2.623-5.246-11.191-5.246-13.814,0  l-24.417,48.834c-1.908,3.807-0.358,8.449,3.457,10.357c3.799,1.916,8.457,0.358,10.357-3.457l9.371-18.742v145.516H85.083  c-17.955,0-32.556,14.601-32.556,32.556v89.529c0,4.499,3.64,8.139,8.139,8.139s8.139-3.64,8.139-8.139v-89.529  c0-8.974,7.304-16.278,16.278-16.278h97.668v105.807c0,4.499,3.64,8.139,8.139,8.139s8.139-3.64,8.139-8.139V202.719h113.946  v105.807c0,4.499,3.64,8.139,8.139,8.139s8.139-3.64,8.139-8.139V202.719h97.668c8.974,0,16.278,7.304,16.278,16.278v89.529  c0,4.499,3.64,8.139,8.139,8.139s8.139-3.64,8.139-8.139v-89.529C459.475,201.043,444.874,186.441,426.919,186.441z"/>
<g>
</g>
<g>
</g>
<g>
</g>
<g>
</g>
<g>
</g>
<g>
</g>
<g>
</g>
<g>
</g>
<g>
</g>
<g>
</g>
<g>
</g>
<g>
</g>
<g>
</g>
<g>
</g>
<g>
</g>
</svg>
