<?xml version="1.0" encoding="iso-8859-1"?>
<!-- Generator: Adobe Illustrator 19.0.0, SVG Export Plug-In . SVG Version: 6.00 Build 0)  -->
<svg xmlns="http://www.w3.org/2000/svg" xmlns:xlink="http://www.w3.org/1999/xlink" version="1.1" id="Layer_1" x="0px" y="0px" viewBox="0 0 512 512" style="enable-background:new 0 0 512 512;" xml:space="preserve">
<path style="fill:#8C5F5F;" d="M160,188V44c0-4.418,3.582-8,8-8h176c4.418,0,8,3.582,8,8v144"/>
<rect x="160" y="140" style="fill:#785353;" width="192" height="48"/>
<path style="fill:#80E1FF;" d="M200,188h-16v-36c0-2.209,1.791-4,4-4h8c2.209,0,4,1.791,4,4V188z"/>
<path style="fill:#00C3FF;" d="M200,164h-16v-12c0-2.209,1.791-4,4-4h8c2.209,0,4,1.791,4,4V164z"/>
<path style="fill:#80E1FF;" d="M232,188h-16v-36c0-2.209,1.791-4,4-4h8c2.209,0,4,1.791,4,4V188z"/>
<path style="fill:#00C3FF;" d="M232,164h-16v-12c0-2.209,1.791-4,4-4h8c2.209,0,4,1.791,4,4V164z"/>
<path style="fill:#80E1FF;" d="M264,188h-16v-36c0-2.209,1.791-4,4-4h8c2.209,0,4,1.791,4,4V188z"/>
<path style="fill:#00C3FF;" d="M264,164h-16v-12c0-2.209,1.791-4,4-4h8c2.209,0,4,1.791,4,4V164z"/>
<path style="fill:#80E1FF;" d="M296,188h-16v-36c0-2.209,1.791-4,4-4h8c2.209,0,4,1.791,4,4V188z"/>
<path style="fill:#00C3FF;" d="M296,164h-16v-12c0-2.209,1.791-4,4-4h8c2.209,0,4,1.791,4,4V164z"/>
<path style="fill:#80E1FF;" d="M328,188h-16v-36c0-2.209,1.791-4,4-4h8c2.209,0,4,1.791,4,4V188z"/>
<path style="fill:#00C3FF;" d="M328,164h-16v-12c0-2.209,1.791-4,4-4h8c2.209,0,4,1.791,4,4V164z"/>
<path style="fill:#AFB9D2;" d="M360,196H152c-4.422,0-8-3.578-8-8s3.578-8,8-8h208c4.422,0,8,3.578,8,8S364.422,196,360,196z"/>
<path style="fill:#D5DCED;" d="M392.141,325.531l-50.453-68.141c-6-8.383-15.734-13.391-26.039-13.391H264v-24c0-4.422-3.578-8-8-8  s-8,3.578-8,8v24h-51.648c-10.305,0-20.039,5.008-25.961,13.289L119.86,325.53c-2.625,3.547-1.883,8.555,1.672,11.188  c3.547,2.641,8.563,1.891,11.188-1.672l50.609-68.344c3-4.195,7.867-6.703,13.023-6.703H248v72c0,4.422,3.578,8,8,8s8-3.578,8-8v-72  h51.648c5.156,0,10.023,2.508,13.102,6.805l50.531,68.242c1.57,2.125,3.984,3.242,6.438,3.242c1.656,0,3.32-0.508,4.75-1.57  C394.023,334.086,394.766,329.078,392.141,325.531z"/>
<path style="fill:#00C3FF;" d="M196,84h-8c-2.209,0-4-1.791-4-4V64c0-2.209,1.791-4,4-4h8c2.209,0,4,1.791,4,4v16  C200,82.209,198.209,84,196,84z"/>
<path style="fill:#80E1FF;" d="M196,84h-8c-2.209,0-4-1.791-4-4v-8c0-2.209,1.791-4,4-4h8c2.209,0,4,1.791,4,4v8  C200,82.209,198.209,84,196,84z"/>
<path style="fill:#00C3FF;" d="M228,84h-8c-2.209,0-4-1.791-4-4V64c0-2.209,1.791-4,4-4h8c2.209,0,4,1.791,4,4v16  C232,82.209,230.209,84,228,84z"/>
<path style="fill:#80E1FF;" d="M228,84h-8c-2.209,0-4-1.791-4-4v-8c0-2.209,1.791-4,4-4h8c2.209,0,4,1.791,4,4v8  C232,82.209,230.209,84,228,84z"/>
<path style="fill:#00C3FF;" d="M260,84h-8c-2.209,0-4-1.791-4-4V64c0-2.209,1.791-4,4-4h8c2.209,0,4,1.791,4,4v16  C264,82.209,262.209,84,260,84z"/>
<path style="fill:#80E1FF;" d="M260,84h-8c-2.209,0-4-1.791-4-4v-8c0-2.209,1.791-4,4-4h8c2.209,0,4,1.791,4,4v8  C264,82.209,262.209,84,260,84z"/>
<path style="fill:#00C3FF;" d="M292,84h-8c-2.209,0-4-1.791-4-4V64c0-2.209,1.791-4,4-4h8c2.209,0,4,1.791,4,4v16  C296,82.209,294.209,84,292,84z"/>
<path style="fill:#80E1FF;" d="M292,84h-8c-2.209,0-4-1.791-4-4v-8c0-2.209,1.791-4,4-4h8c2.209,0,4,1.791,4,4v8  C296,82.209,294.209,84,292,84z"/>
<path style="fill:#00C3FF;" d="M324,84h-8c-2.209,0-4-1.791-4-4V64c0-2.209,1.791-4,4-4h8c2.209,0,4,1.791,4,4v16  C328,82.209,326.209,84,324,84z"/>
<path style="fill:#80E1FF;" d="M324,84h-8c-2.209,0-4-1.791-4-4v-8c0-2.209,1.791-4,4-4h8c2.209,0,4,1.791,4,4v8  C328,82.209,326.209,84,324,84z"/>
<path style="fill:#00C3FF;" d="M196,124h-8c-2.209,0-4-1.791-4-4v-16c0-2.209,1.791-4,4-4h8c2.209,0,4,1.791,4,4v16  C200,122.209,198.209,124,196,124z"/>
<path style="fill:#80E1FF;" d="M196,124h-8c-2.209,0-4-1.791-4-4v-8c0-2.209,1.791-4,4-4h8c2.209,0,4,1.791,4,4v8  C200,122.209,198.209,124,196,124z"/>
<path style="fill:#00C3FF;" d="M228,124h-8c-2.209,0-4-1.791-4-4v-16c0-2.209,1.791-4,4-4h8c2.209,0,4,1.791,4,4v16  C232,122.209,230.209,124,228,124z"/>
<path style="fill:#80E1FF;" d="M228,124h-8c-2.209,0-4-1.791-4-4v-8c0-2.209,1.791-4,4-4h8c2.209,0,4,1.791,4,4v8  C232,122.209,230.209,124,228,124z"/>
<path style="fill:#00C3FF;" d="M260,124h-8c-2.209,0-4-1.791-4-4v-16c0-2.209,1.791-4,4-4h8c2.209,0,4,1.791,4,4v16  C264,122.209,262.209,124,260,124z"/>
<path style="fill:#80E1FF;" d="M260,124h-8c-2.209,0-4-1.791-4-4v-8c0-2.209,1.791-4,4-4h8c2.209,0,4,1.791,4,4v8  C264,122.209,262.209,124,260,124z"/>
<path style="fill:#00C3FF;" d="M292,124h-8c-2.209,0-4-1.791-4-4v-16c0-2.209,1.791-4,4-4h8c2.209,0,4,1.791,4,4v16  C296,122.209,294.209,124,292,124z"/>
<path style="fill:#80E1FF;" d="M292,124h-8c-2.209,0-4-1.791-4-4v-8c0-2.209,1.791-4,4-4h8c2.209,0,4,1.791,4,4v8  C296,122.209,294.209,124,292,124z"/>
<path style="fill:#00C3FF;" d="M324,124h-8c-2.209,0-4-1.791-4-4v-16c0-2.209,1.791-4,4-4h8c2.209,0,4,1.791,4,4v16  C328,122.209,326.209,124,324,124z"/>
<path style="fill:#80E1FF;" d="M324,124h-8c-2.209,0-4-1.791-4-4v-8c0-2.209,1.791-4,4-4h8c2.209,0,4,1.791,4,4v8  C328,122.209,326.209,124,324,124z"/>
<path style="fill:#E6AF78;" d="M16,364v104h128V364c0-4.418-3.582-8-8-8H24C19.582,356,16,359.582,16,364z"/>
<rect x="16" y="420" style="fill:#D29B6E;" width="128" height="48"/>
<path style="fill:#00C3FF;" d="M52,404h-8c-2.209,0-4-1.791-4-4v-16c0-2.209,1.791-4,4-4h8c2.209,0,4,1.791,4,4v16  C56,402.209,54.209,404,52,404z"/>
<path style="fill:#80E1FF;" d="M52,404h-8c-2.209,0-4-1.791-4-4v-8c0-2.209,1.791-4,4-4h8c2.209,0,4,1.791,4,4v8  C56,402.209,54.209,404,52,404z"/>
<path style="fill:#00C3FF;" d="M84,404h-8c-2.209,0-4-1.791-4-4v-16c0-2.209,1.791-4,4-4h8c2.209,0,4,1.791,4,4v16  C88,402.209,86.209,404,84,404z"/>
<path style="fill:#80E1FF;" d="M84,404h-8c-2.209,0-4-1.791-4-4v-8c0-2.209,1.791-4,4-4h8c2.209,0,4,1.791,4,4v8  C88,402.209,86.209,404,84,404z"/>
<path style="fill:#00C3FF;" d="M116,404h-8c-2.209,0-4-1.791-4-4v-16c0-2.209,1.791-4,4-4h8c2.209,0,4,1.791,4,4v16  C120,402.209,118.209,404,116,404z"/>
<g>
	<path style="fill:#80E1FF;" d="M116,404h-8c-2.209,0-4-1.791-4-4v-8c0-2.209,1.791-4,4-4h8c2.209,0,4,1.791,4,4v8   C120,402.209,118.209,404,116,404z"/>
	<path style="fill:#80E1FF;" d="M56,468H40v-36c0-2.209,1.791-4,4-4h8c2.209,0,4,1.791,4,4V468z"/>
</g>
<path style="fill:#00C3FF;" d="M56,444H40v-12c0-2.209,1.791-4,4-4h8c2.209,0,4,1.791,4,4V444z"/>
<path style="fill:#80E1FF;" d="M120,468h-16v-36c0-2.209,1.791-4,4-4h8c2.209,0,4,1.791,4,4V468z"/>
<path style="fill:#00C3FF;" d="M120,444h-16v-12c0-2.209,1.791-4,4-4h8c2.209,0,4,1.791,4,4V444z"/>
<path style="fill:#80E1FF;" d="M88,468H72v-36c0-2.209,1.791-4,4-4h8c2.209,0,4,1.791,4,4V468z"/>
<path style="fill:#00C3FF;" d="M88,444H72v-12c0-2.209,1.791-4,4-4h8c2.209,0,4,1.791,4,4V444z"/>
<path style="fill:#AFB9D2;" d="M152,476H8c-4.422,0-8-3.578-8-8s3.578-8,8-8h144c4.422,0,8,3.578,8,8S156.422,476,152,476z"/>
<path style="fill:#E6AF78;" d="M192,364v104h128V364c0-4.418-3.582-8-8-8H200C195.582,356,192,359.582,192,364z"/>
<rect x="192" y="420" style="fill:#D29B6E;" width="128" height="48"/>
<path style="fill:#00C3FF;" d="M228,404h-8c-2.209,0-4-1.791-4-4v-16c0-2.209,1.791-4,4-4h8c2.209,0,4,1.791,4,4v16  C232,402.209,230.209,404,228,404z"/>
<path style="fill:#80E1FF;" d="M228,404h-8c-2.209,0-4-1.791-4-4v-8c0-2.209,1.791-4,4-4h8c2.209,0,4,1.791,4,4v8  C232,402.209,230.209,404,228,404z"/>
<path style="fill:#00C3FF;" d="M260,404h-8c-2.209,0-4-1.791-4-4v-16c0-2.209,1.791-4,4-4h8c2.209,0,4,1.791,4,4v16  C264,402.209,262.209,404,260,404z"/>
<path style="fill:#80E1FF;" d="M260,404h-8c-2.209,0-4-1.791-4-4v-8c0-2.209,1.791-4,4-4h8c2.209,0,4,1.791,4,4v8  C264,402.209,262.209,404,260,404z"/>
<path style="fill:#00C3FF;" d="M292,404h-8c-2.209,0-4-1.791-4-4v-16c0-2.209,1.791-4,4-4h8c2.209,0,4,1.791,4,4v16  C296,402.209,294.209,404,292,404z"/>
<g>
	<path style="fill:#80E1FF;" d="M292,404h-8c-2.209,0-4-1.791-4-4v-8c0-2.209,1.791-4,4-4h8c2.209,0,4,1.791,4,4v8   C296,402.209,294.209,404,292,404z"/>
	<path style="fill:#80E1FF;" d="M232,468h-16v-36c0-2.209,1.791-4,4-4h8c2.209,0,4,1.791,4,4V468z"/>
</g>
<path style="fill:#00C3FF;" d="M232,444h-16v-12c0-2.209,1.791-4,4-4h8c2.209,0,4,1.791,4,4V444z"/>
<path style="fill:#80E1FF;" d="M296,468h-16v-36c0-2.209,1.791-4,4-4h8c2.209,0,4,1.791,4,4V468z"/>
<path style="fill:#00C3FF;" d="M296,444h-16v-12c0-2.209,1.791-4,4-4h8c2.209,0,4,1.791,4,4V444z"/>
<path style="fill:#80E1FF;" d="M264,468h-16v-36c0-2.209,1.791-4,4-4h8c2.209,0,4,1.791,4,4V468z"/>
<path style="fill:#00C3FF;" d="M264,444h-16v-12c0-2.209,1.791-4,4-4h8c2.209,0,4,1.791,4,4V444z"/>
<path style="fill:#AFB9D2;" d="M328,476H184c-4.422,0-8-3.578-8-8s3.578-8,8-8h144c4.422,0,8,3.578,8,8S332.422,476,328,476z"/>
<path style="fill:#E6AF78;" d="M368,364v104h128V364c0-4.418-3.582-8-8-8H376C371.582,356,368,359.582,368,364z"/>
<rect x="368" y="420" style="fill:#D29B6E;" width="128" height="48"/>
<path style="fill:#00C3FF;" d="M404,404h-8c-2.209,0-4-1.791-4-4v-16c0-2.209,1.791-4,4-4h8c2.209,0,4,1.791,4,4v16  C408,402.209,406.209,404,404,404z"/>
<path style="fill:#80E1FF;" d="M404,404h-8c-2.209,0-4-1.791-4-4v-8c0-2.209,1.791-4,4-4h8c2.209,0,4,1.791,4,4v8  C408,402.209,406.209,404,404,404z"/>
<path style="fill:#00C3FF;" d="M436,404h-8c-2.209,0-4-1.791-4-4v-16c0-2.209,1.791-4,4-4h8c2.209,0,4,1.791,4,4v16  C440,402.209,438.209,404,436,404z"/>
<path style="fill:#80E1FF;" d="M436,404h-8c-2.209,0-4-1.791-4-4v-8c0-2.209,1.791-4,4-4h8c2.209,0,4,1.791,4,4v8  C440,402.209,438.209,404,436,404z"/>
<path style="fill:#00C3FF;" d="M468,404h-8c-2.209,0-4-1.791-4-4v-16c0-2.209,1.791-4,4-4h8c2.209,0,4,1.791,4,4v16  C472,402.209,470.209,404,468,404z"/>
<g>
	<path style="fill:#80E1FF;" d="M468,404h-8c-2.209,0-4-1.791-4-4v-8c0-2.209,1.791-4,4-4h8c2.209,0,4,1.791,4,4v8   C472,402.209,470.209,404,468,404z"/>
	<path style="fill:#80E1FF;" d="M408,468h-16v-36c0-2.209,1.791-4,4-4h8c2.209,0,4,1.791,4,4V468z"/>
</g>
<path style="fill:#00C3FF;" d="M408,444h-16v-12c0-2.209,1.791-4,4-4h8c2.209,0,4,1.791,4,4V444z"/>
<path style="fill:#80E1FF;" d="M472,468h-16v-36c0-2.209,1.791-4,4-4h8c2.209,0,4,1.791,4,4V468z"/>
<path style="fill:#00C3FF;" d="M472,444h-16v-12c0-2.209,1.791-4,4-4h8c2.209,0,4,1.791,4,4V444z"/>
<path style="fill:#80E1FF;" d="M440,468h-16v-36c0-2.209,1.791-4,4-4h8c2.209,0,4,1.791,4,4V468z"/>
<path style="fill:#00C3FF;" d="M440,444h-16v-12c0-2.209,1.791-4,4-4h8c2.209,0,4,1.791,4,4V444z"/>
<path style="fill:#AFB9D2;" d="M504,476H360c-4.422,0-8-3.578-8-8s3.578-8,8-8h144c4.422,0,8,3.578,8,8S508.422,476,504,476z"/>
<g>
</g>
<g>
</g>
<g>
</g>
<g>
</g>
<g>
</g>
<g>
</g>
<g>
</g>
<g>
</g>
<g>
</g>
<g>
</g>
<g>
</g>
<g>
</g>
<g>
</g>
<g>
</g>
<g>
</g>
</svg>
