<?xml version="1.0" encoding="iso-8859-1"?>
<!-- Generator: Adobe Illustrator 19.0.0, SVG Export Plug-In . SVG Version: 6.00 Build 0)  -->
<svg xmlns="http://www.w3.org/2000/svg" xmlns:xlink="http://www.w3.org/1999/xlink" version="1.1" id="Layer_1" x="0px" y="0px" viewBox="0 0 511.996 511.996" style="enable-background:new 0 0 511.996 511.996;" xml:space="preserve">
<rect x="218.838" y="156.9" style="fill:#E6AF78;" width="74.32" height="74.79"/>
<path style="fill:#D29B6E;" d="M218.837,191.276c11.386,4.425,23.94,6.917,37.161,6.917s25.775-2.492,37.161-6.917v-34.373h-74.323  L218.837,191.276L218.837,191.276z"/>
<path style="fill:#694B4B;" d="M231.224,0c-27.365,0-49.548,22.184-49.548,49.548v22.313c0,7.1,1.145,14.153,3.389,20.889  l3.597,10.792c0.842,2.525,1.271,5.17,1.271,7.832l0.001,4.239h132.129v-4.238c0-2.663,0.429-5.308,1.271-7.834l3.597-10.79  c2.245-6.736,3.39-13.791,3.39-20.891V16.516C330.321,7.395,322.926,0,313.804,0H231.224z"/>
<path style="fill:#5A4146;" d="M181.675,49.548v22.313c0,7.1,1.145,14.154,3.39,20.889l3.597,10.792  c0.842,2.525,1.271,5.17,1.271,7.832l0.001,4.239h49.548V57.806c-14.599,0-26.434-11.835-26.434-26.435  C213.047,14.045,227.093,0,244.419,0h-13.195C203.859,0,181.675,22.183,181.675,49.548z"/>
<path style="fill:#707487;" d="M140.385,305.548v-49.746c0-14.587,9.568-27.448,23.541-31.639l59.04-17.712l33.032,25.246  l33.032-25.245l59.04,17.712c13.972,4.192,23.541,17.052,23.541,31.639v49.746c0,4.561-3.697,8.258-8.258,8.258h-214.71  C144.082,313.806,140.385,310.109,140.385,305.548z"/>
<polygon style="fill:#00C3FF;" points="262.192,239.484 249.804,239.484 243.611,313.806 268.385,313.806 "/>
<g>
	<path style="fill:#5B5D6E;" d="M146.271,237.111c-3.704,5.378-5.886,11.823-5.886,18.692v49.745c0,4.561,3.697,8.258,8.258,8.258   h33.032v-31.029c0-6.571-2.61-12.872-7.256-17.518L146.271,237.111z"/>
	<path style="fill:#5B5D6E;" d="M365.725,237.111c3.704,5.378,5.886,11.823,5.886,18.692v49.745c0,4.561-3.697,8.258-8.258,8.258   h-33.032v-31.029c0-6.571,2.61-12.872,7.256-17.518L365.725,237.111z"/>
</g>
<path style="fill:#0096DC;" d="M263.43,251.871h-14.865c-2.736,0-4.955-2.218-4.955-4.955v-15.217h24.774v15.217  C268.385,249.653,266.167,251.871,263.43,251.871z"/>
<g>
	<path style="fill:#5B5D6E;" d="M213.039,200.616l-8.396,11.386l19.767,28.604c2.65,3.835,8.331,4.942,12.528,2.442l19.06-11.351   l-34.602-31.789C218.997,197.705,214.932,198.049,213.039,200.616z"/>
	<path style="fill:#5B5D6E;" d="M298.957,200.616l8.396,11.386l-19.767,28.604c-2.65,3.835-8.331,4.942-12.528,2.442l-19.06-11.351   l34.602-31.789C292.999,197.705,297.064,198.049,298.957,200.616z"/>
</g>
<path style="fill:#F0C087;" d="M302.216,75.919c-32.396-23.416-73.394-18.556-89.169-15.487c-3.856,0.75-6.598,4.163-6.598,8.092  v25.469c0,3.128-1.767,5.987-4.565,7.386l-7.386,3.693c-2.798,1.399-4.565,4.258-4.565,7.386v0.891  c0,35.101,28.601,66.794,63.67,68.292c37.578,1.606,68.459-28.748,68.459-66.029v-3.154c0-3.128-1.767-5.987-4.565-7.386  l-7.386-3.693c-2.798-1.399-4.565-4.25-4.565-7.378V83.483C305.546,79.975,304.339,77.453,302.216,75.919z"/>
<path style="fill:#E6AF78;" d="M305.546,83.483c0-3.508-1.208-6.031-3.33-7.565c-26.981-19.502-59.877-19.383-79.25-17.028  c-3.889,0.473-7.281,1.028-9.918,1.541c-3.856,0.751-6.598,4.163-6.598,8.092v25.469c0,3.128-1.767,5.987-4.565,7.386l-7.386,3.693  c-2.798,1.399-4.565,4.259-4.565,7.387v0.891c0,31.827,23.538,60.771,54.067,67.026c-12.914-12.058-21.035-29.184-21.035-48.246  V86.038c0-7.059,5.627-12.789,12.684-12.954C255.47,72.619,285.183,73.859,305.546,83.483z"/>
<circle style="fill:#FF507D;" cx="255.998" cy="495.48" r="16.516"/>
<circle style="fill:#FFDC64;" cx="99.098" cy="495.48" r="16.516"/>
<circle style="fill:#B4E66E;" cx="412.898" cy="495.48" r="16.516"/>
<path style="fill:#D5DCED;" d="M390.127,449.395l-45.677-63.952c-6.185-8.661-16.234-13.831-26.879-13.831h-53.315v-8.258  c0-4.56-3.694-8.258-8.258-8.258s-8.258,3.698-8.258,8.258v8.258h-53.315c-10.645,0-20.694,5.169-26.879,13.835l-45.677,63.948  c-2.653,3.71-1.79,8.867,1.919,11.52c3.71,2.645,8.871,1.79,11.516-1.923l45.677-63.944c3.097-4.335,8.121-6.919,13.444-6.919  h53.315v57.806c0,4.56,3.694,8.258,8.258,8.258s8.258-3.698,8.258-8.258v-57.806h53.315c5.323,0,10.347,2.585,13.444,6.915  l45.677,63.948c1.613,2.258,4.145,3.46,6.726,3.46c1.661,0,3.339-0.5,4.79-1.536C391.917,458.262,392.78,453.105,390.127,449.395z"/>
<g>
</g>
<g>
</g>
<g>
</g>
<g>
</g>
<g>
</g>
<g>
</g>
<g>
</g>
<g>
</g>
<g>
</g>
<g>
</g>
<g>
</g>
<g>
</g>
<g>
</g>
<g>
</g>
<g>
</g>
</svg>
