<?xml version="1.0" encoding="iso-8859-1"?>
<!-- Generator: Adobe Illustrator 19.0.0, SVG Export Plug-In . SVG Version: 6.00 Build 0)  -->
<svg xmlns="http://www.w3.org/2000/svg" xmlns:xlink="http://www.w3.org/1999/xlink" version="1.1" id="Layer_1" x="0px" y="0px" viewBox="0 0 512 512" style="enable-background:new 0 0 512 512;" xml:space="preserve">
<path style="fill:#FFDC64;" d="M338.581,90.839l-39.874-39.873c-6.195-6.195-14.597-9.675-23.357-9.675H24.774  C11.092,41.29,0,52.382,0,66.065v379.871c0,13.682,11.092,24.774,24.774,24.774h462.452c13.682,0,24.774-11.092,24.774-24.774  V115.613c0-13.682-11.092-24.774-24.774-24.774H338.581z"/>
<circle style="fill:#FFC850;" cx="256" cy="272.52" r="123.87"/>
<circle style="fill:#FFFFFF;" cx="256" cy="272.52" r="99.1"/>
<path style="fill:#E6AF78;" d="M296.419,314.346l-19.338-9.669c-2.797-1.399-4.565-4.258-4.565-7.386v-16.516h-33.032v16.516  c0,3.128-1.767,5.987-4.565,7.386l-19.338,9.669c-5.595,2.798-9.13,8.516-9.13,14.772v29.13  c14.588,8.451,31.477,13.366,49.548,13.366s34.961-4.915,49.548-13.366v-29.13C305.548,322.862,302.014,317.144,296.419,314.346z"/>
<path style="fill:#FFC850;" d="M224.971,90.839H338.58l-39.874-39.873c-6.195-6.195-14.597-9.675-23.357-9.675h-123.87  c8.761,0,17.163,3.48,23.357,9.675l32.617,32.617C212.1,88.229,218.401,90.839,224.971,90.839z"/>
<path style="fill:#FFAF3C;" d="M275.35,41.29h-60.64c8.761,0,17.163,3.48,23.357,9.675l32.617,32.617  c4.646,4.646,10.948,7.257,17.518,7.257h50.379l-39.874-39.873C292.513,44.77,284.11,41.29,275.35,41.29z"/>
<path style="fill:#FFC850;" d="M487.226,470.71H24.774C11.092,470.71,0,459.618,0,445.935v-16.516h512v16.516  C512,459.618,500.908,470.71,487.226,470.71z"/>
<path style="fill:#B4E66E;" d="M296.419,314.345l-15.063-7.532c-6.059,7.328-15.104,12.097-25.356,12.097  c-10.252,0-19.297-4.769-25.356-12.097l-15.063,7.532c-5.595,2.798-9.13,8.517-9.13,14.772v29.13  c14.588,8.451,31.477,13.366,49.548,13.366s34.961-4.915,49.548-13.366v-29.129C305.548,322.862,302.014,317.143,296.419,314.345z"/>
<path style="fill:#D29B6E;" d="M239.484,280.774v16.516c0,1.762-0.607,3.403-1.597,4.782c5.618,2.217,11.717,3.476,18.113,3.476  c6.396,0,12.495-1.259,18.113-3.476c-0.989-1.379-1.597-3.02-1.597-4.782v-16.516H239.484z"/>
<path style="fill:#F0C087;" d="M256,289.032L256,289.032c-18.243,0-33.032-14.789-33.032-33.032v-16.516  c0-13.682,11.092-24.774,24.774-24.774h16.516c13.682,0,24.774,11.092,24.774,24.774V256  C289.032,274.243,274.243,289.032,256,289.032z"/>
<path style="fill:#E6AF78;" d="M247.742,256v-16.516c0-12.268,8.938-22.383,20.645-24.358c-1.35-0.228-2.715-0.416-4.129-0.416  h-16.516c-13.682,0-24.774,11.092-24.774,24.774V256c0,18.243,14.789,33.032,33.032,33.032c4.388,0,8.556-0.896,12.387-2.45  C256.291,281.677,247.742,269.855,247.742,256z"/>
<path style="fill:#694B4B;" d="M222.968,239.484c0,0,24.774,8.258,66.064,8.258v-8.258c0-13.682-11.092-24.774-24.774-24.774  h-16.516C234.06,214.71,222.968,225.801,222.968,239.484L222.968,239.484z"/>
<path style="fill:#5A4146;" d="M247.742,239.484c0-12.268,8.938-22.383,20.645-24.358c-1.35-0.228-2.715-0.416-4.129-0.416h-16.516  c-13.682,0-24.774,11.092-24.774,24.774c0,0,8.882,2.937,24.774,5.308L247.742,239.484L247.742,239.484z"/>
<g>
	<path style="fill:#A0D755;" d="M224.619,333.625l-16.171-12.128c-1.22,2.324-1.996,4.895-1.996,7.62v29.13   c7.669,4.443,15.982,7.851,24.774,10.118v-21.526C231.226,341.64,228.778,336.744,224.619,333.625z"/>
	<path style="fill:#A0D755;" d="M287.381,333.625c-4.159,3.119-6.607,8.015-6.607,13.214v21.526   c8.792-2.267,17.105-5.675,24.774-10.118v-29.13c0-2.725-0.777-5.296-1.996-7.62L287.381,333.625z"/>
</g>
<g>
</g>
<g>
</g>
<g>
</g>
<g>
</g>
<g>
</g>
<g>
</g>
<g>
</g>
<g>
</g>
<g>
</g>
<g>
</g>
<g>
</g>
<g>
</g>
<g>
</g>
<g>
</g>
<g>
</g>
</svg>
