<?xml version="1.0" encoding="iso-8859-1"?>
<!-- Generator: Adobe Illustrator 19.0.0, SVG Export Plug-In . SVG Version: 6.00 Build 0)  -->
<svg xmlns="http://www.w3.org/2000/svg" xmlns:xlink="http://www.w3.org/1999/xlink" version="1.1" id="Layer_1" x="0px" y="0px" viewBox="0 0 512 512" style="enable-background:new 0 0 512 512;" xml:space="preserve">
<path style="fill:#707487;" d="M470.71,70.194H41.29c-9.121,0-16.516,7.394-16.516,16.516v322.065h462.452V86.71  C487.226,77.588,479.831,70.194,470.71,70.194z"/>
<path style="fill:#FFF082;" d="M445.935,367.484H66.065c-4.561,0-8.258-3.697-8.258-8.258V111.484c0-4.561,3.697-8.258,8.258-8.258  h379.871c4.561,0,8.258,3.697,8.258,8.258v247.742C454.194,363.787,450.496,367.484,445.935,367.484z"/>
<path style="fill:#F0C087;" d="M66.065,367.484h222.968v-49.548H57.806v41.29C57.806,363.787,61.504,367.484,66.065,367.484z"/>
<path style="fill:#C8FF82;" d="M289.032,235.355h165.161V111.484c0-4.561-3.697-8.258-8.258-8.258H289.032V235.355z"/>
<path style="fill:#00C3FF;" d="M289.032,235.355h165.161v123.871c0,4.561-3.697,8.258-8.258,8.258H289.032V235.355z"/>
<path style="fill:#C7CFE2;" d="M503.742,400.516H8.258c-4.561,0-8.258,3.697-8.258,8.258v16.516c0,9.121,7.395,16.516,16.516,16.516  h478.968c9.121,0,16.516-7.395,16.516-16.516v-16.516C512,404.213,508.303,400.516,503.742,400.516z"/>
<path style="fill:#D5DCED;" d="M512,417.032H0v-8.258c0-4.561,3.697-8.258,8.258-8.258h495.484c4.561,0,8.258,3.697,8.258,8.258  V417.032z"/>
<path style="fill:#AFB9D2;" d="M280.193,425.29h-48.386c-5.522,0-10.679-2.76-13.742-7.355l-11.613-17.42h99.097l-11.613,17.42  C290.872,422.53,285.715,425.29,280.193,425.29z"/>
<path style="fill:#959CB5;" d="M355.097,202.323l-13.481,4.494c-6.744,2.248-11.293,8.56-11.293,15.669v12.87h82.581v-12.87  c0-7.109-4.549-13.421-11.293-15.669l-13.481-4.494H355.097z"/>
<path style="fill:#D29B6E;" d="M371.613,218.839L371.613,218.839c-9.122,0-16.516-7.395-16.516-16.516v-24.774h33.032v24.774  C388.129,211.444,380.735,218.839,371.613,218.839z"/>
<path style="fill:#F0C087;" d="M371.613,194.065L371.613,194.065c-13.682,0-24.774-11.092-24.774-24.774v-16.516  c0-9.122,7.395-16.516,16.516-16.516h16.516c9.122,0,16.516,7.395,16.516,16.516v16.516  C396.387,182.973,385.295,194.065,371.613,194.065z"/>
<path style="fill:#E6AF78;" d="M363.355,169.29v-16.516c0-9.122,7.395-16.516,16.516-16.516h-16.516  c-9.121,0-16.516,7.394-16.516,16.516v16.516c0,13.682,11.092,24.774,24.774,24.774c2.911,0,5.663-0.595,8.258-1.517  C370.271,189.135,363.355,180.061,363.355,169.29z"/>
<path style="fill:#694B4B;" d="M379.871,136.258h-16.516c-9.121,0-16.516,7.394-16.516,16.516c0,0,20.744,6.887,49.548,8.069v-8.069  C396.387,143.652,388.992,136.258,379.871,136.258z"/>
<path style="fill:#5A4146;" d="M363.355,152.774c0-9.122,7.395-16.516,16.516-16.516h-16.516c-9.121,0-16.516,7.394-16.516,16.516  c0,0,6.215,2.053,16.516,4.109V152.774z"/>
<path style="fill:#FFDC64;" d="M355.097,334.452l-13.481,4.494c-6.744,2.248-11.293,8.56-11.293,15.669v12.87h82.581v-12.87  c0-7.109-4.549-13.421-11.293-15.669l-13.481-4.494H355.097z"/>
<path style="fill:#D29B6E;" d="M371.613,350.968L371.613,350.968c-9.122,0-16.516-7.395-16.516-16.516v-24.774h33.032v24.774  C388.129,343.573,380.735,350.968,371.613,350.968z"/>
<path style="fill:#F0C087;" d="M371.613,326.194L371.613,326.194c-13.682,0-24.774-11.092-24.774-24.774v-16.516  c0-9.122,7.395-16.516,16.516-16.516h16.516c9.122,0,16.516,7.395,16.516,16.516v16.516  C396.387,315.102,385.295,326.194,371.613,326.194z"/>
<path style="fill:#E6AF78;" d="M363.355,301.419v-16.516c0-9.122,7.395-16.516,16.516-16.516h-16.516  c-9.121,0-16.516,7.394-16.516,16.516v16.516c0,13.682,11.092,24.774,24.774,24.774c2.911,0,5.663-0.595,8.258-1.517  C370.271,321.264,363.355,312.191,363.355,301.419z"/>
<path style="fill:#694B4B;" d="M379.871,268.387h-16.516c-9.121,0-16.516,7.394-16.516,16.516c0,0,20.744,6.887,49.548,8.069v-8.069  C396.387,275.781,388.992,268.387,379.871,268.387z"/>
<path style="fill:#5A4146;" d="M363.355,284.903c0-9.122,7.395-16.516,16.516-16.516h-16.516c-9.121,0-16.516,7.394-16.516,16.516  c0,0,6.215,2.053,16.516,4.109V284.903z"/>
<path style="fill:#E6AF78;" d="M213.838,244.152l-19.338-9.669c-2.798-1.399-4.565-4.258-4.565-7.386v-16.516h-33.032v16.516  c0,3.128-1.767,5.988-4.565,7.386L133,244.152c-5.595,2.798-9.129,8.516-9.129,14.772v67.269c0,4.561,3.697,8.258,8.258,8.258  h82.581c4.561,0,8.258-3.697,8.258-8.258v-67.269C222.968,252.669,219.433,246.95,213.838,244.152z"/>
<path style="fill:#D29B6E;" d="M156.903,210.581v16.516c0,1.762-0.607,3.403-1.597,4.782c5.618,2.217,11.717,3.476,18.113,3.476  c6.397,0,12.495-1.259,18.113-3.476c-0.989-1.379-1.597-3.02-1.597-4.782v-16.516H156.903z"/>
<path style="fill:#FF507D;" d="M213.838,244.152l-15.063-7.532c-6.059,7.328-15.104,12.097-25.356,12.097  s-19.297-4.769-25.356-12.097L133,244.152c-5.595,2.798-9.13,8.517-9.13,14.772v67.269c0,4.56,3.697,8.258,8.258,8.258h82.581  c4.561,0,8.258-3.698,8.258-8.258v-67.269C222.968,252.669,219.433,246.95,213.838,244.152z"/>
<path style="fill:#F0C087;" d="M173.419,218.839L173.419,218.839c-18.243,0-33.032-14.789-33.032-33.032V169.29  c0-13.682,11.092-24.774,24.774-24.774h16.516c13.682,0,24.774,11.092,24.774,24.774v16.516  C206.452,204.05,191.663,218.839,173.419,218.839z"/>
<path style="fill:#E6AF78;" d="M165.161,185.806V169.29c0-12.268,8.939-22.383,20.645-24.358c-1.35-0.228-2.715-0.416-4.129-0.416  h-16.516c-13.682,0-24.774,11.092-24.774,24.774v16.516c0,18.243,14.789,33.032,33.032,33.032c4.388,0,8.556-0.896,12.387-2.45  C173.711,211.484,165.161,199.662,165.161,185.806z"/>
<path style="fill:#694B4B;" d="M140.387,169.29c0,0,24.774,8.258,66.064,8.258v-8.258c0-13.682-11.092-24.774-24.774-24.774h-16.516  C151.479,144.516,140.387,155.608,140.387,169.29L140.387,169.29z"/>
<path style="fill:#5A4146;" d="M165.161,169.29c0-12.268,8.939-22.383,20.645-24.358c-1.35-0.228-2.715-0.416-4.129-0.416h-16.516  c-13.682,0-24.774,11.092-24.774,24.774c0,0,8.882,2.937,24.774,5.308V169.29z"/>
<g>
	<path style="fill:#D23C69;" d="M148.645,309.677v-33.032c0-5.199-2.448-10.094-6.607-13.214l-16.171-12.128   c-1.22,2.324-1.996,4.895-1.996,7.62v67.27c0,4.561,3.697,8.258,8.258,8.258h33.032v-16.516h-8.258   C152.342,317.935,148.645,314.238,148.645,309.677z"/>
	<path style="fill:#D23C69;" d="M220.971,251.304L204.8,263.432c-4.159,3.119-6.607,8.015-6.607,13.214v33.032   c0,4.561-3.697,8.258-8.258,8.258h-8.258v16.516h33.032c4.561,0,8.258-3.697,8.258-8.258v-67.27   C222.968,256.199,222.191,253.628,220.971,251.304z"/>
</g>
<rect x="156.9" y="317.94" style="fill:#E6AF78;" width="33.03" height="16.516"/>
<g>
</g>
<g>
</g>
<g>
</g>
<g>
</g>
<g>
</g>
<g>
</g>
<g>
</g>
<g>
</g>
<g>
</g>
<g>
</g>
<g>
</g>
<g>
</g>
<g>
</g>
<g>
</g>
<g>
</g>
</svg>
