<?xml version="1.0" encoding="iso-8859-1"?>
<!-- Generator: Adobe Illustrator 19.0.0, SVG Export Plug-In . SVG Version: 6.00 Build 0)  -->
<svg xmlns="http://www.w3.org/2000/svg" xmlns:xlink="http://www.w3.org/1999/xlink" version="1.1" id="Layer_1" x="0px" y="0px" viewBox="0 0 512 512" style="enable-background:new 0 0 512 512;" xml:space="preserve">
<path style="fill:#FF507D;" d="M492.278,33.032H27.967v247.742h464.311c11.273,0,19.233-11.044,15.669-21.739l-34.044-102.132  l34.044-102.132C511.512,44.077,503.551,33.032,492.278,33.032z"/>
<rect x="27.967" y="33.03" style="fill:#D23C69;" width="24.774" height="247.74"/>
<path style="fill:#F0C087;" d="M36.225,16.516C36.225,7.395,28.831,0,19.709,0l0,0C10.588,0,3.193,7.395,3.193,16.516v487.226  c0,4.561,3.697,8.258,8.258,8.258h16.516c4.561,0,8.258-3.697,8.258-8.258C36.225,503.742,36.225,16.516,36.225,16.516z"/>
<g>
	<path style="fill:#FFDC64;" d="M151.846,107.355H85.782c-4.565,0-8.258,3.694-8.258,8.258c0,4.565,3.694,8.258,8.258,8.258h24.774   v74.323c0,4.565,3.694,8.258,8.258,8.258s8.258-3.694,8.258-8.258v-74.323h24.774c4.565,0,8.258-3.694,8.258-8.258   C160.104,111.048,156.411,107.355,151.846,107.355z"/>
	<path style="fill:#FFDC64;" d="M226.169,123.871c4.565,0,8.258-3.694,8.258-8.258c0-4.565-3.694-8.258-8.258-8.258H176.62   c-4.565,0-8.258,3.694-8.258,8.258v82.581c0,4.565,3.694,8.258,8.258,8.258h49.548c4.565,0,8.258-3.694,8.258-8.258   s-3.694-8.258-8.258-8.258h-41.29v-24.774h24.774c4.565,0,8.258-3.694,8.258-8.258c0-4.565-3.694-8.258-8.258-8.258h-24.774   v-24.774h41.291V123.871z"/>
	<path style="fill:#FFDC64;" d="M300.145,113.242c-1.048-3.492-4.266-5.887-7.911-5.887h-16.516c-3.645,0-6.863,2.395-7.911,5.887   l-24.774,82.581c-1.306,4.363,1.169,8.968,5.54,10.282c4.387,1.298,8.968-1.169,10.282-5.54l5.666-18.887h38.909l5.666,18.887   c1.073,3.581,4.355,5.887,7.911,5.887c0.782,0,1.581-0.113,2.371-0.347c4.371-1.315,6.847-5.919,5.54-10.282L300.145,113.242z    M269.475,165.161l12.387-41.29h4.226l12.387,41.29H269.475z"/>
	<path style="fill:#FFDC64;" d="M424.354,107.355h-7.427c-3.484,0-6.589,2.185-7.766,5.46l-14.871,41.29   c-2.823,7.855-5.161,14.347-7.081,19.734l-21.976-61.024c-1.177-3.274-4.282-5.46-7.766-5.46h-7.427   c-4.565,0-8.258,3.694-8.258,8.258v82.581c0,4.565,3.694,8.258,8.258,8.258s8.258-3.694,8.258-8.258v-55.895l21.048,58.46   c0.177,0.871,0.581,1.452,1.097,2.185c1.597,2.266,4.145,3.508,6.766,3.508c1.282,0,2.589-0.298,3.798-0.927   c1.935-1.008,3.315-2.685,3.992-4.613c0.468-1.323,12.492-34.726,21.097-58.613v55.895c0,4.565,3.694,8.258,8.258,8.258   c4.565,0,8.258-3.694,8.258-8.258v-82.581C432.612,111.048,428.919,107.355,424.354,107.355z"/>
</g>
<path style="fill:#E6AF78;" d="M19.709,503.742V16.516c0-6.098,3.342-11.364,8.258-14.225C25.53,0.872,22.733,0,19.709,0  C10.588,0,3.193,7.394,3.193,16.516v487.226c0,4.56,3.697,8.258,8.258,8.258h16.516C23.406,512,19.709,508.302,19.709,503.742z"/>
<g>
</g>
<g>
</g>
<g>
</g>
<g>
</g>
<g>
</g>
<g>
</g>
<g>
</g>
<g>
</g>
<g>
</g>
<g>
</g>
<g>
</g>
<g>
</g>
<g>
</g>
<g>
</g>
<g>
</g>
</svg>
