<?xml version="1.0" encoding="iso-8859-1"?>
<!-- Generator: Adobe Illustrator 19.0.0, SVG Export Plug-In . SVG Version: 6.00 Build 0)  -->
<svg xmlns="http://www.w3.org/2000/svg" xmlns:xlink="http://www.w3.org/1999/xlink" version="1.1" id="Layer_1" x="0px" y="0px" viewBox="0 0 512 512" style="enable-background:new 0 0 512 512;" xml:space="preserve">
<circle style="fill:#FF507D;" cx="211.261" cy="300.74" r="211.26"/>
<g>
	<path style="fill:#D23C69;" d="M211.265,309.187h211.05c0.11-2.807,0.214-5.616,0.214-8.451c0-2.834-0.103-5.644-0.214-8.451   h-211.05L211.265,309.187L211.265,309.187z"/>
	<path style="fill:#D23C69;" d="M388.726,123.275h40.202c6.724,0,13.172-2.671,17.926-7.425l62.654-62.654   c5.324-5.324,1.553-14.426-5.975-14.426h-30.302V8.467c0-7.529-9.102-11.299-14.426-5.975l-62.654,62.654   c-4.754,4.754-7.425,11.203-7.425,17.926V123.275z"/>
</g>
<path style="fill:#FF507D;" d="M473.232,8.467c0-7.528-9.102-11.299-14.425-5.975l-62.656,62.654  c-4.753,4.754-7.425,11.203-7.425,17.926v40.203l84.505-84.505L473.232,8.467L473.232,8.467z"/>
<circle style="fill:#FFFFFF;" cx="211.261" cy="300.74" r="160.56"/>
<path style="fill:#E2E7F2;" d="M211.265,309.187h160.133c0.147-2.816,0.427-5.598,0.427-8.451s-0.28-5.634-0.427-8.451H211.265  V309.187z"/>
<circle style="fill:#FF507D;" cx="211.261" cy="300.74" r="118.31"/>
<path style="fill:#D23C69;" d="M211.265,309.187h117.881c0.199-2.802,0.427-5.598,0.427-8.451s-0.228-5.648-0.427-8.451H211.265  V309.187z"/>
<circle style="fill:#FFFFFF;" cx="211.261" cy="300.74" r="67.6"/>
<path style="fill:#E2E7F2;" d="M211.265,309.187h67.021c0.347-2.774,0.584-5.582,0.584-8.451s-0.237-5.676-0.584-8.451h-67.021  V309.187z"/>
<circle style="fill:#FF507D;" cx="211.261" cy="300.74" r="25.352"/>
<path style="fill:#D23C69;" d="M211.265,309.187h23.799c0.944-2.655,1.552-5.471,1.552-8.451s-0.609-5.795-1.552-8.451h-23.799  V309.187z"/>
<path style="fill:#959CB5;" d="M247.693,252.359l-42.403,42.403c-3.301,3.301-3.301,8.649,0,11.95  c1.651,1.651,3.813,2.476,5.975,2.476s4.324-0.825,5.975-2.476l42.403-42.403L247.693,252.359z"/>
<path style="fill:#5B5D6E;" d="M249.292,271.159c-2.162,0-4.324-0.825-5.975-2.476c-3.301-3.301-3.301-8.649,0-11.95L479.933,20.119  c3.301-3.301,8.649-3.301,11.95,0s3.301,8.649,0,11.95L255.267,268.684C253.616,270.334,251.454,271.159,249.292,271.159z"/>
<g>
</g>
<g>
</g>
<g>
</g>
<g>
</g>
<g>
</g>
<g>
</g>
<g>
</g>
<g>
</g>
<g>
</g>
<g>
</g>
<g>
</g>
<g>
</g>
<g>
</g>
<g>
</g>
<g>
</g>
</svg>
