<?xml version="1.0" encoding="iso-8859-1"?>
<!-- Generator: Adobe Illustrator 19.0.0, SVG Export Plug-In . SVG Version: 6.00 Build 0)  -->
<svg xmlns="http://www.w3.org/2000/svg" xmlns:xlink="http://www.w3.org/1999/xlink" version="1.1" id="Layer_1" x="0px" y="0px" viewBox="0 0 512 512" style="enable-background:new 0 0 512 512;" xml:space="preserve">
<path style="fill:#E2E7F2;" d="M495.484,478.968H16.516C7.395,478.968,0,471.573,0,462.452v-297.29  c0-9.122,7.395-16.516,16.516-16.516h478.968c9.122,0,16.516,7.395,16.516,16.516v297.29  C512,471.573,504.605,478.968,495.484,478.968z"/>
<path style="fill:#C7CFE2;" d="M512,173.419H0v-8.258c0-9.122,7.395-16.516,16.516-16.516h478.968  c9.122,0,16.516,7.395,16.516,16.516L512,173.419L512,173.419z"/>
<path style="fill:#B4E66E;" d="M206.452,429.419H57.806c-4.561,0-8.258-3.697-8.258-8.258V222.968c0-4.561,3.697-8.258,8.258-8.258  h148.645c4.561,0,8.258,3.697,8.258,8.258v198.194C214.71,425.722,211.012,429.419,206.452,429.419z"/>
<path style="fill:#FFDC64;" d="M454.194,256H264.258c-4.561,0-8.258-3.697-8.258-8.258v-24.774c0-4.561,3.697-8.258,8.258-8.258  h189.935c4.561,0,8.258,3.697,8.258,8.258v24.774C462.452,252.303,458.754,256,454.194,256z"/>
<path style="fill:#FFC850;" d="M404.645,313.806H264.258c-4.561,0-8.258-3.697-8.258-8.258v-16.516c0-4.561,3.697-8.258,8.258-8.258  h140.387c4.561,0,8.258,3.697,8.258,8.258v16.516C412.903,310.109,409.206,313.806,404.645,313.806z"/>
<path style="fill:#959CB5;" d="M346.839,355.097h-82.581c-4.565,0-8.258-3.694-8.258-8.258s3.694-8.258,8.258-8.258h82.581  c4.565,0,8.258,3.694,8.258,8.258S351.403,355.097,346.839,355.097z"/>
<path style="fill:#AFB9D2;" d="M412.903,355.097h-33.032c-4.565,0-8.258-3.694-8.258-8.258s3.694-8.258,8.258-8.258h33.032  c4.565,0,8.258,3.694,8.258,8.258S417.468,355.097,412.903,355.097z"/>
<path style="fill:#959CB5;" d="M280.774,404.645h-16.516c-4.565,0-8.258-3.694-8.258-8.258s3.694-8.258,8.258-8.258h16.516  c4.565,0,8.258,3.694,8.258,8.258S285.339,404.645,280.774,404.645z"/>
<path style="fill:#AFB9D2;" d="M379.871,404.645h-66.065c-4.565,0-8.258-3.694-8.258-8.258s3.694-8.258,8.258-8.258h66.065  c4.565,0,8.258,3.694,8.258,8.258S384.435,404.645,379.871,404.645z"/>
<path style="fill:#959CB5;" d="M280.774,437.677h-16.516c-4.565,0-8.258-3.694-8.258-8.258s3.694-8.258,8.258-8.258h16.516  c4.565,0,8.258,3.694,8.258,8.258S285.339,437.677,280.774,437.677z"/>
<path style="fill:#AFB9D2;" d="M379.871,437.677h-66.065c-4.565,0-8.258-3.694-8.258-8.258s3.694-8.258,8.258-8.258h66.065  c4.565,0,8.258,3.694,8.258,8.258S384.435,437.677,379.871,437.677z"/>
<path style="fill:#959CB5;" d="M273.383,181.677h-34.766c-4.208,0-7.743-3.164-8.208-7.346l-14.68-132.129  c-0.544-4.892,3.286-9.17,8.208-9.17h64.128c4.922,0,8.751,4.278,8.208,9.17L281.59,174.331  C281.126,178.514,277.591,181.677,273.383,181.677z"/>
<path style="fill:#E6AF78;" d="M172.548,355.636l-19.338-9.669c-2.798-1.399-4.565-4.258-4.565-7.386v-16.517h-33.032v16.516  c0,3.128-1.767,5.988-4.565,7.386l-19.338,9.669c-5.595,2.798-9.129,8.516-9.129,14.772v59.011h99.097v-59.011  C181.677,364.153,178.143,358.434,172.548,355.636z"/>
<path style="fill:#D29B6E;" d="M115.613,322.065v16.516c0,1.762-0.607,3.403-1.597,4.782c5.618,2.217,11.717,3.476,18.113,3.476  c6.397,0,12.495-1.259,18.113-3.476c-0.989-1.379-1.597-3.02-1.597-4.782v-16.516H115.613z"/>
<path style="fill:#959CB5;" d="M172.548,355.636l-15.063-7.532c-6.059,7.328-15.104,12.097-25.356,12.097  s-19.297-4.769-25.356-12.097l-15.063,7.532c-5.595,2.798-9.13,8.516-9.13,14.772v59.011h99.097v-59.011  C181.677,364.152,178.143,358.434,172.548,355.636z"/>
<g>
	<path style="fill:#7F8499;" d="M107.355,388.129c0-5.199-2.448-10.094-6.606-13.213l-16.171-12.128   c-1.22,2.324-1.996,4.895-1.996,7.62v59.012h24.774L107.355,388.129L107.355,388.129z"/>
	<path style="fill:#7F8499;" d="M156.903,388.129c0-5.199,2.448-10.094,6.606-13.213l16.171-12.128   c1.22,2.324,1.996,4.895,1.996,7.62v59.012h-24.774L156.903,388.129L156.903,388.129z"/>
</g>
<path style="fill:#F0C087;" d="M132.129,330.323L132.129,330.323c-18.243,0-33.032-14.789-33.032-33.032v-16.516  c0-13.682,11.092-24.774,24.774-24.774h16.516c13.682,0,24.774,11.092,24.774,24.774v16.516  C165.161,315.534,150.372,330.323,132.129,330.323z"/>
<path style="fill:#E6AF78;" d="M123.871,297.29v-16.516c0-12.268,8.939-22.383,20.645-24.358c-1.35-0.228-2.715-0.416-4.129-0.416  h-16.516c-13.682,0-24.774,11.092-24.774,24.774v16.516c0,18.243,14.789,33.032,33.032,33.032c4.388,0,8.556-0.896,12.387-2.45  C132.42,322.968,123.871,311.146,123.871,297.29z"/>
<path style="fill:#694B4B;" d="M99.097,280.774c0,0,24.774,8.258,66.064,8.258v-8.258c0-13.682-11.092-24.774-24.774-24.774h-16.516  C110.189,256,99.097,267.092,99.097,280.774L99.097,280.774z"/>
<path style="fill:#5A4146;" d="M123.871,280.774c0-12.268,8.939-22.383,20.645-24.358c-1.35-0.228-2.715-0.416-4.129-0.416h-16.516  c-13.682,0-24.774,11.092-24.774,24.774c0,0,8.882,2.937,24.774,5.308C123.871,286.082,123.871,280.774,123.871,280.774z"/>
<path style="fill:#7F8499;" d="M264.258,156.903h-16.516c-4.561,0-8.258-3.697-8.258-8.258l0,0c0-4.561,3.697-8.258,8.258-8.258  h16.516c4.561,0,8.258,3.697,8.258,8.258l0,0C272.516,153.206,268.819,156.903,264.258,156.903z"/>
<path style="fill:#AFB9D2;" d="M288.062,49.548h-64.124c-4.561,0-8.258-3.697-8.258-8.258l0,0c0-4.561,3.697-8.258,8.258-8.258  h64.124c4.561,0,8.258,3.697,8.258,8.258l0,0C296.32,45.851,292.623,49.548,288.062,49.548z"/>
<g>
</g>
<g>
</g>
<g>
</g>
<g>
</g>
<g>
</g>
<g>
</g>
<g>
</g>
<g>
</g>
<g>
</g>
<g>
</g>
<g>
</g>
<g>
</g>
<g>
</g>
<g>
</g>
<g>
</g>
</svg>
