<?xml version="1.0" encoding="iso-8859-1"?>
<!-- Generator: Adobe Illustrator 19.0.0, SVG Export Plug-In . SVG Version: 6.00 Build 0)  -->
<svg xmlns="http://www.w3.org/2000/svg" xmlns:xlink="http://www.w3.org/1999/xlink" version="1.1" id="Layer_1" x="0px" y="0px" viewBox="0 0 512 512" style="enable-background:new 0 0 512 512;" xml:space="preserve">
<circle style="fill:#00C3FF;" cx="256" cy="214.71" r="214.71"/>
<path style="fill:#00AAF0;" d="M363.355,371.613c-118.581,0-214.71-96.129-214.71-214.71c0-59.595,24.292-113.506,63.499-152.407  C114.599,24.744,41.29,111.16,41.29,214.71c0,118.581,96.129,214.71,214.71,214.71c58.986,0,112.404-23.799,151.211-62.303  C393.051,370.055,378.386,371.613,363.355,371.613z"/>
<path style="fill:#E4EAF8;" d="M470.501,222.968c0.104-2.744,0.209-5.488,0.209-8.258c0-2.77-0.105-5.514-0.209-8.258h-66.039  c-0.813-35.662-6.786-69.295-16.881-99.097h54.333c-3.285-5.676-6.819-11.184-10.593-16.516h-49.956  C368.007,58.26,349.609,31.14,327.818,12.35c-19.98-7.092-41.358-11.141-63.559-11.992V0.209C261.514,0.105,258.77,0,256,0  s-5.514,0.105-8.258,0.209v0.149c-22.202,0.851-43.58,4.901-63.559,11.992c-21.792,18.79-40.189,45.91-53.547,78.489H80.679  c-3.774,5.332-7.308,10.84-10.593,16.516h54.333c-10.095,29.802-16.069,63.434-16.881,99.097H41.499  c-0.104,2.744-0.209,5.488-0.209,8.258c0,2.77,0.105,5.514,0.209,8.258h66.039c0.813,35.662,6.786,69.295,16.881,99.097H70.086  c3.285,5.676,6.819,11.184,10.593,16.516h49.956c13.358,32.579,31.756,59.699,53.547,78.489  c19.98,7.092,41.358,11.141,63.559,11.992v0.149c2.744,0.104,5.488,0.209,8.258,0.209s5.514-0.105,8.258-0.209v-0.149  c22.202-0.851,43.58-4.901,63.559-11.992c21.792-18.79,40.189-45.91,53.547-78.489h49.956c3.774-5.332,7.308-10.84,10.593-16.516  h-54.333c10.095-29.802,16.069-63.434,16.881-99.097H470.501z M388,206.452H264.258v-99.097h106.095  C380.835,136.723,387.157,170.456,388,206.452z M363.822,90.839h-99.564V0.462C305.33,4.601,341.359,39.361,363.822,90.839z   M247.742,0.462v90.377h-99.564C170.641,39.361,206.67,4.601,247.742,0.462z M141.647,107.355h106.095v99.097H124  C124.843,170.456,131.165,136.723,141.647,107.355z M124,222.968h123.742v99.097H141.647  C131.165,292.697,124.843,258.963,124,222.968z M148.178,338.581h99.564v90.377C206.67,424.819,170.641,390.058,148.178,338.581z   M264.258,428.958v-90.377h99.564C341.359,390.058,305.33,424.819,264.258,428.958z M370.353,322.065H264.258v-99.097H388  C387.157,258.963,380.835,292.697,370.353,322.065z"/>
<path style="fill:#D5DCED;" d="M363.355,371.613c-5.692,0-11.314-0.289-16.894-0.724c-21.781,33.341-50.471,54.87-82.203,58.069  v-81.596c-13.607-7.095-26.376-15.568-38.078-25.297h-84.534c-10.482-29.368-16.804-63.101-17.647-99.097h35.048  c-1.749-5.413-3.27-10.924-4.592-16.516H124c0.843-35.995,7.165-69.729,17.647-99.097h12.809c1.322-5.591,2.842-11.103,4.592-16.516  h-10.869c11.735-26.893,27.197-49.158,45.12-64.943c5.739-7.44,11.923-14.518,18.572-21.137c-9.464,1.942-18.734,4.413-27.688,7.591  c-21.792,18.79-40.189,45.91-53.547,78.489H80.679c-3.774,5.332-7.308,10.84-10.593,16.516h54.333  c-10.095,29.802-16.069,63.434-16.881,99.097H41.499c-0.104,2.744-0.209,5.488-0.209,8.258c0,2.77,0.105,5.514,0.209,8.258h66.039  c0.813,35.662,6.786,69.295,16.881,99.097H70.086c3.285,5.676,6.819,11.184,10.593,16.516h49.956  c13.358,32.579,31.756,59.699,53.547,78.489c19.98,7.092,41.358,11.141,63.559,11.992v0.149c2.744,0.104,5.488,0.209,8.258,0.209  s5.514-0.105,8.258-0.209v-0.149c22.202-0.851,43.58-4.901,63.559-11.992c13.923-12.005,26.44-27.441,37.163-45.498  C364.436,371.576,363.9,371.613,363.355,371.613z M247.742,428.958c-41.072-4.139-77.101-38.899-99.564-90.377h99.564V428.958z"/>
<rect x="107.36" y="330.32" style="fill:#E6AF78;" width="33.03" height="33.03"/>
<path style="fill:#D29B6E;" d="M107.355,330.323v16.516c0,1.762-0.607,3.403-1.597,4.782c5.618,2.217,11.717,3.476,18.113,3.476  c6.397,0,12.495-1.259,18.113-3.476c-0.989-1.379-1.597-3.02-1.597-4.782v-16.516H107.355z"/>
<path style="fill:#D5DCED;" d="M164.29,363.894l-15.063-7.532c-6.059,7.328-25.356,6.993-25.356,6.993s-19.297,0.336-25.356-6.993  l-15.063,7.532c-5.595,2.798-9.13,8.517-9.13,14.772v48.023c0,17.934,5.309,35.468,15.257,50.39l1.26,1.889h66.067l1.261-1.892  c9.945-14.92,15.252-32.45,15.252-50.381v-48.028C173.419,372.41,169.885,366.692,164.29,363.894z"/>
<path style="fill:#7F8499;" d="M156.903,478.968H90.839v24.774c0,4.561,3.697,8.258,8.258,8.258h49.548  c4.561,0,8.258-3.697,8.258-8.258V478.968z"/>
<g>
	<path style="fill:#C7CFE2;" d="M90.839,478.968v-90.272c0-5.198-2.448-10.094-6.606-13.213l-7.401-5.551   c-1.605,2.574-2.509,5.583-2.509,8.734v48.024c0,17.934,5.309,35.467,15.257,50.389L90.839,478.968z"/>
	<path style="fill:#C7CFE2;" d="M156.903,478.968v-90.272c0-5.198,2.448-10.094,6.606-13.213l7.401-5.551   c1.605,2.574,2.509,5.583,2.509,8.734v48.024c0,17.934-5.309,35.467-15.257,50.389L156.903,478.968z"/>
	<path style="fill:#C7CFE2;" d="M142.191,347.491c-0.549-0.692-1.578-0.753-2.205-0.131l-16.115,15.995l-16.115-15.995   c-0.627-0.622-1.656-0.561-2.205,0.131l-7.036,8.871l11.173,13.92c1.271,1.584,3.593,1.821,5.158,0.528l4.895-4.044v112.202H128   V366.766l4.895,4.044c1.566,1.293,3.887,1.056,5.158-0.528l11.173-13.92L142.191,347.491z"/>
</g>
<path style="fill:#707487;" d="M123.871,495.484c-2.281,0-4.129,1.848-4.129,4.129V512H128v-12.387  C128,497.332,126.151,495.484,123.871,495.484z"/>
<path style="fill:#F0C087;" d="M123.871,338.581L123.871,338.581c-18.243,0-33.032-14.789-33.032-33.032v-16.516  c0-13.682,11.092-24.774,24.774-24.774h16.516c13.682,0,24.774,11.092,24.774,24.774v16.516  C156.903,323.792,142.114,338.581,123.871,338.581z"/>
<path style="fill:#E6AF78;" d="M115.613,305.548v-16.516c0-12.268,8.939-22.383,20.645-24.358c-1.35-0.228-2.715-0.416-4.129-0.416  h-16.516c-13.682,0-24.774,11.092-24.774,24.774v16.516c0,18.243,14.789,33.032,33.032,33.032c4.388,0,8.556-0.896,12.387-2.45  C124.162,331.226,115.613,319.404,115.613,305.548z"/>
<path style="fill:#694B4B;" d="M90.839,289.032c0,0,24.774,8.258,66.064,8.258v-8.258c0-13.682-11.092-24.774-24.774-24.774h-16.516  C101.931,264.258,90.839,275.35,90.839,289.032L90.839,289.032z"/>
<path style="fill:#5A4146;" d="M115.613,289.032c0-12.268,8.939-22.383,20.645-24.358c-1.35-0.228-2.715-0.416-4.129-0.416h-16.516  c-13.682,0-24.774,11.092-24.774,24.774c0,0,8.882,2.937,24.774,5.308V289.032z"/>
<rect x="239.48" y="330.32" style="fill:#E6AF78;" width="33.03" height="33.03"/>
<path style="fill:#D29B6E;" d="M239.484,330.323v16.516c0,1.762-0.607,3.403-1.597,4.782c5.618,2.217,11.717,3.476,18.113,3.476  c6.396,0,12.495-1.259,18.113-3.476c-0.989-1.379-1.597-3.02-1.597-4.782v-16.516H239.484z"/>
<path style="fill:#959CB5;" d="M296.419,363.894l-15.063-7.532c-6.059,7.328-25.356,6.993-25.356,6.993s-19.297,0.336-25.356-6.993  l-15.063,7.532c-5.595,2.798-9.13,8.517-9.13,14.772v48.023c0,17.934,5.309,35.468,15.257,50.39l1.26,1.889h66.067l1.261-1.892  c9.945-14.92,15.252-32.45,15.252-50.381v-48.028C305.548,372.41,302.014,366.692,296.419,363.894z"/>
<path style="fill:#707487;" d="M289.032,478.968h-66.065v24.774c0,4.561,3.697,8.258,8.258,8.258h49.548  c4.561,0,8.258-3.697,8.258-8.258v-24.774H289.032z"/>
<g>
	<path style="fill:#7F8499;" d="M222.968,478.968v-90.272c0-5.198-2.448-10.094-6.606-13.213l-7.401-5.551   c-1.605,2.574-2.509,5.583-2.509,8.734v48.024c0,17.934,5.309,35.467,15.257,50.389L222.968,478.968z"/>
	<path style="fill:#7F8499;" d="M289.032,478.968v-90.272c0-5.198,2.448-10.094,6.606-13.213l7.401-5.551   c1.605,2.574,2.509,5.583,2.509,8.734v48.024c0,17.934-5.309,35.467-15.257,50.389L289.032,478.968z"/>
	<path style="fill:#7F8499;" d="M274.32,347.491c-0.549-0.692-1.578-0.753-2.205-0.131L256,363.355l-16.115-15.995   c-0.627-0.622-1.656-0.561-2.205,0.131l-7.036,8.871l11.173,13.92c1.271,1.584,3.593,1.821,5.158,0.528l4.895-4.044v112.202h8.258   V366.766l4.895,4.044c1.566,1.293,3.887,1.056,5.158-0.528l11.173-13.92L274.32,347.491z"/>
</g>
<path style="fill:#5B5D6E;" d="M256,495.484c-2.281,0-4.129,1.848-4.129,4.129V512h8.258v-12.387  C260.129,497.332,258.28,495.484,256,495.484z"/>
<path style="fill:#F0C087;" d="M256,338.581L256,338.581c-18.243,0-33.032-14.789-33.032-33.032v-16.516  c0-13.682,11.092-24.774,24.774-24.774h16.516c13.682,0,24.774,11.092,24.774,24.774v16.516  C289.032,323.792,274.243,338.581,256,338.581z"/>
<path style="fill:#E6AF78;" d="M247.742,305.548v-16.516c0-12.268,8.938-22.383,20.645-24.358c-1.35-0.228-2.715-0.416-4.129-0.416  h-16.516c-13.682,0-24.774,11.092-24.774,24.774v16.516c0,18.243,14.789,33.032,33.032,33.032c4.388,0,8.556-0.896,12.387-2.45  C256.291,331.226,247.742,319.404,247.742,305.548z"/>
<path style="fill:#694B4B;" d="M222.968,289.032c0,0,24.774,8.258,66.064,8.258v-8.258c0-13.682-11.092-24.774-24.774-24.774  h-16.516C234.06,264.258,222.968,275.35,222.968,289.032L222.968,289.032z"/>
<path style="fill:#5A4146;" d="M247.742,289.032c0-12.268,8.938-22.383,20.645-24.358c-1.35-0.228-2.715-0.416-4.129-0.416h-16.516  c-13.682,0-24.774,11.092-24.774,24.774c0,0,8.882,2.937,24.774,5.308L247.742,289.032L247.742,289.032z"/>
<rect x="371.61" y="330.32" style="fill:#E6AF78;" width="33.03" height="33.03"/>
<path style="fill:#D29B6E;" d="M371.613,330.323v16.516c0,1.762-0.607,3.403-1.597,4.782c5.618,2.217,11.717,3.476,18.113,3.476  s12.495-1.259,18.113-3.476c-0.989-1.379-1.597-3.02-1.597-4.782v-16.516H371.613z"/>
<path style="fill:#D5DCED;" d="M428.548,363.894l-15.063-7.532c-6.059,7.328-25.356,6.993-25.356,6.993s-19.297,0.336-25.356-6.993  l-15.063,7.532c-5.595,2.798-9.13,8.517-9.13,14.772v48.023c0,17.934,5.309,35.468,15.257,50.39l1.26,1.889h66.067l1.261-1.892  c9.945-14.92,15.252-32.45,15.252-50.381v-48.028C437.677,372.41,434.143,366.692,428.548,363.894z"/>
<path style="fill:#7F8499;" d="M421.161,478.968h-66.065v24.774c0,4.561,3.697,8.258,8.258,8.258h49.548  c4.561,0,8.258-3.697,8.258-8.258v-24.774H421.161z"/>
<g>
	<path style="fill:#C7CFE2;" d="M355.097,478.968v-90.272c0-5.198-2.448-10.094-6.606-13.213l-7.401-5.551   c-1.605,2.574-2.509,5.583-2.509,8.734v48.024c0,17.934,5.309,35.467,15.257,50.389L355.097,478.968z"/>
	<path style="fill:#C7CFE2;" d="M421.161,478.968v-90.272c0-5.198,2.448-10.094,6.606-13.213l7.401-5.551   c1.605,2.574,2.509,5.583,2.509,8.734v48.024c0,17.934-5.309,35.467-15.257,50.389L421.161,478.968z"/>
	<path style="fill:#C7CFE2;" d="M406.449,347.491c-0.549-0.692-1.578-0.753-2.205-0.131l-16.115,15.995l-16.115-15.995   c-0.627-0.622-1.656-0.561-2.205,0.131l-7.036,8.871l11.173,13.92c1.271,1.584,3.593,1.821,5.158,0.528l4.895-4.044v112.202h8.258   V366.766l4.895,4.044c1.566,1.293,3.887,1.056,5.158-0.528l11.173-13.92L406.449,347.491z"/>
</g>
<path style="fill:#707487;" d="M388.129,495.484c-2.281,0-4.129,1.848-4.129,4.129V512h8.258v-12.387  C392.258,497.332,390.409,495.484,388.129,495.484z"/>
<path style="fill:#F0C087;" d="M388.129,338.581L388.129,338.581c-18.243,0-33.032-14.789-33.032-33.032v-16.516  c0-13.682,11.092-24.774,24.774-24.774h16.516c13.682,0,24.774,11.092,24.774,24.774v16.516  C421.161,323.792,406.372,338.581,388.129,338.581z"/>
<path style="fill:#E6AF78;" d="M379.871,305.548v-16.516c0-12.268,8.939-22.383,20.645-24.358c-1.35-0.228-2.715-0.416-4.129-0.416  h-16.516c-13.682,0-24.774,11.092-24.774,24.774v16.516c0,18.243,14.789,33.032,33.032,33.032c4.388,0,8.556-0.896,12.387-2.45  C388.42,331.226,379.871,319.404,379.871,305.548z"/>
<path style="fill:#694B4B;" d="M355.097,289.032c0,0,24.774,8.258,66.064,8.258v-8.258c0-13.682-11.092-24.774-24.774-24.774  h-16.516C366.189,264.258,355.097,275.35,355.097,289.032L355.097,289.032z"/>
<path style="fill:#5A4146;" d="M379.871,289.032c0-12.268,8.939-22.383,20.645-24.358c-1.35-0.228-2.715-0.416-4.129-0.416h-16.516  c-13.682,0-24.774,11.092-24.774,24.774c0,0,8.882,2.937,24.774,5.308V289.032z"/>
<g>
</g>
<g>
</g>
<g>
</g>
<g>
</g>
<g>
</g>
<g>
</g>
<g>
</g>
<g>
</g>
<g>
</g>
<g>
</g>
<g>
</g>
<g>
</g>
<g>
</g>
<g>
</g>
<g>
</g>
</svg>
