<?xml version="1.0" encoding="iso-8859-1"?>
<!-- Generator: Adobe Illustrator 19.0.0, SVG Export Plug-In . SVG Version: 6.00 Build 0)  -->
<svg xmlns="http://www.w3.org/2000/svg" xmlns:xlink="http://www.w3.org/1999/xlink" version="1.1" id="Layer_1" x="0px" y="0px" viewBox="0 0 512 512" style="enable-background:new 0 0 512 512;" xml:space="preserve">
<circle style="fill:#00C3FF;" cx="256" cy="214.71" r="214.71"/>
<path style="fill:#00AAF0;" d="M363.355,371.613c-118.581,0-214.71-96.129-214.71-214.71c0-59.595,24.292-113.506,63.499-152.407  C114.599,24.744,41.29,111.16,41.29,214.71c0,118.581,96.129,214.71,214.71,214.71c58.986,0,112.404-23.799,151.211-62.303  C393.051,370.055,378.386,371.613,363.355,371.613z"/>
<path style="fill:#E4EAF8;" d="M470.501,222.968c0.104-2.744,0.209-5.488,0.209-8.258c0-2.77-0.105-5.514-0.209-8.258h-66.039  c-0.813-35.662-6.786-69.295-16.881-99.097h54.333c-3.285-5.676-6.819-11.184-10.593-16.516h-49.956  C368.007,58.26,349.609,31.14,327.818,12.35c-19.98-7.092-41.358-11.141-63.559-11.992V0.209C261.514,0.105,258.77,0,256,0  s-5.514,0.105-8.258,0.209v0.149c-22.202,0.851-43.58,4.901-63.559,11.992c-21.792,18.79-40.189,45.91-53.547,78.489H80.679  c-3.774,5.332-7.308,10.84-10.593,16.516h54.333c-10.095,29.802-16.069,63.434-16.881,99.097H41.499  c-0.104,2.744-0.209,5.488-0.209,8.258c0,2.77,0.105,5.514,0.209,8.258h66.039c0.813,35.662,6.786,69.295,16.881,99.097H70.086  c3.285,5.676,6.819,11.184,10.593,16.516h49.956c13.358,32.579,31.756,59.699,53.547,78.489  c19.98,7.092,41.358,11.141,63.559,11.992v0.149c2.744,0.104,5.488,0.209,8.258,0.209s5.514-0.105,8.258-0.209v-0.149  c22.202-0.851,43.58-4.901,63.559-11.992c21.792-18.79,40.189-45.91,53.547-78.489h49.956c3.774-5.332,7.308-10.84,10.593-16.516  h-54.333c10.095-29.802,16.069-63.434,16.881-99.097H470.501z M388,206.452H264.258v-99.097h106.095  C380.835,136.723,387.157,170.456,388,206.452z M363.822,90.839h-99.564V0.462C305.33,4.601,341.359,39.361,363.822,90.839z   M247.742,0.462v90.377h-99.564C170.641,39.361,206.67,4.601,247.742,0.462z M141.647,107.355h106.095v99.097H124  C124.843,170.456,131.165,136.723,141.647,107.355z M124,222.968h123.742v99.097H141.647  C131.165,292.697,124.843,258.963,124,222.968z M148.178,338.581h99.564v90.377C206.67,424.819,170.641,390.058,148.178,338.581z   M264.258,428.958v-90.377h99.564C341.359,390.058,305.33,424.819,264.258,428.958z M370.353,322.065H264.258v-99.097H388  C387.157,258.963,380.835,292.697,370.353,322.065z"/>
<g>
	<path style="fill:#D5DCED;" d="M363.355,371.613c-5.692,0-11.314-0.289-16.894-0.724c-21.781,33.341-50.471,54.87-82.203,58.069   v-81.596c-13.607-7.095-26.376-15.568-38.078-25.297h-84.534c-10.482-29.368-16.804-63.101-17.647-99.097h35.048   c-1.749-5.413-3.27-10.924-4.592-16.516H124c0.843-35.995,7.165-69.729,17.647-99.097h12.809   c1.322-5.591,2.842-11.103,4.592-16.516h-10.869c11.735-26.893,27.197-49.158,45.12-64.943c5.739-7.44,11.923-14.518,18.572-21.137   c-9.464,1.942-18.734,4.413-27.688,7.591c-21.792,18.79-40.189,45.91-53.547,78.489H80.679c-3.774,5.332-7.308,10.84-10.593,16.516   h54.333c-10.095,29.802-16.069,63.434-16.881,99.097H41.499c-0.104,2.744-0.209,5.488-0.209,8.258c0,2.77,0.105,5.514,0.209,8.258   h66.039c0.813,35.662,6.786,69.295,16.881,99.097H70.086c3.285,5.676,6.819,11.184,10.593,16.516h49.956   c13.358,32.579,31.756,59.699,53.547,78.489c19.98,7.092,41.358,11.141,63.559,11.992v0.149c2.744,0.104,5.488,0.209,8.258,0.209   s5.514-0.105,8.258-0.209v-0.149c22.202-0.851,43.58-4.901,63.559-11.992c13.923-12.005,26.44-27.441,37.163-45.498   C364.436,371.576,363.9,371.613,363.355,371.613z M247.742,428.958c-41.072-4.139-77.101-38.899-99.564-90.377h99.564V428.958z"/>
	<path style="fill:#D5DCED;" d="M374.643,438.029l-69.095-25.125L256,429.419l-49.548-16.516l-69.095,25.125   c-13.054,4.747-21.744,17.153-21.744,31.043v34.67c0,4.56,3.697,8.258,8.258,8.258h264.258c4.561,0,8.258-3.698,8.258-8.258v-34.67   C396.387,455.182,387.698,442.776,374.643,438.029z"/>
</g>
<polygon style="fill:#5B5D6E;" points="247.349,445.935 239.484,512 272.516,512 264.651,445.935 "/>
<path style="fill:#464655;" d="M264.67,457.281h-17.34c-3.193,0-5.781-2.588-5.781-5.781v-22.081h28.901V451.5  C270.451,454.693,267.863,457.281,264.67,457.281z"/>
<path style="fill:#C7CFE2;" d="M387.498,446.566c5.576,5.985,8.889,13.956,8.889,22.506v34.67c0,4.561-3.697,8.258-8.258,8.258  h-41.29v-11.092c0-8.761,3.48-17.163,9.675-23.357L387.498,446.566z"/>
<path style="fill:#5A4146;" d="M346.839,242.599v-69.18c0-9.122-7.395-16.516-16.516-16.516h-99.097  c-36.486,0-66.065,29.578-66.065,66.065v19.631c0,8.876,1.431,17.694,4.238,26.114l2.749,8.247c0.842,2.526,1.271,5.172,1.271,7.834  v4.238H338.58v-4.238c0-2.663,0.429-5.308,1.271-7.834l2.749-8.247C345.408,260.293,346.839,251.475,346.839,242.599z"/>
<path style="fill:#694B4B;" d="M206.452,190.452C206.452,208.98,221.472,224,240,224h4.645l2.242,65.032h91.693v-4.238  c0-2.663,0.429-5.308,1.271-7.834l2.749-8.247c2.807-8.42,4.238-17.238,4.238-26.114V173.42c0-9.122-7.395-16.516-16.516-16.516H240  C221.472,156.903,206.452,171.923,206.452,190.452z"/>
<rect x="206.45" y="355.1" style="fill:#E6AF78;" width="99.1" height="74.32"/>
<path style="fill:#D29B6E;" d="M206.452,383.021c14.588,8.451,31.477,13.366,49.548,13.366c18.071,0,34.961-4.915,49.548-13.366  v-27.924h-99.097v27.924H206.452z"/>
<g>
	<path style="fill:#C7CFE2;" d="M256,429.419l-26.338,26.338c-3.54,3.54-9.391,3.141-12.417-0.847l-27.309-35.984l7.143-15.053   c2.108-4.442,7.606-6.07,11.792-3.49L256,429.419z"/>
	<path style="fill:#C7CFE2;" d="M256,429.419l26.338,26.338c3.54,3.54,9.391,3.141,12.417-0.847l27.309-35.984l-7.143-15.053   c-2.108-4.442-7.606-6.07-11.792-3.49L256,429.419z"/>
</g>
<path style="fill:#F0C087;" d="M256,379.871L256,379.871c-45.608,0-82.581-36.973-82.581-82.581v-9.675  c0-4.38,1.74-8.581,4.837-11.679l6.841-6.841c3.097-3.097,4.837-7.298,4.837-11.679V237.62c0-3.824,2.568-7.146,6.289-8.025  c19.531-4.613,80.308-15.54,121.669,14.88c2.686,1.975,4.171,5.22,4.171,8.554v4.387c0,4.38,1.74,8.581,4.837,11.679l6.841,6.841  c3.097,3.097,4.837,7.298,4.837,11.679v9.675C338.581,342.898,301.608,379.871,256,379.871z"/>
<path style="fill:#E6AF78;" d="M317.893,244.475c-29.09-21.395-67.731-22.321-94.925-19.392  c-11.471,1.235-20.949,3.144-26.743,4.512c-3.721,0.879-6.289,4.201-6.289,8.025v19.795c0,4.381-1.74,8.582-4.838,11.68  l-6.841,6.841c-3.098,3.098-4.838,7.299-4.838,11.68v9.674c0,42.224,31.71,76.985,72.602,81.92  c-14.249-14.839-23.054-34.948-23.054-57.146v-60.361c0-8.369,6.223-15.363,14.526-16.404c19.818-2.485,56.116-3.979,84.57,12.118  v-4.388C322.065,249.696,320.577,246.45,317.893,244.475z"/>
<path style="fill:#C7CFE2;" d="M124.502,446.566c-5.576,5.985-8.889,13.956-8.889,22.506v34.67c0,4.561,3.697,8.258,8.258,8.258  h41.29v-11.092c0-8.761-3.48-17.163-9.675-23.357L124.502,446.566z"/>
<g>
</g>
<g>
</g>
<g>
</g>
<g>
</g>
<g>
</g>
<g>
</g>
<g>
</g>
<g>
</g>
<g>
</g>
<g>
</g>
<g>
</g>
<g>
</g>
<g>
</g>
<g>
</g>
<g>
</g>
</svg>
