<?xml version="1.0" encoding="iso-8859-1"?>
<!-- Generator: Adobe Illustrator 19.0.0, SVG Export Plug-In . SVG Version: 6.00 Build 0)  -->
<svg xmlns="http://www.w3.org/2000/svg" xmlns:xlink="http://www.w3.org/1999/xlink" version="1.1" id="Layer_1" x="0px" y="0px" viewBox="0 0 512 512" style="enable-background:new 0 0 512 512;" xml:space="preserve">
<rect x="185.236" y="277.3" transform="matrix(-0.7071 -0.7071 0.7071 -0.7071 105.9029 678.5955)" style="fill:#707487;" width="16.514" height="80.129"/>
<path style="fill:#5B5D6E;" d="M198.018,301.16c3.706,4.075,7.607,7.965,11.65,11.705l17.993-17.993l-11.677-11.677L198.018,301.16z  "/>
<circle style="fill:#AFB9D2;" cx="338.58" cy="173.42" r="173.42"/>
<circle style="fill:#959CB5;" cx="338.58" cy="173.42" r="156.9"/>
<circle style="fill:#FFFFFF;" cx="338.58" cy="173.42" r="140.39"/>
<path style="fill:#E2E7F2;" d="M374.037,229.073c-45.735-8.805-82.344-45.434-91.123-91.174  c-2.749-14.325-2.763-28.236-0.538-41.386c1.812-10.705-10.896-17.758-19.132-10.683c-28.804,24.747-45.289,63.397-38.913,105.597  c7.43,49.183,47.057,88.81,96.241,96.241c42.2,6.375,80.85-10.109,105.597-38.913c7.075-8.234,0.024-20.944-10.68-19.133  C402.318,231.852,388.385,231.835,374.037,229.073z"/>
<path style="fill:#785353;" d="M173.419,373.617L42.292,504.744c-9.675,9.675-25.361,9.675-35.036,0l0,0  c-9.675-9.675-9.675-25.361,0-35.036l131.127-131.127c9.675-9.675,25.361-9.675,35.036,0l0,0  C183.094,348.256,183.094,363.942,173.419,373.617z"/>
<path style="fill:#8C5F5F;" d="M158.373,353.061c-1.04,0.753-2.035,1.598-2.973,2.537L24.273,486.725  c-0.939,0.939-1.784,1.933-2.536,2.973c-7.869,10.872,6.71,25.451,17.583,17.582c1.04-0.753,2.034-1.598,2.973-2.536L173.42,373.617  c0.939-0.939,1.784-1.933,2.536-2.973C183.825,359.771,169.245,345.193,158.373,353.061z"/>
<path style="fill:#959CB5;" d="M166.163,380.872l7.256-7.256c9.675-9.675,9.675-25.361,0-35.036c-9.675-9.675-25.361-9.675-35.036,0  l-7.257,7.256L166.163,380.872z"/>
<path style="fill:#AFB9D2;" d="M158.373,353.061c-1.04,0.753-2.035,1.598-2.973,2.537l-7.256,7.256l18.019,18.019l7.256-7.256  c1.072-1.072,1.979-2.241,2.813-3.445C183.366,359.355,169.091,345.304,158.373,353.061z"/>
<ellipse style="fill:#785550;" cx="338.58" cy="94.97" rx="33.03" ry="28.903"/>
<path style="fill:#694B4B;" d="M330.323,94.968c0-12.123,8.549-22.468,20.645-26.76c-3.831-1.359-8-2.143-12.387-2.143  c-18.243,0-33.032,12.941-33.032,28.903s14.789,28.903,33.032,28.903c4.388,0,8.556-0.784,12.387-2.143  C338.872,117.436,330.323,107.091,330.323,94.968z"/>
<path style="fill:#E6AF78;" d="M399.208,259.362l-26.724-13.361c-5.596-2.798-9.131-8.518-9.131-14.774l0.002-24.775h-49.548v24.775  c0,6.256-3.535,11.975-9.13,14.773l-26.724,13.362c-8.393,4.197-13.694,12.775-13.694,22.158v10.843  c21.572,13.509,46.993,21.443,74.323,21.443s52.75-7.934,74.323-21.443v-10.842C412.903,272.137,407.601,263.558,399.208,259.362z"/>
<path style="fill:#D29B6E;" d="M338.581,239.484c8.892,0,17.409-1.833,25.217-5.096c-0.205-1.041-0.444-2.076-0.444-3.161  l0.001-24.775h-49.548v24.776c0,1.091-0.239,2.131-0.446,3.176C321.173,237.65,329.686,239.484,338.581,239.484z"/>
<circle style="fill:#5A4146;" cx="338.58" cy="148.65" r="57.806"/>
<path style="fill:#694B4B;" d="M395.845,140.632c-3.177-23.557-21.225-43.251-44.436-48.376c-4.234-0.935-8.402-1.39-12.468-1.415  c-27.695-0.173-36.943,38.067-12.046,50.198c1.339,0.652,2.187,0.945,2.187,0.945l28.767,52.082c0,0,7.665,0.524,15.396,0.762  C389.228,182.81,398.83,162.767,395.845,140.632z"/>
<path style="fill:#F0C087;" d="M338.581,222.968L338.581,222.968c-25.192,0-45.992-18.8-49.137-43.135  c-0.456-3.525,1.239-6.983,4.413-8.584c3.802-1.918,9.327-5.152,14.617-9.872c5.891-5.256,9.347-10.799,11.299-14.868  c1.681-3.504,5.545-5.486,9.311-4.525c29.076,7.416,48.871,22.543,56.053,28.719c1.928,1.658,3.039,4.103,2.841,6.639  C385.977,202.873,364.626,222.968,338.581,222.968z"/>
<path style="fill:#E6AF78;" d="M385.136,170.702c-7.181-6.176-26.977-21.303-56.053-28.719c-3.766-0.961-7.63,1.021-9.311,4.525  c-1.478,3.082-3.921,7.008-7.546,11.016c-0.001,0.01-0.004,0.018-0.005,0.028c-1.125,1.275-2.323,2.553-3.747,3.825  c-5.29,4.721-10.815,7.954-14.617,9.872c-3.174,1.601-4.868,5.059-4.413,8.585c2.825,21.855,19.927,39.254,41.625,42.571  c-9.887-6.726-17.262-15.978-17.262-32.468V178.16c1.876-1.385,3.765-2.766,5.663-4.46c4.59-4.096,8.597-8.833,11.81-13.933  c22.243,6.941,37.323,18.502,43.04,23.418c1.565,1.372,5.449,4.952,9.993,9.215c1.955-4.705,3.248-9.753,3.663-15.058  C388.175,174.805,387.064,172.36,385.136,170.702z"/>
<path style="fill:#8C5F5F;" d="M399.208,259.362l-19.038-9.519c-8.828,13.632-24.139,22.673-41.589,22.673  c-17.45,0-32.762-9.041-41.59-22.674l-19.038,9.52c-8.393,4.197-13.695,12.775-13.695,22.159v10.843  c21.572,13.509,46.993,21.443,74.323,21.443s52.75-7.934,74.323-21.443v-10.842C412.903,272.137,407.601,263.558,399.208,259.362z"/>
<g>
	<path style="fill:#785353;" d="M269.292,266.634c-3.181,4.221-5.034,9.401-5.034,14.887v10.843   c10.227,6.405,21.262,11.632,33.032,15.249V296.97c0-5.017-2.281-9.763-6.199-12.897L269.292,266.634z"/>
	<path style="fill:#785353;" d="M386.07,284.073c-3.918,3.135-6.199,7.88-6.199,12.897v10.642   c11.77-3.617,22.805-8.844,33.032-15.249V281.52c0-5.485-1.853-10.666-5.034-14.887L386.07,284.073z"/>
</g>
<g>
</g>
<g>
</g>
<g>
</g>
<g>
</g>
<g>
</g>
<g>
</g>
<g>
</g>
<g>
</g>
<g>
</g>
<g>
</g>
<g>
</g>
<g>
</g>
<g>
</g>
<g>
</g>
<g>
</g>
</svg>
