<?xml version="1.0" encoding="iso-8859-1"?>
<!-- Generator: Adobe Illustrator 19.0.0, SVG Export Plug-In . SVG Version: 6.00 Build 0)  -->
<svg xmlns="http://www.w3.org/2000/svg" xmlns:xlink="http://www.w3.org/1999/xlink" version="1.1" id="Layer_1" x="0px" y="0px" viewBox="0 0 511.996 511.996" style="enable-background:new 0 0 511.996 511.996;" xml:space="preserve">
<circle style="fill:#FF507D;" cx="255.998" cy="495.48" r="16.516"/>
<circle style="fill:#FFDC64;" cx="99.098" cy="495.48" r="16.516"/>
<circle style="fill:#B4E66E;" cx="412.898" cy="495.48" r="16.516"/>
<path style="fill:#D5DCED;" d="M390.127,449.395l-45.677-63.952c-6.185-8.661-16.234-13.831-26.879-13.831h-53.315v-8.258  c0-4.56-3.694-8.258-8.258-8.258s-8.258,3.698-8.258,8.258v8.258h-53.315c-10.645,0-20.694,5.169-26.879,13.835l-45.677,63.948  c-2.653,3.71-1.79,8.867,1.919,11.52c3.71,2.645,8.871,1.79,11.516-1.923l45.677-63.944c3.097-4.335,8.121-6.919,13.444-6.919  h53.315v57.806c0,4.56,3.694,8.258,8.258,8.258s8.258-3.698,8.258-8.258v-57.806h53.315c5.323,0,10.347,2.585,13.444,6.915  l45.677,63.948c1.613,2.258,4.145,3.46,6.726,3.46c1.661,0,3.339-0.5,4.79-1.536C391.917,458.262,392.78,453.105,390.127,449.395z"/>
<rect x="222.968" y="198.19" style="fill:#E6AF78;" width="66.06" height="66.06"/>
<path style="fill:#D29B6E;" d="M222.966,224.308c10.121,4.425,21.28,6.917,33.032,6.917c11.753,0,22.911-2.492,33.032-6.917v-26.115  h-66.065L222.966,224.308L222.966,224.308z"/>
<ellipse style="fill:#785550;" cx="255.998" cy="33.03" rx="41.29" ry="33.03"/>
<path style="fill:#694B4B;" d="M245.028,31.981c0-13.498,9.12-25.057,22.24-30.578C263.663,0.581,259.933,0,255.998,0  c-22.804,0-41.29,14.789-41.29,33.032s18.486,33.032,41.29,33.032c5.177,0,10.082-0.85,14.648-2.242  C255.716,58.992,245.028,46.615,245.028,31.981z"/>
<circle style="fill:#5A4146;" cx="255.998" cy="115.61" r="82.58"/>
<path style="fill:#694B4B;" d="M337.75,103.74c-4.588-32.929-29.54-60.36-61.831-68.272c-5.547-1.359-11.012-2.124-16.359-2.358  c-31.807-1.391-47.603,38.596-22.903,58.685l0.237,0.19c0,0,23.658,80.166,35.675,104.541  C313.913,188.104,344.027,148.793,337.75,103.74z"/>
<path style="fill:#F0C087;" d="M255.998,214.71L255.998,214.71c-36.487,0-66.065-29.578-66.065-66.064v-3.681  c0-2.601,1.169-5.082,3.299-6.574c12.655-8.864,28.532-32.579,35.022-42.78c1.844-2.898,5.28-4.346,8.639-3.625  c19.87,4.261,85.169,20.395,85.169,48.401v8.258C322.063,185.132,292.484,214.71,255.998,214.71z"/>
<path style="fill:#707487;" d="M156.901,330.323h198.194c4.561,0,8.258-3.698,8.258-8.258v-33.449  c0-9.79-5.766-18.662-14.712-22.639l-49.802-22.135c-0.285-0.127-0.499-0.348-0.774-0.489l-42.067,21.759l-42.067-21.759  c-0.275,0.141-0.488,0.362-0.773,0.489l-49.802,22.135c-8.947,3.976-14.712,12.848-14.712,22.639v33.449  C148.643,326.625,152.34,330.323,156.901,330.323z"/>
<g>
	<path style="fill:#5B5D6E;" d="M155.734,271.349c-4.435,4.545-7.091,10.677-7.091,17.267v33.449c0,4.561,3.697,8.258,8.258,8.258   h33.032V312.39c0-4.38-1.74-8.581-4.837-11.679L155.734,271.349z"/>
	<path style="fill:#5B5D6E;" d="M356.262,271.349c4.435,4.545,7.091,10.677,7.091,17.267v33.449c0,4.561-3.697,8.258-8.258,8.258   h-33.032V312.39c0-4.38,1.74-8.581,4.837-11.679L356.262,271.349z"/>
	<path style="fill:#5B5D6E;" d="M303.324,245.856l-6.871-10.481c-1.668-2.544-5.212-2.998-7.468-0.958l-27.447,24.83   c-3.145,2.845-7.935,2.845-11.08,0l-27.447-24.83c-2.256-2.041-5.8-1.586-7.468,0.958l-6.871,10.481l16.678,30.459   c2.462,4.496,8.381,5.686,12.389,2.492l10.001-7.969v59.484h16.516v-59.484l10.001,7.969c4.008,3.194,9.928,2.003,12.389-2.492   L303.324,245.856z"/>
</g>
<path style="fill:#E6AF78;" d="M236.836,91.973c-3.338-0.715-6.712,0.696-8.543,3.577c-6.465,10.167-22.38,33.959-35.06,42.84  c-2.13,1.492-3.299,3.973-3.299,6.574v3.68c0,32.455,23.409,59.426,54.26,64.994c0.019-0.038,0-0.001,0.02-0.038  c-13.037-12.068-21.247-29.274-21.247-48.44v-25.095c0-5.478,1.893-10.741,5.174-15.129c3.168-4.237,6.199-8.554,9.001-12.728  c1.152-1.716,3.205-2.511,5.212-2.017c35.116,8.651,70.656,23.739,79.711,33.679v-3.484  C322.063,112.354,256.638,96.216,236.836,91.973z"/>
<g>
</g>
<g>
</g>
<g>
</g>
<g>
</g>
<g>
</g>
<g>
</g>
<g>
</g>
<g>
</g>
<g>
</g>
<g>
</g>
<g>
</g>
<g>
</g>
<g>
</g>
<g>
</g>
<g>
</g>
</svg>
