<?xml version="1.0" encoding="iso-8859-1"?>
<!-- Generator: Adobe Illustrator 19.0.0, SVG Export Plug-In . SVG Version: 6.00 Build 0)  -->
<svg xmlns="http://www.w3.org/2000/svg" xmlns:xlink="http://www.w3.org/1999/xlink" version="1.1" id="Layer_1" x="0px" y="0px" viewBox="0 0 512.002 512.002" style="enable-background:new 0 0 512.002 512.002;" xml:space="preserve">
<circle style="fill:#B4E66E;" cx="255.997" cy="256.007" r="167.998"/>
<circle style="fill:#C8FF82;" cx="255.997" cy="256.007" r="143.998"/>
<path style="fill:#5A4146;" d="M343.025,284.46c-8.355-22.139-14.983-60.196-16.414-80.01c-2.723-37.705-31.139-68.443-69.55-68.443  s-66.827,30.738-69.55,68.443c-1.431,19.814-8.058,57.871-16.414,80.01c-1.842,4.881,0.284,10.262,5.09,12.441  c8.954,4.058,28.044,12.007,51.066,15.104h59.614c22.916-3.104,42.138-11.057,51.066-15.104  C342.74,294.722,344.866,289.34,343.025,284.46z"/>
<path style="fill:#694B4B;" d="M337.935,296.9c4.805-2.178,6.932-7.56,5.089-12.441c-8.355-22.139-14.982-60.196-16.413-80.01  c-2.723-37.705-31.139-68.443-69.549-68.443c-0.097,0-0.193,0-0.29,0.001c-29.474,0.119-39.889,40.315-14.517,55.314  c1.524,0.901,2.5,1.334,2.5,1.334l22.223,119.348h19.891C309.785,308.899,329.007,300.947,337.935,296.9z"/>
<path style="fill:#E6AF78;" d="M343.999,357.87c0-11.111-6.278-21.268-16.216-26.237l-31.643-15.82  c-6.625-3.313-10.811-10.084-10.81-17.492l0.002-29.335h-58.665v29.335c0,7.407-4.185,14.178-10.809,17.49l-31.643,15.822  c-9.938,4.969-16.214,15.125-16.214,26.236v41.044c25.616,15.809,55.688,25.089,87.999,25.089s62.383-9.281,87.999-25.089  L343.999,357.87L343.999,357.87z"/>
<path style="fill:#7F8499;" d="M343.999,357.87c0-11.111-6.278-21.269-16.216-26.237l-22.542-11.271  C294.79,336.503,276.66,347.207,256,347.207c-20.662,0-38.79-10.705-49.242-26.847l-22.542,11.272  c-9.938,4.969-16.215,15.126-16.215,26.236v41.043C193.617,414.72,223.69,424,256,424s62.383-9.281,87.999-25.089V357.87z"/>
<path style="fill:#D29B6E;" d="M256,308.097c10.529,0,20.612-2.17,29.857-6.034c-0.243-1.232-0.526-2.458-0.526-3.743l0.002-29.334  h-58.665v29.335c0,1.291-0.283,2.523-0.528,3.76C235.391,305.925,245.469,308.097,256,308.097z"/>
<path style="fill:#F0C087;" d="M256.001,288.542L256.001,288.542c-29.828,0-54.455-22.26-58.179-51.072  c-0.539-4.174,1.467-8.268,5.225-10.164c4.502-2.271,11.043-6.1,17.307-11.689c6.975-6.224,11.067-12.786,13.378-17.604  c1.99-4.149,6.565-6.495,11.024-5.358c34.427,8.781,57.864,26.692,66.367,34.004c2.283,1.964,3.599,4.858,3.364,7.861  C312.119,264.749,286.838,288.542,256.001,288.542z"/>
<path style="fill:#E6AF78;" d="M311.123,226.659c-8.503-7.312-31.941-25.223-66.367-34.004c-4.459-1.137-9.034,1.209-11.024,5.358  c-1.75,3.649-4.642,8.298-8.935,13.043c-0.001,0.011-0.004,0.021-0.005,0.033c-1.332,1.51-2.75,3.023-4.437,4.528  c-6.264,5.59-12.805,9.417-17.307,11.689c-3.758,1.896-5.764,5.99-5.225,10.165c3.344,25.877,23.595,46.319,49.284,50.247  c-11.707-7.964-20.439-18.761-20.439-38.285v-13.943c2.221-1.639,4.457-3.275,6.706-5.281c5.434-4.85,10.179-10.459,13.983-16.498  c26.337,8.218,44.191,21.907,50.96,27.727c1.852,1.625,6.451,5.863,11.832,10.911c2.315-5.57,3.846-11.548,4.337-17.83  C314.72,231.517,313.406,228.622,311.123,226.659z"/>
<g>
	<path style="fill:#D5DCED;" d="M31.309,20l23.382,3.898c4.336,0.723,8.484-2.219,9.203-6.574c0.727-4.359-2.219-8.48-6.578-9.207   l-47.999-8C6.77-0.324,4.176,0.524,2.348,2.352s-2.656,4.422-2.234,6.973l8,47.999c0.648,3.91,4.039,6.684,7.883,6.684   c0.438,0,0.875-0.035,1.32-0.109c4.359-0.727,7.305-4.848,6.578-9.207l-3.894-23.376l86.346,86.346   c1.563,1.563,3.609,2.344,5.656,2.344c2.047,0,4.094-0.781,5.656-2.344c3.125-3.125,3.125-8.188,0-11.313L31.309,20z"/>
	<path style="fill:#D5DCED;" d="M399.998,120.006c2.047,0,4.094-0.781,5.656-2.344L492,31.316l-3.894,23.375   c-0.727,4.359,2.219,8.48,6.578,9.207c0.445,0.074,0.883,0.109,1.32,0.109c3.844,0,7.234-2.773,7.883-6.684l8-47.999   c0.422-2.551-0.406-5.145-2.234-6.973c-1.836-1.828-4.445-2.68-6.969-2.234l-47.999,8c-4.359,0.727-7.305,4.848-6.578,9.207   c0.719,4.355,4.836,7.301,9.203,6.574L480.692,20l-86.35,86.35c-3.125,3.125-3.125,8.188,0,11.313   C395.905,119.225,397.952,120.006,399.998,120.006z"/>
	<path style="fill:#D5DCED;" d="M503.888,454.688c-0.727-4.359-4.844-7.336-9.203-6.578c-4.359,0.727-7.305,4.852-6.578,9.203   l3.895,23.379l-86.347-86.347c-3.125-3.125-8.188-3.125-11.313,0c-3.125,3.125-3.125,8.188,0,11.313l86.347,86.347l-23.379-3.895   c-4.375-0.781-8.484,2.219-9.203,6.578c-0.727,4.352,2.219,8.477,6.578,9.203l47.999,8c0.438,0.07,0.875,0.109,1.313,0.109   c2.102,0,4.141-0.828,5.656-2.344c1.828-1.828,2.656-4.422,2.234-6.969L503.888,454.688z"/>
	<path style="fill:#D5DCED;" d="M106.346,394.346L20,480.693l3.895-23.379c0.727-4.352-2.219-8.477-6.578-9.203   c-4.344-0.766-8.484,2.219-9.203,6.578l-8,47.999c-0.422,2.547,0.406,5.141,2.234,6.969c1.516,1.516,3.555,2.344,5.656,2.344   c0.438,0,0.875-0.039,1.313-0.109l47.999-8c4.359-0.727,7.305-4.852,6.578-9.203c-0.719-4.359-4.859-7.352-9.203-6.578   l-23.379,3.895l86.347-86.347c3.125-3.125,3.125-8.188,0-11.313C114.534,391.222,109.471,391.221,106.346,394.346z"/>
</g>
<g>
	<path style="fill:#707487;" d="M312.229,360.892c-4.639,3.711-7.339,9.33-7.339,15.271v40.562   c13.917-4.229,26.982-10.326,39.11-17.812V357.87c0-6.495-2.194-12.628-5.961-17.626L312.229,360.892z"/>
	<path style="fill:#707487;" d="M173.962,340.243c-3.767,4.998-5.961,11.131-5.961,17.626v41.043   c12.129,7.485,25.194,13.583,39.11,17.812v-40.562c0-5.941-2.701-11.559-7.339-15.271L173.962,340.243z"/>
</g>
<g>
</g>
<g>
</g>
<g>
</g>
<g>
</g>
<g>
</g>
<g>
</g>
<g>
</g>
<g>
</g>
<g>
</g>
<g>
</g>
<g>
</g>
<g>
</g>
<g>
</g>
<g>
</g>
<g>
</g>
</svg>
