<?xml version="1.0" encoding="iso-8859-1"?>
<!-- Generator: Adobe Illustrator 19.0.0, SVG Export Plug-In . SVG Version: 6.00 Build 0)  -->
<svg xmlns="http://www.w3.org/2000/svg" xmlns:xlink="http://www.w3.org/1999/xlink" version="1.1" id="Layer_1" x="0px" y="0px" viewBox="0 0 512 512" style="enable-background:new 0 0 512 512;" xml:space="preserve">
<rect x="144" y="464" style="fill:#D29B6E;" width="224" height="16"/>
<g>
	<path style="fill:#E6AF78;" d="M256,512c-4.422,0-8-3.578-8-8V8c0-4.422,3.578-8,8-8s8,3.578,8,8v496   C264,508.422,260.422,512,256,512z"/>
	<path style="fill:#E6AF78;" d="M136.008,512c-0.492,0-1-0.047-1.508-0.141c-4.336-0.828-7.188-5.016-6.359-9.359l32-168   c0.828-4.336,4.969-7.18,9.359-6.359c4.336,0.828,7.187,5.016,6.359,9.359l-32,168C143.125,509.328,139.773,512,136.008,512z"/>
	<path style="fill:#E6AF78;" d="M375.992,512c-3.766,0-7.117-2.672-7.852-6.5l-32-168c-0.828-4.344,2.023-8.531,6.359-9.359   c4.406-0.797,8.531,2.031,9.359,6.359l32,168c0.828,4.344-2.023,8.531-6.359,9.359C376.992,511.953,376.484,512,375.992,512z"/>
</g>
<g>
	<rect x="248" y="328" style="fill:#D29B6E;" width="16" height="32"/>
	<path style="fill:#D29B6E;" d="M169.5,328.141c-4.391-0.82-8.531,2.023-9.359,6.359l-4.857,25.5h16.29l4.286-22.5   C176.687,333.156,173.836,328.969,169.5,328.141z"/>
	<path style="fill:#D29B6E;" d="M351.859,334.5c-0.828-4.328-4.953-7.156-9.359-6.359c-4.336,0.828-7.188,5.016-6.359,9.359   l4.286,22.5h16.29L351.859,334.5z"/>
</g>
<path style="fill:#E2E7F2;" d="M120,56v280c0,4.418,3.582,8,8,8h256c4.418,0,8-3.582,8-8V56H120z"/>
<rect x="120" y="56" style="fill:#C7CFE2;" width="272" height="24"/>
<path style="fill:#F0C087;" d="M400,32H112c-4.418,0-8,3.582-8,8v16c0,4.418,3.582,8,8,8h288c4.418,0,8-3.582,8-8V40  C408,35.582,404.418,32,400,32z"/>
<path style="fill:#A0D755;" d="M352,126h-40c-5.523,0-10,4.477-10,10s4.477,10,10,10h15.859L260,213.859l-15.273-15.273  c-7.016-7.016-18.438-7.016-25.453,0L152.93,264.93c-3.906,3.906-3.906,10.234,0,14.141c1.953,1.953,4.508,2.93,7.07,2.93  s5.117-0.977,7.07-2.93l64.93-64.93l15.273,15.273c7.016,7.016,18.438,7.016,25.453,0L342,160.141V176c0,5.523,4.477,10,10,10  s10-4.477,10-10v-40C362,130.477,357.523,126,352,126z"/>
<path style="fill:#E6AF78;" d="M400,64H112c-4.418,0-8-3.582-8-8l0,0c0-4.418,3.582-8,8-8h288c4.418,0,8,3.582,8,8l0,0  C408,60.418,404.418,64,400,64z"/>
<g>
</g>
<g>
</g>
<g>
</g>
<g>
</g>
<g>
</g>
<g>
</g>
<g>
</g>
<g>
</g>
<g>
</g>
<g>
</g>
<g>
</g>
<g>
</g>
<g>
</g>
<g>
</g>
<g>
</g>
</svg>
