<?xml version="1.0" encoding="iso-8859-1"?>
<!-- Generator: Adobe Illustrator 19.0.0, SVG Export Plug-In . SVG Version: 6.00 Build 0)  -->
<svg xmlns="http://www.w3.org/2000/svg" xmlns:xlink="http://www.w3.org/1999/xlink" version="1.1" id="Layer_1" x="0px" y="0px" viewBox="0 0 512 512" style="enable-background:new 0 0 512 512;" xml:space="preserve">
<g>
	<path style="fill:#B4E66E;" d="M487.226,9.474h-214.71c-13.682,0-24.774,11.092-24.774,24.774v49.548   c0,13.682,11.092,24.774,24.774,24.774h132.129l49.576,37.182c5.96,4.47,14.325-0.615,13.101-7.964l-4.87-29.218h24.774   c13.682,0,24.774-11.092,24.774-24.774V34.248C512,20.566,500.908,9.474,487.226,9.474z"/>
	<path style="fill:#B4E66E;" d="M487.226,290.248H305.548c-13.682,0-24.774,11.092-24.774,24.774v16.516   c0,13.682,11.092,24.774,24.774,24.774h99.097l49.576,37.182c5.96,4.47,14.325-0.615,13.101-7.964l-4.87-29.218h24.774   c13.682,0,24.774-11.092,24.774-24.774v-16.516C512,301.34,500.908,290.248,487.226,290.248z"/>
</g>
<g>
	<path style="fill:#E2E7F2;" d="M24.774,364.571h198.194c13.682,0,24.774,11.092,24.774,24.774v49.548   c0,13.682-11.092,24.774-24.774,24.774H107.355L57.78,500.849c-5.96,4.47-14.325-0.615-13.101-7.964l4.87-29.218H24.774   C11.092,463.667,0,452.576,0,438.893v-49.548C0,375.662,11.092,364.571,24.774,364.571z"/>
	<path style="fill:#E2E7F2;" d="M24.774,141.603h214.71c13.682,0,24.774,11.092,24.774,24.774v82.581   c0,13.682-11.092,24.774-24.774,24.774H107.355L57.78,310.914c-5.96,4.47-14.325-0.615-13.101-7.964l4.87-29.218H24.774   C11.092,273.732,0,262.64,0,248.958v-82.581C0,152.695,11.092,141.603,24.774,141.603z"/>
</g>
<path style="fill:#707487;" d="M462.452,50.764h-99.097c-4.565,0-8.258-3.698-8.258-8.258s3.694-8.258,8.258-8.258h99.097  c4.565,0,8.258,3.698,8.258,8.258S467.016,50.764,462.452,50.764z"/>
<g>
	<path style="fill:#5B5D6E;" d="M330.323,50.764H297.29c-4.565,0-8.258-3.698-8.258-8.258s3.694-8.258,8.258-8.258h33.032   c4.565,0,8.258,3.698,8.258,8.258S334.887,50.764,330.323,50.764z"/>
	<path style="fill:#5B5D6E;" d="M462.452,83.797h-16.516c-4.565,0-8.258-3.698-8.258-8.258s3.694-8.258,8.258-8.258h16.516   c4.565,0,8.258,3.698,8.258,8.258S467.016,83.797,462.452,83.797z"/>
</g>
<path style="fill:#707487;" d="M412.903,83.797H297.29c-4.565,0-8.258-3.698-8.258-8.258s3.694-8.258,8.258-8.258h115.613  c4.565,0,8.258,3.698,8.258,8.258S417.468,83.797,412.903,83.797z"/>
<path style="fill:#7F8499;" d="M148.645,405.861H49.548c-4.565,0-8.258-3.698-8.258-8.258s3.694-8.258,8.258-8.258h99.097  c4.565,0,8.258,3.698,8.258,8.258S153.21,405.861,148.645,405.861z"/>
<g>
	<path style="fill:#707487;" d="M198.194,405.861h-16.516c-4.565,0-8.258-3.698-8.258-8.258s3.694-8.258,8.258-8.258h16.516   c4.565,0,8.258,3.698,8.258,8.258S202.758,405.861,198.194,405.861z"/>
	<path style="fill:#707487;" d="M66.065,438.893H49.548c-4.565,0-8.258-3.698-8.258-8.258s3.694-8.258,8.258-8.258h16.516   c4.565,0,8.258,3.698,8.258,8.258S70.629,438.893,66.065,438.893z"/>
</g>
<path style="fill:#7F8499;" d="M198.194,438.893H99.097c-4.565,0-8.258-3.698-8.258-8.258s3.694-8.258,8.258-8.258h99.097  c4.565,0,8.258,3.698,8.258,8.258S202.758,438.893,198.194,438.893z"/>
<path style="fill:#707487;" d="M462.452,331.538h-82.581c-4.565,0-8.258-3.698-8.258-8.258s3.694-8.258,8.258-8.258h82.581  c4.565,0,8.258,3.698,8.258,8.258C470.71,327.841,467.016,331.538,462.452,331.538z"/>
<path style="fill:#5B5D6E;" d="M346.839,331.538h-16.516c-4.565,0-8.258-3.698-8.258-8.258s3.694-8.258,8.258-8.258h16.516  c4.565,0,8.258,3.698,8.258,8.258C355.097,327.841,351.403,331.538,346.839,331.538z"/>
<path style="fill:#7F8499;" d="M148.645,182.893H49.548c-4.565,0-8.258-3.698-8.258-8.258s3.694-8.258,8.258-8.258h99.097  c4.565,0,8.258,3.698,8.258,8.258S153.21,182.893,148.645,182.893z"/>
<path style="fill:#707487;" d="M214.71,182.893h-33.032c-4.565,0-8.258-3.698-8.258-8.258s3.694-8.258,8.258-8.258h33.032  c4.565,0,8.258,3.698,8.258,8.258S219.274,182.893,214.71,182.893z"/>
<path style="fill:#7F8499;" d="M148.645,248.958H49.548c-4.565,0-8.258-3.698-8.258-8.258s3.694-8.258,8.258-8.258h99.097  c4.565,0,8.258,3.698,8.258,8.258S153.21,248.958,148.645,248.958z"/>
<g>
	<path style="fill:#707487;" d="M214.71,248.958h-33.032c-4.565,0-8.258-3.698-8.258-8.258s3.694-8.258,8.258-8.258h33.032   c4.565,0,8.258,3.698,8.258,8.258S219.274,248.958,214.71,248.958z"/>
	<path style="fill:#707487;" d="M66.065,215.926H49.548c-4.565,0-8.258-3.698-8.258-8.258s3.694-8.258,8.258-8.258h16.516   c4.565,0,8.258,3.698,8.258,8.258S70.629,215.926,66.065,215.926z"/>
</g>
<path style="fill:#7F8499;" d="M214.71,215.926H99.097c-4.565,0-8.258-3.698-8.258-8.258s3.694-8.258,8.258-8.258H214.71  c4.565,0,8.258,3.698,8.258,8.258S219.274,215.926,214.71,215.926z"/>
<g>
</g>
<g>
</g>
<g>
</g>
<g>
</g>
<g>
</g>
<g>
</g>
<g>
</g>
<g>
</g>
<g>
</g>
<g>
</g>
<g>
</g>
<g>
</g>
<g>
</g>
<g>
</g>
<g>
</g>
</svg>
