<?xml version="1.0" encoding="iso-8859-1"?>
<!-- Generator: Adobe Illustrator 19.0.0, SVG Export Plug-In . SVG Version: 6.00 Build 0)  -->
<svg xmlns="http://www.w3.org/2000/svg" xmlns:xlink="http://www.w3.org/1999/xlink" version="1.1" id="Layer_1" x="0px" y="0px" viewBox="0 0 512 512" style="enable-background:new 0 0 512 512;" xml:space="preserve">
<path style="fill:#C7CFE2;" d="M478.968,83.693H82.581c-18.243,0-33.032,14.789-33.032,33.032v231.226  c0,18.243,14.789,33.032,33.032,33.032H214.71l139.434,95.402c6.209,4.248,14.401-1.342,12.71-8.672l-20.015-86.729h132.129  c18.243,0,33.032-14.789,33.032-33.032V116.725C512,98.482,497.211,83.693,478.968,83.693z"/>
<path style="fill:#AFB9D2;" d="M478.968,83.693H82.581c-18.243,0-33.032,14.789-33.032,33.032v231.226H429.42  c27.365,0,49.548-22.184,49.548-49.548L478.968,83.693L478.968,83.693z"/>
<path style="fill:#E2E7F2;" d="M429.419,34.144H33.032C14.789,34.144,0,48.934,0,67.177v231.226  c0,18.243,14.789,33.032,33.032,33.032h132.129l-20.015,86.73c-1.692,7.331,6.501,12.921,12.71,8.672l139.434-95.402h132.129  c18.243,0,33.032-14.789,33.032-33.032V67.177C462.452,48.934,447.663,34.144,429.419,34.144z"/>
<path style="fill:#7F8499;" d="M396.387,193.112H74.323c-5.702,0-10.323-4.621-10.323-10.323s4.621-10.323,10.323-10.323h322.065  c5.702,0,10.323,4.621,10.323,10.323S402.089,193.112,396.387,193.112z"/>
<path style="fill:#FF507D;" d="M280.774,151.822H74.323c-5.702,0-10.323-4.621-10.323-10.323s4.621-10.323,10.323-10.323h206.452  c5.702,0,10.323,4.621,10.323,10.323S286.476,151.822,280.774,151.822z"/>
<path style="fill:#D23C69;" d="M396.387,151.822h-82.581c-5.702,0-10.323-4.621-10.323-10.323s4.621-10.323,10.323-10.323h82.581  c5.702,0,10.323,4.621,10.323,10.323S402.089,151.822,396.387,151.822z"/>
<path style="fill:#707487;" d="M181.677,234.403H74.323c-5.702,0-10.323-4.621-10.323-10.323s4.621-10.323,10.323-10.323h107.355  c5.702,0,10.323,4.621,10.323,10.323C192,229.782,187.379,234.403,181.677,234.403z"/>
<path style="fill:#7F8499;" d="M396.387,234.403H231.226c-5.702,0-10.323-4.621-10.323-10.323s4.621-10.323,10.323-10.323h165.161  c5.702,0,10.323,4.621,10.323,10.323S402.089,234.403,396.387,234.403z"/>
<path style="fill:#D23C69;" d="M115.613,110.532h-41.29c-5.702,0-10.323-4.621-10.323-10.323c0-5.702,4.621-10.323,10.323-10.323  h41.29c5.702,0,10.323,4.621,10.323,10.323C125.935,105.911,121.315,110.532,115.613,110.532z"/>
<path style="fill:#FF507D;" d="M396.387,110.532H148.645c-5.702,0-10.323-4.621-10.323-10.323c0-5.702,4.621-10.323,10.323-10.323  h247.742c5.702,0,10.323,4.621,10.323,10.323C406.71,105.911,402.089,110.532,396.387,110.532z"/>
<path style="fill:#7F8499;" d="M313.806,275.693H74.323c-5.702,0-10.323-4.621-10.323-10.323s4.621-10.323,10.323-10.323h239.484  c5.702,0,10.323,4.621,10.323,10.323C324.129,271.072,319.508,275.693,313.806,275.693z"/>
<path style="fill:#707487;" d="M396.387,275.693h-49.548c-5.702,0-10.323-4.621-10.323-10.323s4.621-10.323,10.323-10.323h49.548  c5.702,0,10.323,4.621,10.323,10.323S402.089,275.693,396.387,275.693z"/>
<g>
</g>
<g>
</g>
<g>
</g>
<g>
</g>
<g>
</g>
<g>
</g>
<g>
</g>
<g>
</g>
<g>
</g>
<g>
</g>
<g>
</g>
<g>
</g>
<g>
</g>
<g>
</g>
<g>
</g>
</svg>
