<?xml version="1.0" encoding="iso-8859-1"?>
<!-- Generator: Adobe Illustrator 19.0.0, SVG Export Plug-In . SVG Version: 6.00 Build 0)  -->
<svg xmlns="http://www.w3.org/2000/svg" xmlns:xlink="http://www.w3.org/1999/xlink" version="1.1" id="Layer_1" x="0px" y="0px" viewBox="0 0 512 512" style="enable-background:new 0 0 512 512;" xml:space="preserve">
<path style="fill:#ECF0FA;" d="M495.484,371.612H16.516C7.395,371.612,0,364.217,0,355.096V74.322  C0,65.2,7.395,57.806,16.516,57.806h478.968c9.122,0,16.516,7.395,16.516,16.516v280.774  C512,364.217,504.605,371.612,495.484,371.612z"/>
<circle style="fill:#FF507D;" cx="256" cy="214.709" r="107.36"/>
<path style="fill:#FFFFFF;" d="M303.041,210.448l-72.831-40.462c-3.249-1.805-7.242,0.544-7.242,4.261v80.924  c0,3.717,3.993,6.066,7.242,4.261l72.831-40.462C306.384,217.113,306.384,212.305,303.041,210.448z"/>
<path style="fill:#F0C087;" d="M74.323,305.547v27.24c0,6.978,3.715,17.022,8.257,22.32l0.003,0.004  c5.328,6.216,8.257,14.133,8.257,22.32v2.44h33.032v-4.805c0-6.661,2.383-13.102,6.717-18.159l3.081-3.595  c3.695-4.31,6.717-12.482,6.717-18.159v-29.605c0-13.682-11.092-24.774-24.774-24.774H99.097  C85.414,280.773,74.323,291.865,74.323,305.547z"/>
<path style="fill:#E6AF78;" d="M103.227,355.11l-0.002-0.004c-2.271-5.298-4.129-15.342-4.129-22.32v-27.24  c0-13.682,5.546-24.774,12.387-24.774H99.097c-13.682,0-24.774,11.092-24.774,24.774v27.24c0,6.978,3.715,17.022,8.257,22.32  l0.003,0.004c5.328,6.216,8.257,14.133,8.257,22.32v2.44h16.516v-2.44C107.355,369.243,105.891,361.326,103.227,355.11z"/>
<path style="fill:#694B4B;" d="M107.355,355.096L107.355,355.096c-18.243,0-33.032-14.789-33.032-33.032v-16.516  c0-13.682,11.092-24.774,24.774-24.774h16.516c13.682,0,24.774,11.092,24.774,24.774v16.516  C140.387,340.307,125.598,355.096,107.355,355.096z"/>
<path style="fill:#5A4146;" d="M103.076,354.664c-2.198-5.387-3.979-15.062-3.979-21.877v-27.24  c0-13.682,5.546-24.774,12.387-24.774H99.097c-13.682,0-24.774,11.092-24.774,24.774v16.516  C74.323,338.841,86.876,352.545,103.076,354.664z"/>
<path style="fill:#B4E66E;" d="M149.588,381.899l-18.335-7.334c-4.877-1.951-10.082-2.953-15.335-2.953H98.79  c-5.253,0-10.458,1.002-15.335,2.953l-18.334,7.334c-9.406,3.762-15.573,12.872-15.573,23.002v41.034  c0,4.561,3.697,8.258,8.258,8.258h99.097c4.561,0,8.258-3.697,8.258-8.258v-41.034C165.161,394.771,158.994,385.661,149.588,381.899  z"/>
<g>
	<path style="fill:#A0D755;" d="M74.323,454.193v-40.724c0-5.199-2.448-10.094-6.606-13.213l-13.32-9.989   c-3.057,4.163-4.848,9.238-4.848,14.634v41.034c0,4.56,3.697,8.258,8.258,8.258L74.323,454.193L74.323,454.193z"/>
	<path style="fill:#A0D755;" d="M140.387,454.193v-40.724c0-5.199,2.448-10.094,6.606-13.213l13.32-9.989   c3.057,4.163,4.848,9.238,4.848,14.634v41.034c0,4.56-3.697,8.258-8.258,8.258L140.387,454.193L140.387,454.193z"/>
</g>
<path style="fill:#959CB5;" d="M123.871,404.644H90.839c-13.682,0-24.774,11.092-24.774,24.774v24.774h82.581v-24.774  C148.645,415.736,137.553,404.644,123.871,404.644z"/>
<path style="fill:#F0C087;" d="M222.968,305.547v27.24c0,6.978,3.715,17.022,8.257,22.32l0.003,0.004  c5.328,6.216,8.257,14.133,8.257,22.32v2.44h33.032v-4.805c0-6.661,2.383-13.102,6.717-18.159l3.081-3.595  c3.695-4.31,6.717-12.482,6.717-18.159v-29.605c0-13.682-11.092-24.774-24.774-24.774h-16.516  C234.06,280.773,222.968,291.865,222.968,305.547z"/>
<path style="fill:#E6AF78;" d="M251.872,355.11l-0.002-0.004c-2.271-5.298-4.129-15.342-4.129-22.32v-27.24  c0-13.682,5.546-24.774,12.387-24.774h-12.387c-13.682,0-24.774,11.092-24.774,24.774v27.24c0,6.978,3.715,17.022,8.257,22.32  l0.003,0.004c5.328,6.216,8.257,14.133,8.257,22.32v2.44H256v-2.44C256,369.243,254.536,361.326,251.872,355.11z"/>
<path style="fill:#694B4B;" d="M256,355.096L256,355.096c-18.243,0-33.032-14.789-33.032-33.032v-16.516  c0-13.682,11.092-24.774,24.774-24.774h16.516c13.682,0,24.774,11.092,24.774,24.774v16.516  C289.032,340.307,274.243,355.096,256,355.096z"/>
<path style="fill:#5A4146;" d="M251.721,354.664c-2.198-5.387-3.979-15.062-3.979-21.877v-27.24  c0-13.682,5.546-24.774,12.387-24.774h-12.387c-13.682,0-24.774,11.092-24.774,24.774v16.516  C222.968,338.841,235.521,352.545,251.721,354.664z"/>
<path style="fill:#FFF082;" d="M298.233,381.899l-18.335-7.334c-4.877-1.951-10.082-2.953-15.335-2.953h-17.128  c-5.253,0-10.458,1.002-15.335,2.953l-18.334,7.334c-9.406,3.762-15.573,12.872-15.573,23.002v41.034  c0,4.561,3.697,8.258,8.258,8.258h99.097c4.561,0,8.258-3.697,8.258-8.258v-41.034C313.806,394.771,307.639,385.661,298.233,381.899  z"/>
<g>
	<path style="fill:#FFDC64;" d="M222.968,454.193v-40.724c0-5.199-2.448-10.094-6.606-13.213l-13.32-9.989   c-3.057,4.163-4.848,9.238-4.848,14.634v41.034c0,4.56,3.697,8.258,8.258,8.258L222.968,454.193L222.968,454.193z"/>
	<path style="fill:#FFDC64;" d="M289.032,454.193v-40.724c0-5.199,2.448-10.094,6.606-13.213l13.32-9.989   c3.057,4.163,4.848,9.238,4.848,14.634v41.034c0,4.56-3.697,8.258-8.258,8.258L289.032,454.193L289.032,454.193z"/>
</g>
<path style="fill:#959CB5;" d="M272.516,404.644h-33.032c-13.682,0-24.774,11.092-24.774,24.774v24.774h82.581v-24.774  C297.29,415.736,286.199,404.644,272.516,404.644z"/>
<path style="fill:#F0C087;" d="M371.613,305.547v27.24c0,6.978,3.715,17.022,8.257,22.32l0.003,0.004  c5.328,6.216,8.257,14.133,8.257,22.32v2.44h33.032v-4.805c0-6.661,2.383-13.102,6.717-18.159l3.081-3.595  c3.695-4.31,6.717-12.482,6.717-18.159v-29.605c0-13.682-11.092-24.774-24.774-24.774h-16.516  C382.705,280.773,371.613,291.865,371.613,305.547z"/>
<path style="fill:#E6AF78;" d="M400.517,355.11l-0.002-0.004c-2.271-5.298-4.129-15.342-4.129-22.32v-27.24  c0-13.682,5.546-24.774,12.387-24.774h-12.387c-13.682,0-24.774,11.092-24.774,24.774v27.24c0,6.978,3.715,17.022,8.257,22.32  l0.003,0.004c5.328,6.216,8.257,14.133,8.257,22.32v2.44h16.516v-2.44C404.645,369.243,403.181,361.326,400.517,355.11z"/>
<path style="fill:#694B4B;" d="M404.645,355.096L404.645,355.096c-18.243,0-33.032-14.789-33.032-33.032v-16.516  c0-13.682,11.092-24.774,24.774-24.774h16.516c13.682,0,24.774,11.092,24.774,24.774v16.516  C437.677,340.307,422.888,355.096,404.645,355.096z"/>
<path style="fill:#5A4146;" d="M400.366,354.664c-2.198-5.387-3.979-15.062-3.979-21.877v-27.24  c0-13.682,5.546-24.774,12.387-24.774h-12.387c-13.682,0-24.774,11.092-24.774,24.774v16.516  C371.613,338.841,384.166,352.545,400.366,354.664z"/>
<path style="fill:#FF507D;" d="M446.879,381.899l-18.335-7.334c-4.877-1.951-10.082-2.953-15.335-2.953h-17.128  c-5.253,0-10.458,1.002-15.335,2.953l-18.334,7.334c-9.406,3.762-15.573,12.872-15.573,23.002v41.034  c0,4.561,3.697,8.258,8.258,8.258h99.097c4.561,0,8.258-3.697,8.258-8.258v-41.034C462.452,394.771,456.284,385.661,446.879,381.899  z"/>
<g>
	<path style="fill:#D23C69;" d="M371.613,454.193v-40.724c0-5.199-2.448-10.094-6.606-13.213l-13.32-9.989   c-3.057,4.163-4.848,9.238-4.848,14.634v41.034c0,4.56,3.697,8.258,8.258,8.258L371.613,454.193L371.613,454.193z"/>
	<path style="fill:#D23C69;" d="M437.677,454.193v-40.724c0-5.199,2.448-10.094,6.606-13.213l13.32-9.989   c3.057,4.163,4.848,9.238,4.848,14.634v41.034c0,4.56-3.697,8.258-8.258,8.258L437.677,454.193L437.677,454.193z"/>
</g>
<path style="fill:#959CB5;" d="M421.161,404.644h-33.032c-13.682,0-24.774,11.092-24.774,24.774v24.774h82.581v-24.774  C445.935,415.736,434.844,404.644,421.161,404.644z"/>
<g>
</g>
<g>
</g>
<g>
</g>
<g>
</g>
<g>
</g>
<g>
</g>
<g>
</g>
<g>
</g>
<g>
</g>
<g>
</g>
<g>
</g>
<g>
</g>
<g>
</g>
<g>
</g>
<g>
</g>
</svg>
