<?xml version="1.0" encoding="iso-8859-1"?>
<!-- Generator: Adobe Illustrator 19.0.0, SVG Export Plug-In . SVG Version: 6.00 Build 0)  -->
<svg xmlns="http://www.w3.org/2000/svg" xmlns:xlink="http://www.w3.org/1999/xlink" version="1.1" id="Layer_1" x="0px" y="0px" viewBox="0 0 512 512" style="enable-background:new 0 0 512 512;" xml:space="preserve">
<path style="fill:#E2E7F2;" d="M464.002,36H272c-13.255,0-24,10.745-24,24v128c0,13.255,10.745,24,24,24h24l-13.33,53.32  c-0.906,3.625,3.211,6.403,6.233,4.205L368,212h96.002c13.255,0,24-10.745,24-24V60C488.002,46.745,477.256,36,464.002,36z"/>
<path style="fill:#D23C69;" d="M320,92h-24c-4.422,0-8-3.582-8-8s3.578-8,8-8h24c4.422,0,8,3.582,8,8S324.422,92,320,92z"/>
<path style="fill:#FF507D;" d="M440,92h-88c-4.422,0-8-3.582-8-8s3.578-8,8-8h88c4.422,0,8,3.582,8,8S444.422,92,440,92z"/>
<path style="fill:#7F8499;" d="M440,132H296c-4.422,0-8-3.582-8-8s3.578-8,8-8h144c4.422,0,8,3.582,8,8S444.422,132,440,132z"/>
<path style="fill:#707487;" d="M384,172h-88c-4.422,0-8-3.582-8-8s3.578-8,8-8h88c4.422,0,8,3.582,8,8S388.422,172,384,172z"/>
<path style="fill:#7F8499;" d="M440,172h-23.992c-4.422,0-8-3.582-8-8s3.578-8,8-8H440c4.422,0,8,3.582,8,8S444.422,172,440,172z"/>
<g>
	<rect x="24" y="396" style="fill:#E6AF78;" width="464" height="24"/>
	<path style="fill:#E6AF78;" d="M16,396v72c0,4.418,3.578,8,8,8s8-3.582,8-8v-72H16z"/>
	<path style="fill:#E6AF78;" d="M480,396v72c0,4.418,3.578,8,8,8s8-3.582,8-8v-72H480z"/>
	<path style="fill:#E6AF78;" d="M202.732,276.061l-25.888-12.944c-5.421-2.711-8.846-8.252-8.845-14.313l0.001-24h-48v24.001   c0,6.06-3.424,11.6-8.844,14.31l-25.89,12.945C77.136,280.126,72,288.436,72,297.527V364c0,13.255,10.745,24,24,24h120v-90.472   C216,288.437,210.864,280.126,202.732,276.061z"/>
</g>
<path style="fill:#D29B6E;" d="M144,256.804c8.614,0,16.865-1.775,24.429-4.937c-0.199-1.008-0.43-2.011-0.43-3.063l0.001-24h-48  v24.001c0,1.057-0.231,2.064-0.432,3.077C127.137,255.027,135.383,256.804,144,256.804z"/>
<path style="fill:#FF507D;" d="M202.732,276.061l-18.443-9.221c-8.552,13.206-23.385,21.964-40.289,21.964  c-16.905,0-31.738-8.759-40.29-21.965l-18.443,9.222C77.136,280.126,72,288.437,72,297.527V364c0,13.255,10.745,24,24,24h120  v-90.472C216,288.437,210.864,280.126,202.732,276.061z"/>
<g>
	<path style="fill:#D23C69;" d="M211.123,283.106c3.082,4.089,4.877,9.107,4.877,14.421V388h-32v-75.506   c0-4.861,2.209-9.458,6.005-12.494L211.123,283.106z"/>
	<path style="fill:#D23C69;" d="M104,348v-35.506c0-4.861-2.209-9.458-6.005-12.494l-21.118-16.895   C73.795,287.194,72,292.213,72,297.527V364c0,13.255,10.745,24,24,24h48v-32h-32C107.582,356,104,352.418,104,348z"/>
</g>
<ellipse style="fill:#785550;" cx="144" cy="120" rx="32" ry="28"/>
<path style="fill:#694B4B;" d="M136,120c0-11.745,8.282-21.766,20-25.924C152.289,92.759,148.25,92,144,92  c-17.673,0-32,12.536-32,28s14.327,28,32,28c4.25,0,8.289-0.759,12-2.076C144.282,141.766,136,131.745,136,120z"/>
<circle style="fill:#5A4146;" cx="144" cy="172" r="56"/>
<path style="fill:#694B4B;" d="M199.475,164.237c-3.077-22.821-20.562-41.9-43.047-46.865c-4.102-0.906-8.14-1.347-12.079-1.371  c-26.829-0.167-35.788,36.878-11.669,48.629c1.297,0.632,2.119,0.915,2.119,0.915L162.667,216c0,0,7.426,0.507,14.915,0.738  C193.064,205.097,202.367,185.68,199.475,164.237z"/>
<path style="fill:#F0C087;" d="M144,244L144,244c-24.404,0-44.555-18.212-47.602-41.787c-0.441-3.415,1.2-6.765,4.275-8.316  c3.683-1.858,9.035-4.991,14.16-9.563c5.707-5.092,9.055-10.462,10.945-14.403c1.628-3.395,5.371-5.314,9.02-4.384  c28.168,7.184,47.344,21.839,54.301,27.822c1.868,1.607,2.944,3.975,2.752,6.432C189.915,224.533,169.231,244,144,244z"/>
<path style="fill:#E6AF78;" d="M189.1,193.368c-6.957-5.983-26.134-20.637-54.301-27.822c-3.648-0.931-7.392,0.989-9.02,4.384  c-1.432,2.985-3.798,6.789-7.311,10.671c-0.001,0.009-0.003,0.018-0.004,0.027c-1.09,1.235-2.25,2.473-3.63,3.705  c-5.125,4.573-10.477,7.705-14.16,9.563c-3.075,1.551-4.716,4.901-4.275,8.316c2.736,21.172,19.305,37.898,40.324,41.112  C127.145,236.809,120,227.975,120,212v-11.408c1.817-1.341,3.647-2.68,5.486-4.321c4.446-3.968,8.328-8.557,11.441-13.498  c21.548,6.724,36.157,17.924,41.695,22.686c1.516,1.33,5.278,4.797,9.681,8.927c1.894-4.558,3.146-9.448,3.549-14.588  C192.044,197.343,190.968,194.974,189.1,193.368z"/>
<g>
	<rect x="16" y="396" style="fill:#D29B6E;" width="16" height="24"/>
	<rect x="480" y="396" style="fill:#D29B6E;" width="16" height="24"/>
</g>
<path style="fill:#F0C087;" d="M504,404H8c-4.422,0-8-3.582-8-8s3.578-8,8-8h496c4.422,0,8,3.582,8,8S508.422,404,504,404z"/>
<path style="fill:#AFB9D2;" d="M152,388h-40c-4.418,0-8-3.582-8-8l0,0c0-4.418,3.582-8,8-8h40V388z"/>
<path style="fill:#C7CFE2;" d="M144,308h96c4.418,0,8,3.582,8,8v64c0,4.418-3.582,8-8,8h-96c-4.418,0-8-3.582-8-8v-64  C136,311.582,139.582,308,144,308z"/>
<path style="fill:#FFFFFF;" d="M200,356h-16c-4.422,0-8-3.582-8-8s3.578-8,8-8h16c4.422,0,8,3.582,8,8S204.422,356,200,356z"/>
<g>
</g>
<g>
</g>
<g>
</g>
<g>
</g>
<g>
</g>
<g>
</g>
<g>
</g>
<g>
</g>
<g>
</g>
<g>
</g>
<g>
</g>
<g>
</g>
<g>
</g>
<g>
</g>
<g>
</g>
</svg>
