<?xml version="1.0" encoding="iso-8859-1"?>
<!-- Generator: Adobe Illustrator 19.0.0, SVG Export Plug-In . SVG Version: 6.00 Build 0)  -->
<svg xmlns="http://www.w3.org/2000/svg" xmlns:xlink="http://www.w3.org/1999/xlink" version="1.1" id="Layer_1" x="0px" y="0px" viewBox="0 0 512 512" style="enable-background:new 0 0 512 512;" xml:space="preserve">
<path style="fill:#E6AF78;" d="M438.593,226.434l-32.79-9.368c-3.434-0.981-5.802-4.12-5.802-7.692V196h-48v13.373  c0,3.572-2.368,6.711-5.802,7.692l-32.791,9.369C303.103,229.378,296,238.795,296,249.511V348h128c17.673,0,32-14.327,32-32v-66.489  C456,238.795,448.896,229.378,438.593,226.434z"/>
<path style="fill:#FFF082;" d="M438.593,226.434l-21.282-6.08C408.958,234.49,393.608,244,376,244s-32.959-9.511-41.312-23.646  l-21.282,6.081C303.103,229.378,296,238.795,296,249.511V348h128c17.673,0,32-14.327,32-32v-66.489  C456,238.795,448.896,229.378,438.593,226.434z"/>
<path style="fill:#D29B6E;" d="M376,220c9.234,0,17.99-1.995,25.919-5.515c-1.183-1.407-1.919-3.177-1.919-5.112V196h-48v13.373  c0,1.936-0.737,3.706-1.92,5.112C358.009,218.005,366.765,220,376,220z"/>
<path style="fill:#5A4146;" d="M320,108v5.614c0,6.879,1.109,13.713,3.284,20.239L336,172h24V84h-16C330.745,84,320,94.745,320,108z  "/>
<path style="fill:#694B4B;" d="M429.538,124.619L416,172l-64-56c-8.837,0-16-7.163-16-16l0,0c0-13.255,10.745-24,24-24h56  c8.837,0,16,7.163,16,16v15.036C432,112.983,431.171,118.901,429.538,124.619z"/>
<path style="fill:#F0C087;" d="M376,204L376,204c-26.51,0-48-21.49-48-48v-9.373c0-4.243,1.686-8.313,4.686-11.314l14.507-14.507  c3.072-3.072,7.273-4.838,11.615-4.701c25.573,0.807,48.209,6.285,60.582,18.37c3.029,2.958,4.61,7.097,4.61,11.331V156  C424,182.51,402.51,204,376,204z"/>
<path style="fill:#E6AF78;" d="M352,148.612c0-9.229,7.75-16.564,16.96-15.977c16.15,1.03,40.115,3.729,54.818,10.802  c-0.48-3.375-1.93-6.561-4.388-8.962c-12.374-12.085-35.009-17.563-60.583-18.37h-0.001l0,0c-4.341-0.137-8.542,1.63-11.613,4.702  l-14.506,14.506c-3.001,3-4.687,7.07-4.687,11.314V156c0,21.89,14.667,40.321,34.7,46.092C356.032,193.865,352,183.423,352,172  V148.612z"/>
<g>
	<path style="fill:#FFDC64;" d="M328,273.348c0-6.365-2.529-12.47-7.029-16.971l-20.593-20.593   c-2.752,3.934-4.377,8.67-4.377,13.726V348h32v-74.652H328z"/>
	<path style="fill:#FFDC64;" d="M451.623,235.785l-20.593,20.593c-4.501,4.501-7.029,10.605-7.029,16.97V308c0,4.418-3.582,8-8,8   h-32v32h40c17.673,0,32-14.327,32-32v-66.489C456,244.455,454.375,239.719,451.623,235.785z"/>
</g>
<g>
	<rect x="24" y="356" style="fill:#E6AF78;" width="464" height="24"/>
	<path style="fill:#E6AF78;" d="M16,356v72c0,4.418,3.578,8,8,8s8-3.582,8-8v-72H16z"/>
	<path style="fill:#E6AF78;" d="M480,356v72c0,4.418,3.578,8,8,8s8-3.582,8-8v-72H480z"/>
</g>
<path style="fill:#5A4146;" d="M199.202,197.464c-6.836-18.114-12.258-49.252-13.429-65.464c-2.228-30.851-25.477-56-56.905-56  s-54.677,25.149-56.905,56c-1.171,16.211-6.593,47.35-13.429,65.464c-1.507,3.993,0.233,8.396,4.164,10.179  c7.326,3.32,22.945,9.824,41.782,12.357h48.776c18.749-2.54,34.477-9.047,41.782-12.357  C198.97,205.86,200.709,201.457,199.202,197.464z"/>
<path style="fill:#694B4B;" d="M195.038,207.643c3.932-1.782,5.671-6.186,4.164-10.179c-6.836-18.114-12.258-49.252-13.429-65.464  c-2.228-30.851-25.478-56-56.905-56c-0.079,0-0.158,0-0.237,0c-24.115,0.098-32.637,32.986-11.878,45.257  c1.247,0.737,2.046,1.092,2.046,1.092L136.981,220h16.274C172.005,217.46,187.733,210.953,195.038,207.643z"/>
<path style="fill:#E6AF78;" d="M186.732,236.061l-25.888-12.943c-5.421-2.711-8.846-8.252-8.845-14.313l0.001-24h-48v24.001  c0,6.06-3.424,11.6-8.844,14.31l-25.89,12.945C61.136,240.126,56,248.436,56,257.527V324c0,13.255,10.745,24,24,24h120v-90.472  C200,248.437,194.864,240.126,186.732,236.061z"/>
<path style="fill:#D29B6E;" d="M128,216.804c8.614,0,16.865-1.775,24.429-4.937c-0.199-1.008-0.43-2.011-0.43-3.063l0.001-24h-48  v24.001c0,1.057-0.231,2.064-0.432,3.077C111.137,215.027,119.383,216.804,128,216.804z"/>
<path style="fill:#B4E66E;" d="M186.732,236.061l-18.443-9.221c-8.552,13.206-23.385,21.964-40.289,21.964  c-16.905,0-31.738-8.759-40.29-21.965l-18.443,9.222C61.136,240.126,56,248.437,56,257.527V324c0,13.255,10.745,24,24,24h120  v-90.472C200,248.437,194.864,240.126,186.732,236.061z"/>
<path style="fill:#F0C087;" d="M128,200.804L128,200.804c-24.404,0-44.555-18.212-47.602-41.787c-0.441-3.415,1.2-6.765,4.275-8.316  c3.683-1.858,9.035-4.991,14.16-9.563c5.707-5.092,9.055-10.462,10.945-14.403c1.628-3.395,5.371-5.314,9.02-4.384  c28.168,7.184,47.344,21.839,54.301,27.822c1.868,1.607,2.944,3.975,2.752,6.432C173.915,181.337,153.231,200.804,128,200.804z"/>
<path style="fill:#E6AF78;" d="M173.1,150.172c-6.957-5.983-26.134-20.637-54.301-27.822c-3.648-0.931-7.392,0.989-9.02,4.384  c-1.432,2.985-3.798,6.789-7.311,10.671c-0.001,0.009-0.003,0.018-0.004,0.027c-1.09,1.235-2.25,2.473-3.63,3.705  c-5.125,4.573-10.477,7.705-14.16,9.563c-3.075,1.551-4.716,4.901-4.275,8.316c2.736,21.172,19.305,38.035,40.324,41.249  C111.145,193.75,104,184.779,104,168.804v-11.408c1.817-1.341,3.647-2.68,5.486-4.321c4.446-3.968,8.328-8.557,11.441-13.498  c21.548,6.724,36.157,17.924,41.695,22.686c1.516,1.33,5.278,4.797,9.681,8.927c1.894-4.558,3.146-9.448,3.549-14.588  C176.044,154.147,174.968,151.778,173.1,150.172z"/>
<g>
	<path style="fill:#A0D755;" d="M195.123,243.106c3.082,4.089,4.877,9.107,4.877,14.421V348h-32v-75.506   c0-4.861,2.209-9.458,6.005-12.494L195.123,243.106z"/>
	<path style="fill:#A0D755;" d="M88,308v-35.506c0-4.861-2.209-9.458-6.005-12.494l-21.118-16.895   C57.795,247.194,56,252.213,56,257.527V324c0,13.255,10.745,24,24,24h48v-32H96C91.582,316,88,312.418,88,308z"/>
</g>
<g>
	<rect x="16" y="356" style="fill:#D29B6E;" width="16" height="24"/>
	<rect x="480" y="356" style="fill:#D29B6E;" width="16" height="24"/>
</g>
<path style="fill:#F0C087;" d="M504,364H8c-4.422,0-8-3.582-8-8s3.578-8,8-8h496c4.422,0,8,3.582,8,8S508.422,364,504,364z"/>
<g>
	<path style="fill:#AFB9D2;" d="M136,348H96c-4.418,0-8-3.582-8-8l0,0c0-4.418,3.582-8,8-8h40V348z"/>
	<path style="fill:#AFB9D2;" d="M376,332h40c4.418,0,8,3.582,8,8l0,0c0,4.418-3.582,8-8,8h-40V332z"/>
</g>
<path style="fill:#C7CFE2;" d="M128,268h96c4.418,0,8,3.582,8,8v64c0,4.418-3.582,8-8,8h-96c-4.418,0-8-3.582-8-8v-64  C120,271.582,123.582,268,128,268z"/>
<path style="fill:#FFFFFF;" d="M184,316h-16c-4.422,0-8-3.582-8-8s3.578-8,8-8h16c4.422,0,8,3.582,8,8S188.422,316,184,316z"/>
<path style="fill:#C7CFE2;" d="M288,268h96c4.418,0,8,3.582,8,8v64c0,4.418-3.582,8-8,8h-96c-4.418,0-8-3.582-8-8v-64  C280,271.582,283.582,268,288,268z"/>
<path style="fill:#FFFFFF;" d="M336,316L336,316c-4.422,0-8-3.582-8-8s3.578-8,8-8l0,0c4.422,0,8,3.582,8,8S340.422,316,336,316z"/>
<g>
</g>
<g>
</g>
<g>
</g>
<g>
</g>
<g>
</g>
<g>
</g>
<g>
</g>
<g>
</g>
<g>
</g>
<g>
</g>
<g>
</g>
<g>
</g>
<g>
</g>
<g>
</g>
<g>
</g>
</svg>
