<?xml version="1.0" encoding="iso-8859-1"?>
<!-- Generator: Adobe Illustrator 19.0.0, SVG Export Plug-In . SVG Version: 6.00 Build 0)  -->
<svg xmlns="http://www.w3.org/2000/svg" xmlns:xlink="http://www.w3.org/1999/xlink" version="1.1" id="Layer_1" x="0px" y="0px" viewBox="0 0 512.004 512.004" style="enable-background:new 0 0 512.004 512.004;" xml:space="preserve">
<circle style="fill:#FF507D;" cx="256" cy="49.548" r="49.548"/>
<g>
	<path style="fill:#D5DCED;" d="M217.911,397.46c-5.734-10.855-16.919-17.601-29.202-17.601l-40.065,0.005v-66.057   c0-4.56-3.694-8.258-8.258-8.258s-8.258,3.698-8.258,8.258v66.059l-40.073,0.005c-12.282,0.004-23.468,6.75-29.202,17.601   l-19.202,36.343c-2.137,4.032-0.589,9.028,3.444,11.161c1.226,0.649,2.548,0.956,3.847,0.956c2.968,0,5.831-1.597,7.306-4.399   L77.45,405.19c2.871-5.427,8.468-8.798,14.605-8.802l96.653-0.012c6.137,0,11.734,3.371,14.605,8.802l19.21,36.351   c2.121,4.028,7.121,5.577,11.153,3.444s5.581-7.129,3.444-11.161L217.911,397.46z"/>
	<path style="fill:#D5DCED;" d="M173.613,205.496c4.032,2.137,9.032,0.585,11.153-3.444l12.815-24.234   c1.427-2.71,4.218-4.395,7.29-4.395h102.258c3.073,0,5.863,1.685,7.298,4.399l12.806,24.23c1.476,2.802,4.339,4.399,7.306,4.399   c1.298,0,2.621-0.306,3.847-0.956c4.032-2.133,5.581-7.129,3.444-11.161l-12.798-24.226c-4.298-8.141-12.694-13.202-21.903-13.202   h-42.872c0-0.002,0.001-0.003,0.001-0.004V123.87c0-4.56-3.694-8.258-8.258-8.258s-8.258,3.698-8.258,8.258v33.032   c0,0.002,0.001,0.003,0.001,0.004h-42.872c-9.21,0-17.605,5.06-21.895,13.198l-12.806,24.23   C168.032,198.367,169.581,203.363,173.613,205.496z"/>
	<path style="fill:#D5DCED;" d="M468.347,433.815l-19.202-36.343c-5.734-10.851-16.919-17.597-29.202-17.601l-40.073-0.005v-66.059   c0-4.56-3.694-8.258-8.258-8.258s-8.258,3.698-8.258,8.258v66.057l-40.065-0.005c-12.282,0-23.468,6.746-29.202,17.601   l-19.21,36.351c-2.137,4.032-0.589,9.028,3.444,11.161c4.024,2.133,9.032,0.585,11.153-3.444l19.21-36.351   c2.871-5.431,8.468-8.802,14.605-8.802l96.653,0.012c6.137,0.004,11.734,3.375,14.605,8.802l19.202,36.343   c1.476,2.802,4.339,4.399,7.306,4.399c1.298,0,2.621-0.306,3.847-0.956C468.935,442.843,470.484,437.847,468.347,433.815z"/>
</g>
<path style="fill:#D23C69;" d="M280.774,82.581c-27.365,0-49.548-22.183-49.548-49.548c0-11.758,4.115-22.544,10.958-31.04  c-20.634,5.986-35.732,24.992-35.732,47.556c0,27.365,22.183,49.548,49.548,49.548c15.607,0,29.509-7.231,38.591-18.508  C290.201,81.862,285.575,82.581,280.774,82.581z"/>
<circle style="fill:#FFC850;" cx="140.39" cy="256" r="33.03"/>
<path style="fill:#FFAF3C;" d="M156.903,278.022c-18.243,0-33.032-14.789-33.032-33.032c0-7.839,2.744-15.03,7.305-20.694  c-13.756,3.991-23.821,16.661-23.821,31.704c0,18.243,14.789,33.032,33.032,33.032c10.405,0,19.672-4.821,25.727-12.339  C163.188,277.543,160.104,278.022,156.903,278.022z"/>
<circle style="fill:#FFC850;" cx="371.61" cy="256" r="33.03"/>
<path style="fill:#FFAF3C;" d="M388.129,278.022c-18.243,0-33.032-14.789-33.032-33.032c0-7.839,2.744-15.03,7.305-20.694  c-13.756,3.991-23.821,16.661-23.821,31.704c0,18.243,14.789,33.032,33.032,33.032c10.405,0,19.672-4.821,25.727-12.339  C394.414,277.543,391.329,278.022,388.129,278.022z"/>
<circle style="fill:#FFF082;" cx="24.774" cy="487.23" r="24.774"/>
<path style="fill:#FFDC64;" d="M37.161,503.742c-13.682,0-24.774-11.092-24.774-24.774c0-5.879,2.058-11.272,5.479-15.52  C7.549,466.441,0,475.944,0,487.226C0,500.908,11.092,512,24.774,512c7.803,0,14.754-3.615,19.295-9.254  C41.875,503.383,39.561,503.742,37.161,503.742z"/>
<circle style="fill:#FFF082;" cx="256" cy="487.23" r="24.774"/>
<path style="fill:#FFDC64;" d="M268.387,503.742c-13.682,0-24.774-11.092-24.774-24.774c0-5.879,2.058-11.272,5.479-15.52  c-10.317,2.993-17.866,12.496-17.866,23.778C231.226,500.908,242.318,512,256,512c7.803,0,14.754-3.615,19.295-9.254  C273.101,503.383,270.787,503.742,268.387,503.742z"/>
<circle style="fill:#FFF082;" cx="487.23" cy="487.23" r="24.774"/>
<path style="fill:#FFDC64;" d="M499.613,503.742c-13.682,0-24.774-11.092-24.774-24.774c0-5.879,2.058-11.272,5.479-15.52  c-10.317,2.993-17.866,12.496-17.866,23.778c0,13.682,11.092,24.774,24.774,24.774c7.803,0,14.754-3.615,19.295-9.254  C504.326,503.383,502.013,503.742,499.613,503.742z"/>
<g>
</g>
<g>
</g>
<g>
</g>
<g>
</g>
<g>
</g>
<g>
</g>
<g>
</g>
<g>
</g>
<g>
</g>
<g>
</g>
<g>
</g>
<g>
</g>
<g>
</g>
<g>
</g>
<g>
</g>
</svg>
