<?xml version="1.0" encoding="iso-8859-1"?>
<!-- Generator: Adobe Illustrator 19.0.0, SVG Export Plug-In . SVG Version: 6.00 Build 0)  -->
<svg xmlns="http://www.w3.org/2000/svg" xmlns:xlink="http://www.w3.org/1999/xlink" version="1.1" id="Layer_1" x="0px" y="0px" viewBox="0 0 511.999 511.999" style="enable-background:new 0 0 511.999 511.999;" xml:space="preserve">
<path style="fill:#E2E7F2;" d="M487.226,66.064H305.548c-13.682,0-24.774,11.092-24.774,24.774v132.129  c0,13.682,11.092,24.774,24.774,24.774h24.774l-13.76,55.04c-0.935,3.742,3.315,6.609,6.434,4.341l81.648-59.381h82.581  c13.682,0,24.774-11.092,24.774-24.774V90.838C512,77.155,500.908,66.064,487.226,66.064z"/>
<path style="fill:#D5DCED;" d="M396.387,222.967L396.387,222.967c-18.243,0-33.032-14.789-33.032-33.032V66.064h66.065v123.871  C429.419,208.178,414.63,222.967,396.387,222.967z"/>
<g>
	<path style="fill:#FF507D;" d="M396.887,148.644h-1c-4.361,0-7.97-3.391-8.242-7.743l-7.226-115.613   c-0.297-4.754,3.479-8.773,8.242-8.773h15.452c4.763,0,8.539,4.019,8.242,8.773l-7.226,115.613   C404.857,145.254,401.248,148.644,396.887,148.644z"/>
	<circle style="fill:#FF507D;" cx="396.39" cy="189.939" r="16.516"/>
</g>
<path style="fill:#00C3FF;" d="M259.03,404.995l-69.095-25.125l-49.548,16.516L90.839,379.87l-69.095,25.125  C8.69,409.742,0,422.149,0,436.039v51.186c0,4.56,3.697,8.258,8.258,8.258h264.258c4.561,0,8.258-3.698,8.258-8.258v-51.186  C280.774,422.149,272.085,409.742,259.03,404.995z"/>
<polygon style="fill:#5B5D6E;" points="131.736,412.902 123.871,495.483 156.903,495.483 149.038,412.902 "/>
<path style="fill:#464655;" d="M149.057,424.248h-17.34c-3.193,0-5.781-2.588-5.781-5.781v-22.081h28.901v22.081  C154.838,421.66,152.25,424.248,149.057,424.248z"/>
<path style="fill:#00AAF0;" d="M271.886,413.533c5.576,5.985,8.889,13.956,8.889,22.506v51.186c0,4.561-3.697,8.258-8.258,8.258  h-41.29v-27.608c0-8.761,3.48-17.163,9.675-23.357L271.886,413.533z"/>
<path style="fill:#5A4146;" d="M231.226,209.566v-69.18c0-9.122-7.395-16.516-16.516-16.516h-99.097  c-36.486,0-66.065,29.578-66.065,66.065v19.631c0,8.876,1.431,17.694,4.238,26.114l2.749,8.247c0.842,2.526,1.271,5.172,1.271,7.834  v4.238h165.161v-4.238c0-2.663,0.429-5.308,1.271-7.834l2.749-8.247C229.795,227.26,231.226,218.442,231.226,209.566z"/>
<path style="fill:#694B4B;" d="M90.839,157.418c0,18.528,15.02,33.548,33.548,33.548h4.645l2.243,65.033h91.693v-4.238  c0-2.663,0.429-5.308,1.271-7.834l2.749-8.247c2.807-8.42,4.238-17.238,4.238-26.114v-69.179c0-9.122-7.395-16.516-16.516-16.516  h-90.323C105.859,123.87,90.839,138.89,90.839,157.418z"/>
<rect x="90.84" y="322.059" style="fill:#E6AF78;" width="99.1" height="74.32"/>
<path style="fill:#D29B6E;" d="M90.839,349.988c14.588,8.451,31.477,13.366,49.548,13.366s34.961-4.915,49.548-13.366v-27.924  H90.839V349.988z"/>
<g>
	<path style="fill:#00AAF0;" d="M140.387,396.386l-26.338,26.338c-3.54,3.54-9.391,3.141-12.417-0.847l-27.309-35.984l7.143-15.053   c2.108-4.442,7.606-6.069,11.792-3.49L140.387,396.386z"/>
	<path style="fill:#00AAF0;" d="M140.387,396.386l26.338,26.338c3.54,3.54,9.391,3.141,12.417-0.847l27.309-35.984l-7.143-15.053   c-2.108-4.442-7.606-6.07-11.792-3.49L140.387,396.386z"/>
</g>
<path style="fill:#F0C087;" d="M140.387,346.838L140.387,346.838c-45.608,0-82.581-36.973-82.581-82.581v-9.675  c0-4.38,1.74-8.581,4.837-11.679l6.841-6.841c3.097-3.097,4.837-7.298,4.837-11.679v-19.797c0-3.824,2.568-7.146,6.289-8.025  c19.531-4.613,80.308-15.54,121.669,14.88c2.686,1.975,4.171,5.22,4.171,8.554v4.387c0,4.38,1.74,8.581,4.837,11.679l6.841,6.841  c3.097,3.097,4.837,7.298,4.837,11.679v9.675C222.968,309.865,185.995,346.838,140.387,346.838z"/>
<path style="fill:#E6AF78;" d="M202.28,211.442c-29.09-21.395-67.731-22.321-94.925-19.392c-11.471,1.235-20.949,3.144-26.743,4.512  c-3.721,0.879-6.289,4.201-6.289,8.025v19.795c0,4.381-1.74,8.582-4.838,11.68l-6.841,6.841c-3.098,3.098-4.838,7.299-4.838,11.68  v9.674c0,42.224,31.71,76.985,72.602,81.92c-14.249-14.839-23.054-34.948-23.054-57.146V228.67c0-8.369,6.223-15.363,14.526-16.404  c19.818-2.485,56.116-3.979,84.57,12.118v-4.388C206.452,216.663,204.964,213.417,202.28,211.442z"/>
<path style="fill:#00AAF0;" d="M8.889,413.533C3.312,419.518,0,427.489,0,436.039v51.186c0,4.561,3.697,8.258,8.258,8.258h41.29  v-27.608c0-8.761-3.48-17.163-9.675-23.357L8.889,413.533z"/>
<g>
</g>
<g>
</g>
<g>
</g>
<g>
</g>
<g>
</g>
<g>
</g>
<g>
</g>
<g>
</g>
<g>
</g>
<g>
</g>
<g>
</g>
<g>
</g>
<g>
</g>
<g>
</g>
<g>
</g>
</svg>
