<?xml version="1.0" encoding="iso-8859-1"?>
<!-- Generator: Adobe Illustrator 19.0.0, SVG Export Plug-In . SVG Version: 6.00 Build 0)  -->
<svg xmlns="http://www.w3.org/2000/svg" xmlns:xlink="http://www.w3.org/1999/xlink" version="1.1" id="Layer_1" x="0px" y="0px" viewBox="0 0 512.001 512.001" style="enable-background:new 0 0 512.001 512.001;" xml:space="preserve">
<path style="fill:#E6AF78;" d="M323.566,307.371l-37.786-16.195c-3.036-1.301-5.005-4.287-5.005-7.59v-11.071h-49.548v11.071  c0,3.303-1.969,6.289-5.005,7.59l-37.786,16.195c-9.109,3.904-15.015,12.86-15.015,22.771v82.761h165.161v-82.761  C338.581,320.232,332.674,311.275,323.566,307.371z"/>
<path style="fill:#D29B6E;" d="M256,297.29c10.353,0,20.112-2.449,28.835-6.695c-2.463-1.478-4.061-4.084-4.061-7.009v-11.071  h-49.548v11.071c0,2.925-1.598,5.531-4.061,7.009C235.888,294.841,245.647,297.29,256,297.29z"/>
<path style="fill:#AFB9D2;" d="M323.566,307.371l-32.22-13.809c-7.206,12.073-20.264,20.244-35.345,20.244  s-28.139-8.171-35.345-20.244l-32.22,13.809c-9.109,3.904-15.015,12.86-15.015,22.771v82.761h165.161v-82.761  C338.581,320.232,332.674,311.275,323.566,307.371z"/>
<path style="fill:#5A4146;" d="M198.194,181.677v5.795c0,7.101,1.145,14.155,3.39,20.891l13.126,39.378h24.774v-90.839h-16.516  C209.285,156.903,198.194,167.995,198.194,181.677z"/>
<path style="fill:#694B4B;" d="M311.265,198.832l-13.974,48.91l-66.065-57.806c-9.122,0-16.516-7.395-16.516-16.516l0,0  c0-13.682,11.092-24.774,24.774-24.774h57.806c9.122,0,16.516,7.395,16.516,16.516v15.522  C313.806,186.821,312.951,192.93,311.265,198.832z"/>
<path style="fill:#F0C087;" d="M256,280.774L256,280.774c-27.365,0-49.548-22.184-49.548-49.548v-9.675  c0-4.38,1.74-8.581,4.837-11.679l14.975-14.975c3.171-3.171,7.507-4.994,11.989-4.853c26.398,0.833,49.764,6.488,62.537,18.963  c3.127,3.054,4.759,7.326,4.759,11.696v10.523C305.548,258.591,283.365,280.774,256,280.774z"/>
<path style="fill:#E6AF78;" d="M231.226,223.6c0-9.526,8-17.098,17.507-16.492c16.671,1.064,41.409,3.85,56.586,11.15  c-0.495-3.484-1.992-6.773-4.529-9.251c-12.773-12.475-36.139-18.13-62.537-18.963l-0.001,0.001l-0.001-0.001  c-4.481-0.141-8.818,1.683-11.988,4.853l-14.974,14.974c-3.098,3.097-4.838,7.298-4.838,11.679v9.675  c0,22.596,15.141,41.621,35.82,47.579c-6.883-8.492-11.045-19.272-11.045-31.063V223.6z"/>
<g>
	<path style="fill:#959CB5;" d="M199.196,334.842l-20.231-20.231c-3.487,4.32-5.545,9.746-5.545,15.531v82.761h33.032v-60.544   C206.452,345.789,203.842,339.487,199.196,334.842z"/>
	<path style="fill:#959CB5;" d="M312.804,334.842l20.231-20.231c3.487,4.32,5.545,9.746,5.545,15.531v82.761h-33.032v-60.544   C305.548,345.789,308.158,339.487,312.804,334.842z"/>
</g>
<path style="fill:#AFB9D2;" d="M503.742,214.71h-21.96c-3.902,0-7.193-2.756-8.026-6.568c-5.707-26.101-15.963-50.495-29.933-72.294  c-2.106-3.286-1.721-7.557,1.039-10.317l15.514-15.514c3.225-3.225,3.225-8.454,0-11.679l-46.715-46.715  c-3.225-3.225-8.454-3.225-11.678,0l-15.515,15.515c-2.76,2.76-7.031,3.145-10.317,1.038  c-21.799-13.969-46.192-24.225-72.294-29.932c-3.811-0.833-6.568-4.124-6.568-8.026V8.258c0-4.561-3.697-8.258-8.258-8.258h-66.065  c-4.561,0-8.258,3.697-8.258,8.258v21.96c0,3.902-2.756,7.193-6.568,8.026c-26.102,5.707-50.495,15.963-72.294,29.932  c-3.286,2.106-7.557,1.722-10.317-1.038l-15.515-15.515c-3.225-3.225-8.454-3.225-11.678,0L51.623,98.338  c-3.225,3.225-3.225,8.454,0,11.679l15.514,15.514c2.76,2.76,3.145,7.031,1.039,10.317c-13.97,21.799-24.226,46.193-29.933,72.294  c-0.833,3.812-4.124,6.568-8.026,6.568H8.258c-4.561,0-8.258,3.697-8.258,8.258v66.065c0,4.56,3.697,8.258,8.258,8.258h21.96  c3.902,0,7.193,2.756,8.026,6.568c5.707,26.102,15.963,50.495,29.933,72.294c2.106,3.286,1.721,7.556-1.039,10.317l-15.514,15.515  c-3.225,3.225-3.225,8.454,0,11.678l46.715,46.715c3.225,3.225,8.454,3.225,11.678,0l15.514-15.515  c2.76-2.76,7.031-3.144,10.317-1.038c21.799,13.97,46.193,24.226,72.294,29.932c3.811,0.834,6.568,4.125,6.568,8.026v21.96  c0,4.56,3.697,8.258,8.258,8.258h66.065c4.561,0,8.258-3.698,8.258-8.258v-21.96c0-3.902,2.756-7.193,6.568-8.026  c26.102-5.707,50.495-15.963,72.294-29.932c3.286-2.106,7.557-1.722,10.317,1.038l15.514,15.515c3.225,3.225,8.454,3.225,11.678,0  l46.715-46.715c3.225-3.225,3.225-8.454,0-11.678l-15.514-15.515c-2.76-2.76-3.145-7.03-1.039-10.317  c13.97-21.799,24.226-46.193,29.933-72.294c0.833-3.811,4.124-6.568,8.026-6.568h21.96c4.561,0,8.258-3.698,8.258-8.258v-66.065  C512,218.407,508.303,214.71,503.742,214.71z M256,412.903c-86.655,0-156.903-70.248-156.903-156.903S169.345,99.097,256,99.097  S412.903,169.345,412.903,256S342.655,412.903,256,412.903z"/>
<path style="fill:#959CB5;" d="M256,74.323c-100.338,0-181.677,81.34-181.677,181.677S155.662,437.677,256,437.677  S437.677,356.338,437.677,256S356.338,74.323,256,74.323z M256,404.645c-82.094,0-148.645-66.551-148.645-148.645  S173.906,107.355,256,107.355S404.645,173.906,404.645,256S338.094,404.645,256,404.645z"/>
<g>
</g>
<g>
</g>
<g>
</g>
<g>
</g>
<g>
</g>
<g>
</g>
<g>
</g>
<g>
</g>
<g>
</g>
<g>
</g>
<g>
</g>
<g>
</g>
<g>
</g>
<g>
</g>
<g>
</g>
</svg>
